<svg id="Layer_1" data-name="Layer 1" xmlns="http://www.w3.org/2000/svg" viewBox="0 0 1096.14 637.01"><defs><style>.cls-1,.cls-2{fill:#231f20;}.cls-1{opacity:0.2;}</style></defs><title>pomer</title><circle class="cls-1" cx="15.37" cy="15.37" r="15.37"/><circle class="cls-1" cx="56.34" cy="15.37" r="15.37"/><circle class="cls-1" cx="97.32" cy="15.37" r="15.37"/><circle class="cls-1" cx="138.3" cy="15.37" r="15.37"/><circle class="cls-1" cx="179.28" cy="15.37" r="15.37"/><circle class="cls-1" cx="220.25" cy="15.37" r="15.37"/><circle class="cls-1" cx="15.37" cy="58.67" r="15.37"/><circle class="cls-1" cx="56.34" cy="58.67" r="15.37"/><circle class="cls-1" cx="97.32" cy="58.67" r="15.37"/><circle class="cls-1" cx="138.3" cy="58.67" r="15.37"/><circle class="cls-1" cx="179.28" cy="58.67" r="15.37"/><circle class="cls-1" cx="220.25" cy="58.67" r="15.37"/><circle class="cls-1" cx="15.37" cy="101.98" r="15.37"/><circle class="cls-1" cx="56.34" cy="101.98" r="15.37"/><circle class="cls-1" cx="97.32" cy="101.98" r="15.37"/><circle class="cls-1" cx="138.3" cy="101.98" r="15.37"/><circle class="cls-1" cx="179.28" cy="101.98" r="15.37"/><circle class="cls-1" cx="220.25" cy="101.98" r="15.37"/><circle class="cls-1" cx="15.37" cy="145.28" r="15.37"/><circle class="cls-1" cx="56.34" cy="145.28" r="15.37"/><circle class="cls-1" cx="97.32" cy="145.28" r="15.37"/><circle class="cls-1" cx="138.3" cy="145.28" r="15.37"/><circle class="cls-1" cx="179.28" cy="145.28" r="15.37"/><circle class="cls-1" cx="220.25" cy="145.28" r="15.37"/><circle class="cls-1" cx="15.37" cy="231.89" r="15.37"/><circle class="cls-1" cx="56.34" cy="231.89" r="15.37"/><circle class="cls-1" cx="97.32" cy="231.89" r="15.37"/><circle class="cls-1" cx="138.3" cy="231.89" r="15.37"/><circle class="cls-1" cx="179.28" cy="231.89" r="15.37"/><circle class="cls-1" cx="220.25" cy="231.89" r="15.37"/><circle class="cls-1" cx="15.37" cy="275.2" r="15.37"/><circle class="cls-1" cx="56.34" cy="275.2" r="15.37"/><circle class="cls-1" cx="97.32" cy="275.2" r="15.37"/><circle class="cls-1" cx="138.3" cy="275.2" r="15.37"/><circle class="cls-1" cx="179.28" cy="275.2" r="15.37"/><circle class="cls-1" cx="220.25" cy="275.2" r="15.37"/><circle class="cls-1" cx="15.37" cy="318.51" r="15.37"/><circle class="cls-1" cx="56.34" cy="318.51" r="15.37"/><circle class="cls-1" cx="97.32" cy="318.51" r="15.37"/><circle class="cls-1" cx="138.3" cy="318.51" r="15.37"/><circle class="cls-1" cx="179.28" cy="318.51" r="15.37"/><circle class="cls-1" cx="220.25" cy="318.51" r="15.37"/><circle class="cls-2" cx="15.37" cy="405.12" r="15.37"/><circle class="cls-2" cx="56.34" cy="405.12" r="15.37"/><circle class="cls-2" cx="97.32" cy="405.12" r="15.37"/><circle class="cls-2" cx="138.3" cy="405.12" r="15.37"/><circle class="cls-2" cx="179.28" cy="405.12" r="15.37"/><circle class="cls-2" cx="220.25" cy="405.12" r="15.37"/><circle class="cls-2" cx="15.37" cy="448.42" r="15.37"/><circle class="cls-2" cx="56.34" cy="448.42" r="15.37"/><circle class="cls-2" cx="97.32" cy="448.42" r="15.37"/><circle class="cls-2" cx="138.3" cy="448.42" r="15.37"/><circle class="cls-2" cx="179.28" cy="448.42" r="15.37"/><circle class="cls-2" cx="220.25" cy="448.42" r="15.37"/><circle class="cls-2" cx="15.37" cy="491.73" r="15.37"/><circle class="cls-2" cx="56.34" cy="491.73" r="15.37"/><circle class="cls-2" cx="97.32" cy="491.73" r="15.37"/><circle class="cls-2" cx="138.3" cy="491.73" r="15.37"/><circle class="cls-2" cx="179.28" cy="491.73" r="15.37"/><circle class="cls-2" cx="220.25" cy="491.73" r="15.37"/><circle class="cls-2" cx="15.37" cy="578.34" r="15.37"/><circle class="cls-2" cx="56.34" cy="578.34" r="15.37"/><circle class="cls-2" cx="97.32" cy="578.34" r="15.37"/><circle class="cls-2" cx="138.3" cy="578.34" r="15.37"/><circle class="cls-2" cx="179.28" cy="578.34" r="15.37"/><circle class="cls-2" cx="220.25" cy="578.34" r="15.37"/><circle class="cls-2" cx="15.37" cy="621.64" r="15.37"/><circle class="cls-2" cx="56.34" cy="621.64" r="15.37"/><circle class="cls-2" cx="97.32" cy="621.64" r="15.37"/><circle class="cls-2" cx="138.3" cy="621.64" r="15.37"/><circle class="cls-1" cx="179.28" cy="621.64" r="15.37"/><circle class="cls-1" cx="220.25" cy="621.64" r="15.37"/><circle class="cls-1" cx="875.89" cy="15.37" r="15.37"/><circle class="cls-1" cx="916.87" cy="15.37" r="15.37"/><circle class="cls-1" cx="957.84" cy="15.37" r="15.37"/><circle class="cls-1" cx="998.82" cy="15.37" r="15.37"/><circle class="cls-1" cx="1039.8" cy="15.37" r="15.37"/><circle class="cls-1" cx="1080.78" cy="15.37" r="15.37"/><circle class="cls-1" cx="875.89" cy="58.67" r="15.37"/><circle class="cls-1" cx="916.87" cy="58.67" r="15.37"/><circle class="cls-1" cx="957.84" cy="58.67" r="15.37"/><circle class="cls-1" cx="998.82" cy="58.67" r="15.37"/><circle class="cls-1" cx="1039.8" cy="58.67" r="15.37"/><circle class="cls-1" cx="1080.78" cy="58.67" r="15.37"/><circle class="cls-1" cx="875.89" cy="101.98" r="15.37"/><circle class="cls-1" cx="916.87" cy="101.98" r="15.37"/><circle class="cls-1" cx="957.84" cy="101.98" r="15.37"/><circle class="cls-1" cx="998.82" cy="101.98" r="15.37"/><circle class="cls-1" cx="1039.8" cy="101.98" r="15.37"/><circle class="cls-1" cx="1080.78" cy="101.98" r="15.37"/><circle class="cls-1" cx="875.89" cy="145.28" r="15.37"/><circle class="cls-1" cx="916.87" cy="145.28" r="15.37"/><circle class="cls-1" cx="957.84" cy="145.28" r="15.37"/><circle class="cls-1" cx="998.82" cy="145.28" r="15.37"/><circle class="cls-1" cx="1039.8" cy="145.28" r="15.37"/><circle class="cls-1" cx="1080.78" cy="145.28" r="15.37"/><circle class="cls-1" cx="875.89" cy="231.89" r="15.37"/><circle class="cls-1" cx="916.87" cy="231.89" r="15.37"/><circle class="cls-1" cx="957.84" cy="231.89" r="15.37"/><circle class="cls-1" cx="998.82" cy="231.89" r="15.37"/><circle class="cls-1" cx="1039.8" cy="231.89" r="15.37"/><circle class="cls-1" cx="1080.78" cy="231.89" r="15.37"/><circle class="cls-1" cx="875.89" cy="275.2" r="15.37"/><circle class="cls-1" cx="916.87" cy="275.2" r="15.37"/><circle class="cls-1" cx="957.84" cy="275.2" r="15.37"/><circle class="cls-1" cx="998.82" cy="275.2" r="15.37"/><circle class="cls-1" cx="1039.8" cy="275.2" r="15.37"/><circle class="cls-1" cx="1080.78" cy="275.2" r="15.37"/><circle class="cls-1" cx="875.89" cy="318.51" r="15.37"/><circle class="cls-1" cx="916.87" cy="318.51" r="15.37"/><circle class="cls-1" cx="957.84" cy="318.51" r="15.37"/><circle class="cls-1" cx="998.82" cy="318.51" r="15.37"/><circle class="cls-1" cx="1039.8" cy="318.51" r="15.37"/><circle class="cls-1" cx="1080.78" cy="318.51" r="15.37"/><circle class="cls-1" cx="875.89" cy="405.12" r="15.37"/><circle class="cls-1" cx="916.87" cy="405.12" r="15.37"/><circle class="cls-1" cx="957.84" cy="405.12" r="15.37"/><circle class="cls-1" cx="998.82" cy="405.12" r="15.37"/><circle class="cls-1" cx="1039.8" cy="405.12" r="15.37"/><circle class="cls-1" cx="1080.78" cy="405.12" r="15.37"/><circle class="cls-1" cx="875.89" cy="448.42" r="15.37"/><circle class="cls-1" cx="916.87" cy="448.42" r="15.37"/><circle class="cls-1" cx="957.84" cy="448.42" r="15.37"/><circle class="cls-1" cx="998.82" cy="448.42" r="15.37"/><circle class="cls-1" cx="1039.8" cy="448.42" r="15.37"/><circle class="cls-1" cx="1080.78" cy="448.42" r="15.37"/><circle class="cls-1" cx="875.89" cy="491.73" r="15.37"/><circle class="cls-1" cx="916.87" cy="491.73" r="15.37"/><circle class="cls-1" cx="957.84" cy="491.73" r="15.37"/><circle class="cls-1" cx="998.82" cy="491.73" r="15.37"/><circle class="cls-1" cx="1039.8" cy="491.73" r="15.37"/><circle class="cls-1" cx="1080.78" cy="491.73" r="15.37"/><circle class="cls-1" cx="875.89" cy="578.34" r="15.37"/><circle class="cls-1" cx="916.87" cy="578.34" r="15.37"/><circle class="cls-1" cx="957.84" cy="578.34" r="15.37"/><circle class="cls-1" cx="998.82" cy="578.34" r="15.37"/><circle class="cls-1" cx="1039.8" cy="578.34" r="15.37"/><circle class="cls-1" cx="1080.78" cy="578.34" r="15.37"/><circle class="cls-1" cx="875.89" cy="621.64" r="15.37"/><circle class="cls-1" cx="916.87" cy="621.64" r="15.37"/><circle class="cls-1" cx="957.84" cy="621.64" r="15.37"/><circle class="cls-1" cx="998.82" cy="621.64" r="15.37"/><circle class="cls-1" cx="1039.8" cy="621.64" r="15.37"/><circle class="cls-1" cx="1080.78" cy="621.64" r="15.37"/><circle class="cls-1" cx="302.21" cy="621.64" r="15.37"/><circle class="cls-1" cx="343.19" cy="621.64" r="15.37"/><circle class="cls-1" cx="384.16" cy="621.64" r="15.37"/><circle class="cls-1" cx="425.14" cy="621.64" r="15.37"/><circle class="cls-1" cx="507.09" cy="621.64" r="15.37"/><circle class="cls-1" cx="548.07" cy="621.64" r="15.37"/><circle class="cls-1" cx="589.05" cy="621.64" r="15.37"/><circle class="cls-1" cx="671" cy="621.64" r="15.37"/><circle class="cls-1" cx="711.98" cy="621.64" r="15.37"/><circle class="cls-1" cx="752.96" cy="621.64" r="15.37"/><circle class="cls-1" cx="793.94" cy="621.64" r="15.37"/><circle class="cls-1" cx="302.21" cy="578.34" r="15.37"/><circle class="cls-1" cx="343.19" cy="578.34" r="15.37"/><circle class="cls-1" cx="384.16" cy="578.34" r="15.37"/><circle class="cls-1" cx="425.14" cy="578.34" r="15.37"/><circle class="cls-1" cx="507.09" cy="578.34" r="15.37"/><circle class="cls-1" cx="548.07" cy="578.34" r="15.37"/><circle class="cls-1" cx="589.05" cy="578.34" r="15.37"/><circle class="cls-1" cx="671" cy="578.34" r="15.37"/><circle class="cls-1" cx="711.98" cy="578.34" r="15.37"/><circle class="cls-1" cx="752.96" cy="578.34" r="15.37"/><circle class="cls-1" cx="793.94" cy="578.34" r="15.37"/><circle class="cls-1" cx="302.21" cy="535.03" r="15.37"/><circle class="cls-1" cx="343.19" cy="535.03" r="15.37"/><circle class="cls-1" cx="384.16" cy="535.03" r="15.37"/><circle class="cls-1" cx="425.14" cy="535.03" r="15.37"/><circle class="cls-1" cx="507.09" cy="535.03" r="15.37"/><circle class="cls-1" cx="548.07" cy="535.03" r="15.37"/><circle class="cls-1" cx="589.05" cy="535.03" r="15.37"/><circle class="cls-1" cx="671" cy="535.03" r="15.37"/><circle class="cls-1" cx="711.98" cy="535.03" r="15.37"/><circle class="cls-1" cx="752.96" cy="535.03" r="15.37"/><circle class="cls-1" cx="793.94" cy="535.03" r="15.37"/><circle class="cls-1" cx="302.21" cy="491.73" r="15.37"/><circle class="cls-1" cx="343.19" cy="491.73" r="15.37"/><circle class="cls-1" cx="384.16" cy="491.73" r="15.37"/><circle class="cls-1" cx="425.14" cy="491.73" r="15.37"/><circle class="cls-1" cx="507.09" cy="491.73" r="15.37"/><circle class="cls-1" cx="548.07" cy="491.73" r="15.37"/><circle class="cls-1" cx="589.05" cy="491.73" r="15.37"/><circle class="cls-1" cx="671" cy="491.73" r="15.37"/><circle class="cls-1" cx="711.98" cy="491.73" r="15.37"/><circle class="cls-1" cx="752.96" cy="491.73" r="15.37"/><circle class="cls-1" cx="793.94" cy="491.73" r="15.37"/><circle class="cls-1" cx="302.21" cy="448.42" r="15.37"/><circle class="cls-1" cx="343.19" cy="448.42" r="15.37"/><circle class="cls-1" cx="384.16" cy="448.42" r="15.37"/><circle class="cls-1" cx="425.14" cy="448.42" r="15.37"/><circle class="cls-1" cx="507.09" cy="448.42" r="15.37"/><circle class="cls-1" cx="548.07" cy="448.42" r="15.37"/><circle class="cls-1" cx="548.07" cy="15.37" r="15.37"/><circle class="cls-1" cx="589.05" cy="448.42" r="15.37"/><circle class="cls-1" cx="671" cy="448.42" r="15.37"/><circle class="cls-1" cx="711.98" cy="448.42" r="15.37"/><circle class="cls-1" cx="752.96" cy="448.42" r="15.37"/><circle class="cls-1" cx="793.94" cy="448.42" r="15.37"/></svg>