<?xml version="1.0" encoding="UTF-8"?>
<svg width="27.91mm" height="31.591mm" version="1.1" viewBox="0 0 27.91 31.591" xmlns="http://www.w3.org/2000/svg" xmlns:cc="http://creativecommons.org/ns#" xmlns:dc="http://purl.org/dc/elements/1.1/" xmlns:rdf="http://www.w3.org/1999/02/22-rdf-syntax-ns#">
 <metadata>
  <rdf:RDF>
   <cc:Work rdf:about="">
    <dc:format>image/svg+xml</dc:format>
    <dc:type rdf:resource="http://purl.org/dc/dcmitype/StillImage"/>
    <dc:title/>
   </cc:Work>
  </rdf:RDF>
 </metadata>
 <g transform="translate(-61.191 -80.568)">
  <path d="m86.569 82.618c1.1143 1.4676 1.4119 3.4848 0.60251 5.2793-0.91765 2.0323-2.9904 3.1887-5.0956 3.0439l-0.79603 1.767 3.5434 1.5993-1.4819 3.284-3.5445-1.5983-4.8509 10.748c2.1513 0.60688 4.4138 0.605 6.5294 0.0342l-1.4605-2.2341 9.0858-0.50168-4.1064 8.1193-1.4435-2.2085c-3.7749 1.3216-8.0083 1.2143-11.792-0.49233-3.7874-1.7095-6.6695-4.8167-8.1748-8.5255l-1.9258 0.2795-0.46739-0.48905 2.7708-6.9454 0.61682-0.59407 5.3798 6.8223-2.626 0.38046c0.96938 1.9627 2.4576 3.6589 4.3323 4.8715l4.8485-10.747-3.5445-1.6005 1.4827-3.2828 3.5447 1.5983 0.79691-1.7657c-1.5006-1.4826-2.0041-3.8012-1.0868-5.8344 1.1779-2.6098 4.2573-3.7761 6.8676-2.5987 0.81555 0.368 1.4899 0.92301 1.9959 1.5904zm-2.4976 1.7708c-0.20044-0.23696-0.45427-0.43545-0.75543-0.57147-1.0693-0.48063-2.3353-5e-3 -2.8187 1.0668-0.48334 1.0708-5e-3 2.3364 1.0654 2.8197 0.80416 0.36416 1.7169 0.18234 2.327-0.38074 0.20128-0.19008 0.3711-0.41785 0.49188-0.68582 0.30207-0.6696 0.22978-1.415-0.12832-1.9977-0.0514-0.0873-0.11497-0.17126-0.17846-0.25213z" fill="#e1e1e1" opacity=".52952"/>
 </g>
</svg>
