<?xml version="1.0" encoding="UTF-8"?>
<svg width="427.49mm" height="174.54mm" version="1.1" viewBox="0 0 427.49 174.54" xmlns="http://www.w3.org/2000/svg" xmlns:cc="http://creativecommons.org/ns#" xmlns:dc="http://purl.org/dc/elements/1.1/" xmlns:rdf="http://www.w3.org/1999/02/22-rdf-syntax-ns#">
 <metadata>
  <rdf:RDF>
   <cc:Work rdf:about="">
    <dc:format>image/svg+xml</dc:format>
    <dc:type rdf:resource="http://purl.org/dc/dcmitype/StillImage"/>
    <dc:title/>
   </cc:Work>
  </rdf:RDF>
 </metadata>
 <g transform="translate(134.79 -11.262)">
  <g transform="matrix(.88484 0 0 .88484 216.83 -208.45)">
   <g>
    <path d="m-314.94 345.52v-34.728h20.407v15.395h-0.46325v-32.4h22.376v32.579l2.5155-4.9475v-32.937h22.018v32.758h-0.30676v-25.419h23.808v82.165l-91.607 4.9475z" fill="#f2f2f2"/>
    <path d="m9.3589 439.3v-0.68307h-1.3662v-109.62h1.3662v-1.3662h-6.4871v-2.0492h-6.142v2.0492h-10.823v-1.0246l-0.15397-1.0246h-6.3836l-0.15397 1.0246v1.0246h-7.4399v-19.254h-31.271v-27.312h-9.6278v-5.4627h-12.085v5.4627h-9.627v157.56h-1.3662v1.3662h102.12z" fill="#c5c5c5" stroke-width=".087585"/>
    <path d="m-210.38 354.7v-28.432l7.0696-12.245 7.0604 12.229 8.5409-14.793h13.716v-33.311l10.562-29.836 9.7891 29.836v32.799h6.1662l7.727-13.384h9.9507l7.8309 13.563h12.204l3.5195 3.5195h13.569l8.709 15.085v102.6h-124.59l-1.7564-0.47071z" fill="#f2f2f2"/>
   </g>
   <path d="m-292.38 332.8c-2.1513-9e-3 -6.9389 2.0568-8.2291 5.2261-4.56-1.6389-1.0346 8.6437-5.1671 7.5186-1.1749-4.1569-5.152-0.88057-7.1905-3.8022-4.0942-5.602-6.2393 5.7615-9.5236 2.138-0.53901 1.851-1.8324 3.1512-1.9817 4.645 1.4783 3.8261-4.8184 5.171-3.7068 7.4618-2.1456 1.6696-1.439 3.5984-3.0561 6.141-2.0611 5.0326 1.598 9.8379 6.479 11.368 0.63464 1.5976 3.4645 0.99483 5.1731 0.64707 0.27447 0.23971 0.71165 0.58498 1.2047 0.97247-0.0994 1.2196-0.0249 2.8779 0.13411 4.313h5.8652c-0.0621-0.93646-0.11173-1.9298-0.0249-2.7656 0.0372-0.21113 0.0745-0.41855 0.0994-0.62098 0.2844-1.2097 1.0321-1.8289 2.8041-0.86441 4.0991 2.0866 6.8166-0.99358 10.603-0.0249 0 1.3845 0.17138 3.4432 0.24715 4.2812h5.6904c0.14151-1.4233 0.1602-3.3743-0.11174-4.4655 2.1932-1.1625 7.2891 2.0121 9.5921 0.27076 1.9541-1.4778 7.0003-2.1895 9.4397-0.51542 0.0249 0.0126 0.0249 0.0126 0.0372 0.0249 0.46699 0.8905 0.70296 3.1997 0.58869 4.6884h5.8692c0.21611-1.9493 0.0994-4.48-0.41109-5.45 1.2838-1.7992 6.395 2.6429 8.2235-1.502 3.8276-1.6694 7.1093-4.8396 7.7945-8.6548-2.7269-3.653 1.1116-11.166-5.3775-11.428-0.19249-4.3119-2.8369-8.137-5.7559-11.407-2.9914-3.429-9.128-9.6211-13.137-4.2588-4.8362 0.22852-4.1348 6.1365-7.8236 8.7919-6.0637 3.6155-3.6179-8.1928-6.8354-9.5863-0.47817-1.0271-0.74768-2.1412-1.3156-3.1275-0.0621-8e-3 -0.13049-8e-3 -0.19997-8e-3zm-26.085 41.166c0.18878-5e-4 0.25461 0.0496 0.1627 0.19748-0.0621-0.0621-0.18754-0.12922-0.34155-0.18381 0.0621-8e-3 0.12923-0.0126 0.17885-0.0126z" fill="#fff" stroke-width=".42829"/>
   <path d="m-283.84 366.78v-0.14152h-2.0942l-2.0948-9.9386 7.9524-8.1621 7.9531-7.9532 2.792 2.7926 11.625-10.464 15.069 13.947 18.834-16.057 25.615 23.888-0.25832-13.268 23.459-16.558 19.921 18.035 13.536-10.92 12.01 10.488 2.7928-2.7926 15.906 16.115-4.189 0.31422v83.913h-169.43z" fill="#c5c5c5" stroke-width=".29217"/>
   <path d="m-79.286 336.14c-2.5848-0.011-8.3362 2.4709-9.8857 6.2783-5.4781-1.9689-1.2435 10.384-6.2074 9.0321-1.411-4.9937-6.1891-1.0582-8.6379-4.5677-4.9184-6.7296-7.4954 6.9215-11.441 2.5686-0.64707 2.2236-2.2013 3.7855-2.3806 5.5799 1.7758 4.5964-5.7885 6.212-4.4531 8.9638-2.5776 2.0058-1.7286 4.3228-3.6713 7.3774-2.476 6.0457 1.9197 11.818 7.7832 13.657 0.76132 1.9191 4.162 1.1948 6.2144 0.77747 0.33037 0.28814 0.85447 0.70295 1.4472 1.1687-0.12419 1.4653-0.0374 3.457 0.16145 5.1811h7.0459c-0.0745-1.1252-0.13663-2.3182-0.0249-3.3223 0.0496-0.25337 0.087-0.50177 0.12419-0.74643 0.3403-1.4535 1.2407-2.1972 3.3686-1.0395 4.9242 2.5067 8.1886-1.1935 12.737-0.0372 0 1.6632 0.20616 4.1364 0.29682 5.1429h6.8356c0.17015-1.7097 0.1925-4.0535-0.13915-5.3644 2.6345-1.3961 8.7564 2.4172 11.523 0.32539 2.3472-1.7754 8.4091-2.6304 11.34-0.61974 0.0249 0.0126 0.03719 0.0126 0.04964 0.0249 0.56137 1.0706 0.84455 3.8439 0.70792 5.6324h7.0507c0.25957-2.3416 0.12418-5.3818-0.49307-6.5472 1.5425-2.1615 7.683 3.1749 9.8795-1.8045 4.5979-2.0054 8.5404-5.8138 9.3629-10.397-3.2752-4.3885 1.336-13.414-6.4596-13.729-0.23224-5.1798-3.4081-9.7751-6.9148-13.703-3.5938-4.1194-10.965-11.558-15.781-5.1163-5.8097 0.27447-4.9669 7.3718-9.3979 10.562-7.2845 4.3436-4.3464-9.842-8.2119-11.516-0.5738-1.2333-0.8992-2.5721-1.5805-3.7571-0.07454-8e-3 -0.15649-9e-3 -0.2397-9e-3zm-31.336 49.453c0.22728-4.9e-4 0.30677 0.0621 0.19499 0.23722-0.0745-0.0745-0.22605-0.15523-0.41109-0.22107 0.0745-9e-3 0.15522-0.0126 0.21486-0.0126z" fill="#fff" stroke-width=".51451"/>
   <g transform="matrix(.77669 0 0 .77669 -1743 -.88096)" fill="#e1e1e1">
    <path d="m1807.8 567.17-0.3308-75.304 0.1633-26.443 17.625-14.909 7.3611 5.1185-0.014-2.3898h4.7625l0.012 2.5745 0.012 4.0349 6.0832 4.9712 0.6332 13.417 31.513-19.553 22.886 19.507 0.1117-13.535 4.1672 1e-5h4.1672l0.1553 4.0559 15.086-12.677 16.376 20.096 0.2646 14.352 6.4727-0.0759 0.142-12.524 16.28-13.736 15.108 13.516 0.6581 12.791 6.0534-0.0772 0.064-11.78 31.728-19.888 31.692 19.527 0.1196-1.143 19.314-21.206 20.797 23.066v88.259l-139.57 0.0419-139.9-0.0882z" stroke-width=".26458"/>
    <g stroke-dashoffset="347.72" stroke-linecap="square">
     <path d="m2104.4 464.82-21.863 13.579h2.3033v76.011h38.663v-76.011h3.0707z" stroke-width="2.5683" style="paint-order:stroke markers fill"/>
     <path d="m2213 467.26-11.277 6.133-9.052 11.737h1.5355v69.261h38.279v-69.261h1.5352l-9.1287-11.737z" stroke-width="2.3304" style="paint-order:stroke markers fill"/>
     <path d="m2257 444.81-25.028 21.747v87.832h50.056v-87.832z" stroke-width="1.4524" style="paint-order:stroke markers fill"/>
    </g>
    <g transform="matrix(25.203 0 0 25.203 1729.7 -4617.9)" stroke-dashoffset="347.72" stroke-linecap="square">
     <path transform="scale(.26458)" d="m60.57 763.01-2 1.2383h0.38867v11.4h10.791v-10.418h0.60547l-1.6797-1.3555h-3.2051l-0.4082 0.32813-1.9297-1.1934zm4.1914 1.2383h0.24609l-0.24609 0.19922z" stroke-width=".38515" style="paint-order:stroke markers fill"/>
     <g stroke-width=".047375">
      <rect transform="matrix(1 0 -.56815 .82292 0 0)" x="156.94" y="245.53" width=".22324" height=".26195" style="paint-order:stroke markers fill"/>
      <rect transform="matrix(1 0 -.56815 .82292 0 0)" x="157.22" y="245.53" width=".22324" height=".26195" style="paint-order:stroke markers fill"/>
      <rect transform="matrix(1 0 -.56815 .82292 0 0)" x="157.49" y="245.53" width=".22324" height=".26195" style="paint-order:stroke markers fill"/>
     </g>
    </g>
   </g>
   <g transform="matrix(2.5884 0 0 2.5884 -5756.3 -1047.1)" fill="#ececec">
    <path transform="matrix(.087619 0 0 .087619 1285.3 358.32)" d="m9584.4 2207.3c-13.143-0.057-42.396 12.568-50.279 31.932-27.861-10.014-6.3213 52.812-31.57 45.938-7.1754-25.398-31.479-5.3826-43.934-23.23-25.015-34.227-38.121 35.202-58.188 13.062-0.9513 3.2686-2.2927 6.2502-3.7344 9.0664-0.815-1.9914-1.7503-3.9602-2.8652-5.8985-1.6549-19.609-19.331-0.8766-23.504-20.648-14.554-30.675-38.353-4.6177-56.354 1.8164-14.482-11.701-28.052 52.445-40.5 21.805-0.3652-19.759-18.656-2.5852-24.275-21.994-9.9619-16.927-32.774-15.509-43.043-23.592-2.7257 7.099-6.2936 13.838-8.6348 21.098-15.137 4.4627-3.7034 53.426-31.582 37.31-19.391-15.305-30.164-44.77-56.773-42.578-25.553-39.04-61.394 7.7725-85.807 24.594-24.686 9.169-25.317 36.012-34.256 52.639-36.317 4.2798-14.108 53.024-30.113 75.893 17.766 25.234 45.062 57.525 78.83 55.705 12.295-9.3565 28.388 11.917 18.318 29.768-0.1141 0.7635-0.1132 1.5012-0.1132 2.2226h1902v-10.385c0.223 3.6813 0.235 7.3184 0 10.385h35.861c1.32-11.91 0.627-27.372-2.508-33.299 7.844-10.993 39.073 16.147 50.244-9.1777 23.387-10.2 43.438-29.571 47.625-52.881-16.662-22.32 6.793-68.222-32.857-69.824-1.18-26.345-17.333-49.715-35.168-69.693-18.277-20.951-55.77-58.784-80.264-26.022-29.548 1.3972-25.264 37.493-47.803 53.717-37.047 22.091-22.104-50.056-41.763-58.57-2.92-6.2719-4.569-13.082-8.037-19.109-0.388-0.034-0.799-0.045-1.221-0.045h-0.01c-13.144-0.057-42.396 12.568-50.279 31.932-27.861-10.014-6.322 52.812-31.57 45.938-7.176-25.398-31.479-5.3826-43.934-23.23-25.015-34.227-38.121 35.202-58.187 13.062-3.292 11.31-11.197 19.254-12.11 28.381 4.502 11.652-2.796 19.536-10.41 26.248-3.207-1.4868-7.213-2.4026-12.236-2.6055-1.18-26.345-17.335-49.715-35.17-69.693-18.277-20.951-55.77-58.784-80.264-26.022-29.548 1.3972-25.262 37.493-47.801 53.717-37.047 22.091-22.104-50.056-41.763-58.57-2.92-6.2719-4.569-13.082-8.037-19.109-0.388-0.034-0.801-0.045-1.223-0.045h-0.01c-13.144-0.057-42.396 12.568-50.279 31.932-27.861-10.014-6.322 52.812-31.57 45.938-7.177-25.398-31.479-5.3826-43.934-23.23-25.015-34.227-38.121 35.202-58.187 13.062-3.292 11.31-11.196 19.254-12.108 28.381 5.049 13.067-4.743 21.394-13.178 28.644-4.665-15.722-6.786-34.752-17.716-42.123 3.972-17.11-13.67-22.497-18.762-23.857 5.057-25.121-17.908-16.495-31.27-24.988-15.028 8.6233-26.074 22.023-42.015 17.77-4.353 14.788-31.181 49.611-31.555 15.854-10.733-11.498-25.519-10.098-24.129-30.598-9.612-16.404-32.99 12.212-39.35-9.7617-14.935 20.4-20.068 37.526-28.398 62.24-6.0021-0.2602-23.972-14.991-23.893-26.074-24.595 4.5114-12.816-34.388-40.293-19.91-17.5 7.2234-6.9944-15.577-17.168-19.074-22.986 12.829-55.126 4.8011-63.695 29.418-13.82-11.736-6.7414 22.606-22.43 8.7227-2.8508 8.1141-6.6648 15.543-10.307 23-6.559-12.718-15.703-24.513-25.346-35.314-18.277-20.951-55.771-58.784-80.266-26.022-29.548 1.3972-25.262 37.493-47.801 53.717-37.047 22.091-22.103-50.056-41.762-58.57-2.9194-6.2719-4.5706-13.082-8.0391-19.109-0.388-0.034-0.7984-0.045-1.2207-0.045zm-378.25 28.256c0-0.01 0-0.012 0.01-0.018h-0.029c0.01 0.01 0.016 0.012 0.023 0.018z" fill="#fff" stroke-width="2.6168"/>
   </g>
  </g>
  <rect transform="matrix(.99992 -.012434 0 1 0 0)" x="14.446" y="77.022" width="125.97" height="34.721" style="paint-order:stroke markers fill"/>
  <g fill="#fff" stroke-width=".32685" aria-label="ODVAHA DĚLAT, CO JE SPRÁVNÉ">
   <path d="m20.599 92.16q-1.059 0-1.6212-0.6014-0.56218-0.6014-0.56218-1.6996v-4.8112q0-1.0982 0.56218-1.6996 0.56218-0.6014 1.6212-0.6014t1.6212 0.6014q0.56218 0.6014 0.56218 1.6996v4.8112q0 1.0982-0.56218 1.6996-0.56218 0.6014-1.6212 0.6014zm0-1.3074q0.74521 0 0.74521-0.9021v-4.9942q0-0.9021-0.74521-0.9021t-0.74521 0.9021v4.9942q0 0.9021 0.74521 0.9021z"/>
   <path d="m23.75 82.877h2.1964q1.0721 0 1.6081 0.57525 0.53603 0.57525 0.53603 1.6865v4.6282q0 1.1113-0.53603 1.6865-0.53603 0.57525-1.6081 0.57525h-2.1964zm2.1703 7.8443q0.353 0 0.53603-0.20918 0.19611-0.20918 0.19611-0.67984v-4.7589q0-0.47066-0.19611-0.67984-0.18303-0.20918-0.53603-0.20918h-0.73214v6.537z"/>
   <path d="m28.652 82.877h1.4512l0.94132 7.0991h0.02615l0.94132-7.0991h1.3205l-1.3858 9.1517h-1.9088z"/>
   <path d="m34.771 82.877h1.948l1.4904 9.1517h-1.4381l-0.26148-1.8173v0.02615h-1.6342l-0.26148 1.7911h-1.3335zm1.5689 6.1186-0.64062-4.5236h-0.02615l-0.62755 4.5236z"/>
   <path d="m38.902 82.877h1.4381v3.7261h1.5427v-3.7261h1.4381v9.1517h-1.4381v-4.1183h-1.5427v4.1183h-1.4381z"/>
   <path d="m45.505 82.877h1.948l1.4904 9.1517h-1.4381l-0.26148-1.8173v0.02615h-1.6342l-0.26148 1.7911h-1.3335zm1.5689 6.1186-0.64062-4.5236h-0.02615l-0.62755 4.5236z"/>
   <path d="m51.728 82.877h2.1964q1.0721 0 1.6081 0.57525 0.53603 0.57525 0.53603 1.6865v4.6282q0 1.1113-0.53603 1.6865-0.53603 0.57525-1.6081 0.57525h-2.1964zm2.1703 7.8443q0.353 0 0.53603-0.20918 0.19611-0.20918 0.19611-0.67984v-4.7589q0-0.47066-0.19611-0.67984-0.18304-0.20918-0.53603-0.20918h-0.73214v6.537z"/>
   <path d="m57.036 82.877h3.9222v1.3074h-2.484v2.4187h1.9742v1.3074h-1.9742v2.8109h2.484v1.3074h-3.9222zm0.20918-2.118h1.0851l0.66677 0.71906 0.66677-0.71906h1.0851l-1.0721 1.5035h-1.3597z"/>
   <path d="m61.782 82.877h1.4381v7.8443h2.3664v1.3074h-3.8045z"/>
   <path d="m67.443 82.877h1.948l1.4904 9.1517h-1.4381l-0.26148-1.8173v0.02615h-1.6342l-0.26148 1.7911h-1.3335zm1.5689 6.1186-0.64062-4.5236h-0.02615l-0.62755 4.5236z"/>
   <path d="m72.097 84.185h-1.5035v-1.3074h4.4451v1.3074h-1.5035v7.8443h-1.4381z"/>
   <path d="m75.248 92.029h-0.47066v-1.3858h1.3858v1.242l-0.71906 1.7127h-0.66677z"/>
   <path d="m81.353 92.16q-1.0328 0-1.5819-0.58832-0.53603-0.58833-0.53603-1.6604v-4.9158q0-1.0721 0.53603-1.6604 0.5491-0.58833 1.5819-0.58833t1.5689 0.58833q0.5491 0.58832 0.5491 1.6604v0.96747h-1.3597v-1.059q0-0.8498-0.71906-0.8498-0.71906 0-0.71906 0.8498v5.1119q0 0.83673 0.71906 0.83673 0.71906 0 0.71906-0.83673v-1.3989h1.3597v1.2943q0 1.0721-0.5491 1.6604-0.53603 0.58832-1.5689 0.58832z"/>
   <path d="m86.439 92.16q-1.059 0-1.6212-0.6014-0.56218-0.6014-0.56218-1.6996v-4.8112q0-1.0982 0.56218-1.6996 0.56218-0.6014 1.6212-0.6014t1.6212 0.6014q0.56218 0.6014 0.56218 1.6996v4.8112q0 1.0982-0.56218 1.6996-0.56218 0.6014-1.6212 0.6014zm0-1.3074q0.74521 0 0.74521-0.9021v-4.9942q0-0.9021-0.74521-0.9021-0.74521 0-0.74521 0.9021v4.9942q0 0.9021 0.74521 0.9021z"/>
   <path d="m92.021 92.081q-0.39222 0-0.66677-0.0523v-1.3074q0.20918 0.0523 0.47066 0.0523 0.43144 0 0.64062-0.20918 0.20918-0.22226 0.20918-0.66677v-7.0207h1.4381v6.9815q0 1.1244-0.52296 1.6735-0.50988 0.5491-1.5689 0.5491z"/>
   <path d="m95.146 82.877h3.9222v1.3074h-2.484v2.4187h1.9742v1.3074h-1.9742v2.8109h2.484v1.3074h-3.9222z"/>
   <path d="m103.85 92.16q-1.0459 0-1.5819-0.58832-0.53603-0.6014-0.53603-1.7127v-0.52296h1.3597v0.62755q0 0.88902 0.74521 0.88902 0.36607 0 0.5491-0.20918 0.19611-0.22226 0.19611-0.70599 0-0.57525-0.26147-1.0067-0.26148-0.44451-0.96747-1.059-0.88903-0.78443-1.242-1.412-0.353-0.64062-0.353-1.4381 0-1.0851 0.5491-1.6735 0.54911-0.6014 1.595-0.6014 1.0328 0 1.5558 0.6014 0.53603 0.58832 0.53603 1.6996v0.37914h-1.3597v-0.47066q0-0.47066-0.18304-0.67984-0.18303-0.22226-0.53603-0.22226-0.71906 0-0.71906 0.87595 0 0.49681 0.26148 0.92825 0.27455 0.43144 0.98054 1.0459 0.9021 0.78443 1.242 1.4251 0.33992 0.64062 0.33992 1.5035 0 1.1244-0.56218 1.7258-0.5491 0.6014-1.6081 0.6014z"/>
   <path d="m106.85 82.877h2.118q1.0721 0 1.6081 0.57525 0.53603 0.57525 0.53603 1.6865v0.9021q0 1.1113-0.53603 1.6865t-1.6081 0.57525h-0.67985v3.7261h-1.4381zm2.118 4.1183q0.35299 0 0.52295-0.19611 0.18304-0.19611 0.18304-0.66677v-1.0851q0-0.47066-0.18304-0.66677-0.16996-0.19611-0.52295-0.19611h-0.67985v2.8109z"/>
   <path d="m111.89 82.877h2.131q1.1113 0 1.6212 0.52296 0.50988 0.50988 0.50988 1.5819v0.56218q0 1.4251-0.94132 1.8042v0.02615q0.52296 0.15689 0.73214 0.64062 0.22226 0.48373 0.22226 1.2943v1.6081q0 0.39222 0.0261 0.64062 0.0262 0.23533 0.13074 0.47066h-1.4643q-0.0785-0.22226-0.1046-0.41836-0.0261-0.19611-0.0261-0.70599v-1.6735q0-0.62755-0.20919-0.87595-0.1961-0.2484-0.69291-0.2484h-0.49681v3.9222h-1.4381zm1.9611 3.9222q0.43143 0 0.64062-0.22226 0.22225-0.22226 0.22225-0.74521v-0.70599q0-0.49681-0.18303-0.71906-0.16996-0.22226-0.54911-0.22226h-0.65369v2.6148z"/>
   <path d="m118.27 82.877h1.948l1.4904 9.1517h-1.4381l-0.26148-1.8173v0.02615h-1.6342l-0.26148 1.7911h-1.3335zm1.5689 6.1186-0.64062-4.5236h-0.0261l-0.62754 4.5236zm-0.45758-8.2366h1.5689l-1.3989 1.5035h-1.0851z"/>
   <path d="m121.66 82.877h1.4512l0.94132 7.0991h0.0262l0.94132-7.0991h1.3205l-1.3858 9.1517h-1.9088z"/>
   <path d="m127.03 82.877h1.8042l1.3989 5.478h0.0262v-5.478h1.2812v9.1517h-1.4774l-1.7258-6.6808h-0.0262v6.6808h-1.2812z"/>
   <path d="m132.62 82.877h3.9222v1.3074h-2.484v2.4187h1.9742v1.3074h-1.9742v2.8109h2.484v1.3074h-3.9222zm2.0918-2.118h1.5689l-1.3989 1.5035h-1.0851z"/>
  </g>
 </g>
</svg>
