<?xml version="1.0" encoding="UTF-8" standalone="no"?>
<svg
   xmlns:dc="http://purl.org/dc/elements/1.1/"
   xmlns:cc="http://creativecommons.org/ns#"
   xmlns:rdf="http://www.w3.org/1999/02/22-rdf-syntax-ns#"
   xmlns:svg="http://www.w3.org/2000/svg"
   xmlns="http://www.w3.org/2000/svg"
   xmlns:sodipodi="http://sodipodi.sourceforge.net/DTD/sodipodi-0.dtd"
   xmlns:inkscape="http://www.inkscape.org/namespaces/inkscape"
   width="419.19012mm"
   height="75.121681mm"
   version="1.1"
   viewBox="0 0 419.19013 75.121687"
   id="svg100"
   sodipodi:docname="background-mobile.svg"
   inkscape:version="1.0.2 (e86c870879, 2021-01-15)">
  <defs
     id="defs104" />
  <sodipodi:namedview
     pagecolor="#ffffff"
     bordercolor="#666666"
     borderopacity="1"
     objecttolerance="10"
     gridtolerance="10"
     guidetolerance="10"
     inkscape:pageopacity="0"
     inkscape:pageshadow="2"
     inkscape:window-width="1680"
     inkscape:window-height="965"
     id="namedview102"
     showgrid="false"
     inkscape:zoom="0.34597789"
     inkscape:cx="442.56998"
     inkscape:cy="270.18713"
     inkscape:window-x="1920"
     inkscape:window-y="51"
     inkscape:window-maximized="1"
     inkscape:current-layer="g98"
     inkscape:document-rotation="0" />
  <metadata
     id="metadata2">
    <rdf:RDF>
      <cc:Work
         rdf:about="">
        <dc:format>image/svg+xml</dc:format>
        <dc:type
           rdf:resource="http://purl.org/dc/dcmitype/StillImage" />
        <dc:title />
      </cc:Work>
    </rdf:RDF>
  </metadata>
  <g
     transform="translate(132.17027,-33.038287)"
     id="g98">
    <g
       transform="matrix(0.88484,0,0,0.88484,216.83,-208.45)"
       id="g46" />
    <rect
       transform="matrix(0.99997008,-0.00773507,0,1,0,0)"
       x="-132.17422"
       y="35.258472"
       width="419.2027"
       height="71.87912"
       style="stroke-width:2.62472;paint-order:stroke markers fill"
       id="rect48" />
    <g
       fill="#ffffff"
       stroke-width="0.32685"
       aria-label="ODVAHA DĚLAT, CO JE SPRÁVNÉ"
       id="g96"
       transform="matrix(3.3423677,0,0,3.3423677,-183.082,-220.35196)">
      <path
         d="m 20.599,92.16 q -1.059,0 -1.6212,-0.6014 -0.56218,-0.6014 -0.56218,-1.6996 v -4.8112 q 0,-1.0982 0.56218,-1.6996 0.56218,-0.6014 1.6212,-0.6014 1.05902,0 1.6212,0.6014 0.56218,0.6014 0.56218,1.6996 v 4.8112 q 0,1.0982 -0.56218,1.6996 Q 21.65802,92.16 20.599,92.16 Z m 0,-1.3074 q 0.74521,0 0.74521,-0.9021 v -4.9942 q 0,-0.9021 -0.74521,-0.9021 -0.74521,0 -0.74521,0.9021 v 4.9942 q 0,0.9021 0.74521,0.9021 z"
         id="path50" />
      <path
         d="m 23.75,82.877 h 2.1964 q 1.0721,0 1.6081,0.57525 0.53603,0.57525 0.53603,1.6865 v 4.6282 q 0,1.1113 -0.53603,1.6865 -0.53603,0.57525 -1.6081,0.57525 H 23.75 Z m 2.1703,7.8443 q 0.353,0 0.53603,-0.20918 0.19611,-0.20918 0.19611,-0.67984 v -4.7589 q 0,-0.47066 -0.19611,-0.67984 -0.18303,-0.20918 -0.53603,-0.20918 h -0.73214 v 6.537 z"
         id="path52" />
      <path
         d="m 28.652,82.877 h 1.4512 l 0.94132,7.0991 h 0.02615 l 0.94132,-7.0991 h 1.3205 l -1.3858,9.1517 h -1.9088 z"
         id="path54" />
      <path
         d="m 34.771,82.877 h 1.948 l 1.4904,9.1517 h -1.4381 l -0.26148,-1.8173 v 0.02615 h -1.6342 l -0.26148,1.7911 h -1.3335 z m 1.5689,6.1186 -0.64062,-4.5236 h -0.02615 l -0.62755,4.5236 z"
         id="path56" />
      <path
         d="m 38.902,82.877 h 1.4381 v 3.7261 h 1.5427 V 82.877 h 1.4381 v 9.1517 h -1.4381 v -4.1183 h -1.5427 v 4.1183 H 38.902 Z"
         id="path58" />
      <path
         d="m 45.505,82.877 h 1.948 l 1.4904,9.1517 h -1.4381 l -0.26148,-1.8173 v 0.02615 h -1.6342 l -0.26148,1.7911 h -1.3335 z m 1.5689,6.1186 -0.64062,-4.5236 h -0.02615 l -0.62755,4.5236 z"
         id="path60" />
      <path
         d="m 51.728,82.877 h 2.1964 q 1.0721,0 1.6081,0.57525 0.53603,0.57525 0.53603,1.6865 v 4.6282 q 0,1.1113 -0.53603,1.6865 -0.53603,0.57525 -1.6081,0.57525 H 51.728 Z m 2.1703,7.8443 q 0.353,0 0.53603,-0.20918 0.19611,-0.20918 0.19611,-0.67984 v -4.7589 q 0,-0.47066 -0.19611,-0.67984 -0.18304,-0.20918 -0.53603,-0.20918 h -0.73214 v 6.537 z"
         id="path62" />
      <path
         d="m 57.036,82.877 h 3.9222 v 1.3074 h -2.484 v 2.4187 h 1.9742 v 1.3074 h -1.9742 v 2.8109 h 2.484 v 1.3074 H 57.036 Z m 0.20918,-2.118 h 1.0851 l 0.66677,0.71906 0.66677,-0.71906 h 1.0851 l -1.0721,1.5035 h -1.3597 z"
         id="path64" />
      <path
         d="m 61.782,82.877 h 1.4381 v 7.8443 h 2.3664 v 1.3074 H 61.782 Z"
         id="path66" />
      <path
         d="m 67.443,82.877 h 1.948 l 1.4904,9.1517 h -1.4381 l -0.26148,-1.8173 v 0.02615 h -1.6342 l -0.26148,1.7911 h -1.3335 z m 1.5689,6.1186 -0.64062,-4.5236 h -0.02615 l -0.62755,4.5236 z"
         id="path68" />
      <path
         d="m 72.097,84.185 h -1.5035 v -1.3074 h 4.4451 v 1.3074 h -1.5035 v 7.8443 H 72.097 Z"
         id="path70" />
      <path
         d="m 75.248,92.029 h -0.47066 v -1.3858 h 1.3858 v 1.242 l -0.71906,1.7127 h -0.66677 z"
         id="path72" />
      <path
         d="m 81.353,92.16 q -1.0328,0 -1.5819,-0.58832 -0.53603,-0.58833 -0.53603,-1.6604 v -4.9158 q 0,-1.0721 0.53603,-1.6604 0.5491,-0.58833 1.5819,-0.58833 1.0328,0 1.5689,0.58833 0.5491,0.58832 0.5491,1.6604 v 0.96747 h -1.3597 v -1.059 q 0,-0.8498 -0.71906,-0.8498 -0.71906,0 -0.71906,0.8498 v 5.1119 q 0,0.83673 0.71906,0.83673 0.71906,0 0.71906,-0.83673 v -1.3989 h 1.3597 v 1.2943 q 0,1.0721 -0.5491,1.6604 -0.53603,0.58832 -1.5689,0.58832 z"
         id="path74" />
      <path
         d="m 86.439,92.16 q -1.059,0 -1.6212,-0.6014 -0.56218,-0.6014 -0.56218,-1.6996 v -4.8112 q 0,-1.0982 0.56218,-1.6996 0.56218,-0.6014 1.6212,-0.6014 1.05902,0 1.6212,0.6014 0.56218,0.6014 0.56218,1.6996 v 4.8112 q 0,1.0982 -0.56218,1.6996 Q 87.49802,92.16 86.439,92.16 Z m 0,-1.3074 q 0.74521,0 0.74521,-0.9021 v -4.9942 q 0,-0.9021 -0.74521,-0.9021 -0.74521,0 -0.74521,0.9021 v 4.9942 q 0,0.9021 0.74521,0.9021 z"
         id="path76" />
      <path
         d="m 92.021,92.081 q -0.39222,0 -0.66677,-0.0523 v -1.3074 q 0.20918,0.0523 0.47066,0.0523 0.43144,0 0.64062,-0.20918 0.20918,-0.22226 0.20918,-0.66677 v -7.0207 h 1.4381 v 6.9815 q 0,1.1244 -0.52296,1.6735 -0.50988,0.5491 -1.5689,0.5491 z"
         id="path78" />
      <path
         d="m 95.146,82.877 h 3.9222 v 1.3074 h -2.484 v 2.4187 h 1.9742 v 1.3074 h -1.9742 v 2.8109 h 2.484 v 1.3074 H 95.146 Z"
         id="path80" />
      <path
         d="m 103.85,92.16 q -1.0459,0 -1.5819,-0.58832 -0.53603,-0.6014 -0.53603,-1.7127 v -0.52296 h 1.3597 v 0.62755 q 0,0.88902 0.74521,0.88902 0.36607,0 0.5491,-0.20918 0.19611,-0.22226 0.19611,-0.70599 0,-0.57525 -0.26147,-1.0067 -0.26148,-0.44451 -0.96747,-1.059 -0.88903,-0.78443 -1.242,-1.412 -0.353,-0.64062 -0.353,-1.4381 0,-1.0851 0.5491,-1.6735 0.54911,-0.6014 1.595,-0.6014 1.0328,0 1.5558,0.6014 0.53603,0.58832 0.53603,1.6996 v 0.37914 h -1.3597 V 84.9562 q 0,-0.47066 -0.18304,-0.67984 -0.18303,-0.22226 -0.53603,-0.22226 -0.71906,0 -0.71906,0.87595 0,0.49681 0.26148,0.92825 0.27455,0.43144 0.98054,1.0459 0.9021,0.78443 1.242,1.4251 0.33992,0.64062 0.33992,1.5035 0,1.1244 -0.56218,1.7258 -0.5491,0.6014 -1.6081,0.6014 z"
         id="path82" />
      <path
         d="m 106.85,82.877 h 2.118 q 1.0721,0 1.6081,0.57525 0.53603,0.57525 0.53603,1.6865 v 0.9021 q 0,1.1113 -0.53603,1.6865 -0.53603,0.5752 -1.6081,0.57525 h -0.67985 v 3.7261 h -1.4381 z m 2.118,4.1183 q 0.35299,0 0.52295,-0.19611 0.18304,-0.19611 0.18304,-0.66677 v -1.0851 q 0,-0.47066 -0.18304,-0.66677 -0.16996,-0.19611 -0.52295,-0.19611 h -0.67985 v 2.8109 z"
         id="path84" />
      <path
         d="m 111.89,82.877 h 2.131 q 1.1113,0 1.6212,0.52296 0.50988,0.50988 0.50988,1.5819 v 0.56218 q 0,1.4251 -0.94132,1.8042 v 0.02615 q 0.52296,0.15689 0.73214,0.64062 0.22226,0.48373 0.22226,1.2943 v 1.6081 q 0,0.39222 0.0261,0.64062 0.0262,0.23533 0.13074,0.47066 h -1.4643 q -0.0785,-0.22226 -0.1046,-0.41836 -0.0261,-0.19611 -0.0261,-0.70599 v -1.6735 q 0,-0.62755 -0.20919,-0.87595 -0.1961,-0.2484 -0.69291,-0.2484 h -0.49681 v 3.9222 h -1.4381 z m 1.9611,3.9222 q 0.43143,0 0.64062,-0.22226 0.22225,-0.22226 0.22225,-0.74521 v -0.70599 q 0,-0.49681 -0.18303,-0.71906 -0.16996,-0.22226 -0.54911,-0.22226 h -0.65369 v 2.6148 z"
         id="path86" />
      <path
         d="m 118.27,82.877 h 1.948 l 1.4904,9.1517 h -1.4381 l -0.26148,-1.8173 v 0.02615 h -1.6342 l -0.26148,1.7911 h -1.3335 z m 1.5689,6.1186 -0.64062,-4.5236 h -0.0261 l -0.62754,4.5236 z m -0.45758,-8.2366 h 1.5689 l -1.3989,1.5035 h -1.0851 z"
         id="path88" />
      <path
         d="m 121.66,82.877 h 1.4512 l 0.94132,7.0991 h 0.0262 l 0.94132,-7.0991 h 1.3205 l -1.3858,9.1517 h -1.9088 z"
         id="path90" />
      <path
         d="m 127.03,82.877 h 1.8042 l 1.3989,5.478 h 0.0262 v -5.478 h 1.2812 v 9.1517 h -1.4774 l -1.7258,-6.6808 h -0.0262 v 6.6808 h -1.2812 z"
         id="path92" />
      <path
         d="m 132.62,82.877 h 3.9222 v 1.3074 h -2.484 v 2.4187 h 1.9742 v 1.3074 h -1.9742 v 2.8109 h 2.484 v 1.3074 H 132.62 Z m 2.0918,-2.118 h 1.5689 l -1.3989,1.5035 h -1.0851 z"
         id="path94" />
    </g>
  </g>
</svg>
