<?xml version="1.0" encoding="UTF-8"?>
<svg width="28.496mm" height="37.161mm" version="1.1" viewBox="0 0 28.496 37.161" xmlns="http://www.w3.org/2000/svg" xmlns:cc="http://creativecommons.org/ns#" xmlns:dc="http://purl.org/dc/elements/1.1/" xmlns:rdf="http://www.w3.org/1999/02/22-rdf-syntax-ns#">
 <metadata>
  <rdf:RDF>
   <cc:Work rdf:about="">
    <dc:format>image/svg+xml</dc:format>
    <dc:type rdf:resource="http://purl.org/dc/dcmitype/StillImage"/>
    <dc:title/>
   </cc:Work>
  </rdf:RDF>
 </metadata>
 <g transform="translate(-67.395 -73.646)">
  <path d="m74.093 73.646-6.6978 2.4247 2.0637 3.9018 1.4995 0.61058-0.56488 0.19116s1.5504 3.3248 1.5426 3.4676c0.21546 0.83519-0.46036 2.0206-0.72449 2.5739-0.47387 0.93908-0.65041 1.6922-0.60921 2.6177 0.0922 2.0911 1.0858 3.3775 2.047 5.3609 0.77176 1.6444 1.396 3.1201 1.3879 3.2824 0.44026 1.1822 2.2504 6.1826 2.4416 6.7105-0.45869 0.24412-0.89863 0.41888-1.3202 0.53345-1.7933 0.48862-3.544 0.0434-5.6172-0.78457l7e-5 5.2e-4 -1.1523 2.8856c2.277 0.90933 4.83 1.6504 7.5872 0.89967 2.5896-0.70486 5.112-2.6546 7.7143-6.3304 4.7816-0.68834 7.8169-2.1271 9.6661-4.2289 1.8877-2.1456 2.3484-4.7632 2.534-7.208l-3.0976-0.23597c-0.16909 2.2261-0.54069 3.9938-1.7684 5.3893-0.54447 0.6189-1.2984 1.2069-2.3624 1.7234l-4e-3 -0.0739c-0.0942 0.0432-0.18658 0.0795-0.27997 0.12171-0.14305-0.25722-0.29128-0.54286-0.43363-0.86523l-0.44681-1.011-0.0343-1e-3c-1.3924-3.1723-3.1226-6.6574-4.7627-10.07-1.067-1.6589-2.6078-2.6021-4.4212-2.705-1.1412-0.0649-1.2145-0.12519-1.824-1.4997-0.40492-0.91424-0.80455-1.8483-1.2605-2.7999l-0.59951 0.2421 0.5615-1.4906zm-6.6978 2.4247-3.7e-4 -3e-3zm11.013 11.332c0.20003-0.0222 0.39111-0.0311 0.56849-0.0217 0.64355 0.0288 1.1027 0.26123 1.1485 0.75737 0.065 0.73966-0.5681 1.2504-2.7298 2.1945-1.3554 0.5922-1.6237 0.8043-1.2354 0.97809 0.41973 0.18954 2.6107-0.2728 4.1978-0.88527 0.32637-0.12585 0.53516 0.11254 0.79652 0.91077 0.14159 0.43184 0.28327 0.85357 0.36792 1.0998 0.76693 1.7083 2.203 3.7362 3.751 5.3169l0.60435 0.64063c-1.5963 0.43125-3.0404 0.49579-4.1231 0.0195l-0.0233 4e-3 -3e-3 -3e-3 -0.0126 0.0168c-0.13571 1.3094-1.0753 2.6753-2.467 3.9677-0.86965-1.5726-1.717-5.875-1.9495-6.6073-0.48415-1.4259-1.4422-3.283-2.6168-4.6424-0.0492-0.0371-0.0951-0.068-0.12608-0.10701-0.49546-0.51889-0.4954-0.58795-1e-3 -1.5004 0.61324-1.1318 2.4519-1.9843 3.8514-2.1389zm13.013 15.174c-2.6539 1.23-5.2168 1.7984-6.9043 1.0561l-0.0233 4e-3 -3e-3 -3e-3 -7e-3 0.016c-0.19008 1.8339-1.9516 3.7802-4.3337 5.4775l6e-3 2e-3 2.6631 1.6781c1.5984-1.2981 2.9254-2.6175 3.6631-3.7637 1.3611-0.0738 3.1631-0.57409 5.0823-1.3206z" fill="#e1e1e1" opacity=".52952"/>
 </g>
</svg>
