<?xml version="1.0" encoding="UTF-8"?>
<svg width="18.451mm" height="22.839mm" version="1.1" viewBox="0 0 18.451 22.839" xmlns="http://www.w3.org/2000/svg" xmlns:cc="http://creativecommons.org/ns#" xmlns:dc="http://purl.org/dc/elements/1.1/" xmlns:rdf="http://www.w3.org/1999/02/22-rdf-syntax-ns#">
 <metadata>
  <rdf:RDF>
   <cc:Work rdf:about="">
    <dc:format>image/svg+xml</dc:format>
    <dc:type rdf:resource="http://purl.org/dc/dcmitype/StillImage"/>
    <dc:title/>
   </cc:Work>
  </rdf:RDF>
 </metadata>
 <g transform="translate(-38.399 -39.985)">
  <path d="m56.851 45.089c0-2.8187-4.13-5.1038-9.2255-5.1038-5.0959 0-9.2259 2.2851-9.2259 5.1038 0 2.8187 4.1301 5.1033 9.2259 5.1033 5.0955 0 9.2255-2.2846 9.2255-5.1033m-18.387 3.7322c0.53366 2.5376 4.4302 4.5079 9.1615 4.5079 4.7547 0 8.6676-1.9898 9.17-4.5454 0.0168-0.19912-0.0496-0.38674-0.22194-0.44222-0.18425-0.0597-0.31749 0.0308-0.45221 0.18969v4.8e-4c-1.4012 1.8291-4.6758 3.1136-8.4943 3.1136-3.8384 0-7.1258-1.2976-8.5154-3.1416-0.12562-0.14008-0.25345-0.21765-0.42522-0.16227-0.18383 0.0592-0.25037 0.26681-0.22091 0.47975m0 3.1653c0.53368 2.5371 4.4302 4.5078 9.1615 4.5078 4.7546 0 8.6676-1.9903 9.17-4.5459 0.0168-0.19911-0.0496-0.38676-0.22194-0.44222-0.18425-0.0597-0.31752 0.0312-0.45232 0.1897v9.6e-4c-1.4012 1.8292-4.6759 3.113-8.4942 3.113-3.8385 0-7.1259-1.2976-8.5153-3.1416-0.12563-0.14007-0.25345-0.21767-0.42539-0.16227-0.18384 0.0593-0.25038 0.26732-0.22092 0.48027m0 3.1648c0.5336 2.5376 4.4302 4.5079 9.1616 4.5079 4.7546 0 8.6675-1.9898 9.17-4.5459 0.0168-0.1987-0.0496-0.38624-0.22194-0.44223-0.18467-0.0592-0.3175 0.0312-0.45227 0.19033v4.6e-4c-1.4012 1.8297-4.6759 3.113-8.4942 3.113-3.8385 0-7.1259-1.2971-8.5154-3.141-0.12563-0.14007-0.25345-0.21821-0.42529-0.16268-0.18383 0.0599-0.25037 0.26733-0.22091 0.48024m0 3.1648c0.53364 2.5376 4.4302 4.5078 9.1616 4.5078 4.7545 0 8.6675-1.9892 9.1699-4.5454 0.0168-0.19911-0.0496-0.38674-0.22194-0.44222-0.18467-0.0599-0.31752 0.0308-0.4523 0.19011-1.4012 1.8297-4.6759 3.1135-8.4943 3.1135-3.8384 0-7.1258-1.2971-8.5154-3.1416-0.12562-0.13945-0.25345-0.21767-0.42532-0.16227-0.18384 0.0597-0.25036 0.26681-0.22092 0.47975" fill="#e1e1e1" opacity=".52952"/>
 </g>
</svg>
