<?xml version="1.0" encoding="UTF-8" standalone="no"?>
<svg
   xmlns:dc="http://purl.org/dc/elements/1.1/"
   xmlns:cc="http://creativecommons.org/ns#"
   xmlns:rdf="http://www.w3.org/1999/02/22-rdf-syntax-ns#"
   xmlns:svg="http://www.w3.org/2000/svg"
   xmlns="http://www.w3.org/2000/svg"
   xmlns:sodipodi="http://sodipodi.sourceforge.net/DTD/sodipodi-0.dtd"
   xmlns:inkscape="http://www.inkscape.org/namespaces/inkscape"
   width="25"
   height="25"
   version="1.1"
   viewBox="0 0 25 25"
   id="svg5"
   sodipodi:docname="heart.svg"
   inkscape:version="1.0.2 (e86c870879, 2021-01-15)">
  <defs
     id="defs9" />
  <sodipodi:namedview
     pagecolor="#ffffff"
     bordercolor="#666666"
     borderopacity="1"
     objecttolerance="10"
     gridtolerance="10"
     guidetolerance="10"
     inkscape:pageopacity="0"
     inkscape:pageshadow="2"
     inkscape:window-width="1680"
     inkscape:window-height="965"
     id="namedview7"
     showgrid="false"
     inkscape:zoom="21.533333"
     inkscape:cx="15"
     inkscape:cy="15"
     inkscape:window-x="1920"
     inkscape:window-y="51"
     inkscape:window-maximized="1"
     inkscape:current-layer="svg5" />
  <metadata
     id="metadata2">
    <rdf:RDF>
      <cc:Work
         rdf:about="">
        <dc:format>image/svg+xml</dc:format>
        <dc:type
           rdf:resource="http://purl.org/dc/dcmitype/StillImage" />
        <dc:title></dc:title>
      </cc:Work>
    </rdf:RDF>
  </metadata>
  <!--! Font Awesome Pro 6.1.1 by @fontawesome - https://fontawesome.com License - https://fontawesome.com/license (Commercial License) Copyright 2022 Fonticons, Inc. -->
  <path
     id="icon"
     d="M 0.59387765,9.8636083 V 9.5925226 c 0,-3.266975 2.36117945,-6.0535101 5.58052065,-6.5901228 2.0891898,-0.354742 4.2999337,0.3397905 5.8236297,1.8657546 l 0.560856,0.5599273 0.518798,-0.5599273 c 1.56572,-1.5260394 3.734356,-2.2205384 5.865654,-1.8657546 3.220262,0.5365541 5.580521,3.3230641 5.580521,6.5901228 v 0.2710857 c 0,1.9396747 -0.803898,3.7951327 -2.224724,5.1178287 l -8.445999,7.884774 c -0.35054,0.327166 -0.813249,0.509447 -1.294652,0.509447 -0.481402,0 -0.944137,-0.182281 -1.294651,-0.509447 L 2.8178316,14.981437 C 1.3988636,13.658741 0.59360975,11.8032 0.59360975,9.8636083 Z"
     stroke-width="0.046738" />
</svg>
