<svg width="191" height="55" viewBox="0 0 191 55" xmlns="http://www.w3.org/2000/svg" xmlns:xlink="http://www.w3.org/1999/xlink"><title>logo</title><defs><path id="a" d="M.037.03v53.933h53.929V.03H.036z"/></defs><g fill="none" fill-rule="evenodd"><g transform="translate(0 1)"><mask id="b" fill="#fff"><use xlink:href="#a"/></mask><path d="M53.966 27.015C53.966 41.917 41.886 54 26.985 54 12.083 54 0 41.917 0 27.015S12.083.03 26.985.03c14.901 0 26.98 12.083 26.98 26.985" fill="#FFF" mask="url(#b)"/></g><path d="M27.5 50.674c-12.227 0-22.167-9.942-22.167-22.17 0-12.225 9.94-22.171 22.167-22.171 12.222 0 22.175 9.946 22.175 22.17 0 12.23-9.953 22.171-22.175 22.171zM44.818 11.18A24.324 24.324 0 0 0 27.5 4c-6.536 0-12.689 2.552-17.326 7.179C5.552 15.805 3 21.959 3 28.503c0 6.553 2.552 12.707 7.174 17.326C14.81 50.456 20.964 53 27.5 53c6.544 0 12.696-2.544 17.318-7.171C49.456 41.21 52 35.056 52 28.503c0-6.544-2.544-12.698-7.182-17.324z" fill="#0A0B09"/><path d="M26.999 26.156c-.734 3.51-4.54 5.334-6.762 6.853V15.28c3.787.913 8.238 3.838 6.762 10.877zm-6.762-12.77V10H18.13v3.911c-1.423.44-2.253.897-2.115 1.18.47-.132 1.223-.19 2.115-.136V35.32c-2.145 4.22.946 10.679.946 10.679s-2.327-6.934 2.844-10.212C26.672 32.78 43.061 34.192 43 24.896c-.073-13.173-15.19-13.095-22.763-11.51z" fill="#0A0B09"/><path d="M68.875 15.423c.333.051.708.077 1.125.077 1.083 0 1.916-.257 2.5-.77.583-.514.875-1.241.875-2.183 0-1.797-1.125-2.696-3.375-2.696a5.18 5.18 0 0 0-1.125.128v5.444zm0 3.722V25H64V6.385A37.574 37.574 0 0 1 69.5 6c5.666 0 8.5 2.097 8.5 6.29 0 2.277-.638 4.002-1.913 5.174-1.274 1.173-3.137 1.758-5.587 1.758-.65 0-1.192-.025-1.625-.077zM80 25h6V6h-6zm15.043-10.27h1.422c.88 0 1.574-.219 2.082-.655.509-.437.763-1.031.763-1.785 0-1.626-.948-2.44-2.845-2.44-.55 0-1.025.044-1.422.13v4.75zm0 3.722V25H90V6.385A59.087 59.087 0 0 1 96.724 6c5.173 0 7.759 1.925 7.759 5.776 0 1.08-.336 2.08-1.008 3.005a5.53 5.53 0 0 1-2.613 1.977v.051c.517.291.948.664 1.293 1.117.345.454.672 1.1.982 1.939L105 25h-5.302l-1.603-4.879c-.19-.598-.431-1.027-.724-1.283-.294-.257-.681-.386-1.165-.386h-1.163zm17.183-.926h3.444l-1.696-6.96h-.052l-1.696 6.96zm2.818-12.887h-4.175L113.48 0h5.739l-4.174 4.64zm-3.757 16.753l-.86 3.608H105l6.261-18.814h5.478L123 25h-5.53l-.887-3.608h-5.296zM138 6v4.294h-4.95V25h-5.1V10.294H123V6h15m13.75 5.193c-1.683-.845-3.392-1.267-5.125-1.267-.784 0-1.374.14-1.775.419-.4.278-.6.645-.6 1.101 0 .71.542 1.216 1.625 1.52 2.616.71 4.458 1.558 5.525 2.547 1.066.987 1.6 2.25 1.6 3.787 0 1.858-.633 3.272-1.9 4.243-1.267.972-3.175 1.457-5.725 1.457-1.066 0-2.212-.181-3.437-.545-1.225-.362-2.205-.814-2.938-1.355l1.126-3.927a11.04 11.04 0 0 0 2.762 1.393c.991.339 1.904.507 2.737.507 1.5 0 2.25-.548 2.25-1.647 0-.709-.666-1.257-2-1.646-2.433-.71-4.167-1.562-5.2-2.559-1.033-.996-1.55-2.254-1.55-3.775 0-1.672.633-2.997 1.9-3.977 1.267-.979 3.05-1.469 5.35-1.469 2.467 0 4.55.422 6.25 1.267l-.874 3.926m9.329 2.875h.05L165.905 6h5.841l-5.84 9.11L172 25h-5.841l-5.029-8.85h-.05V25H156V6h5.08v8.068m19.146 3.458h3.444l-1.696-6.96h-.052l-1.696 6.96zm2.818-12.887h-4.175L181.48 0h5.739l-4.174 4.64zm-3.757 16.753l-.86 3.608H173l6.26-18.814h5.479L191 25h-5.53l-.888-3.608h-5.295zM75.75 36.193c-1.683-.844-3.392-1.266-5.125-1.266-.784 0-1.375.14-1.775.418-.4.278-.6.646-.6 1.101 0 .71.541 1.217 1.625 1.52 2.616.71 4.458 1.56 5.525 2.547 1.066.988 1.6 2.25 1.6 3.788 0 1.857-.633 3.272-1.9 4.243-1.267.97-3.175 1.456-5.725 1.456-1.067 0-2.212-.18-3.438-.544-1.225-.363-2.204-.815-2.937-1.356l1.125-3.927a11.02 11.02 0 0 0 2.762 1.394c.992.338 1.904.507 2.738.507 1.5 0 2.25-.55 2.25-1.647 0-.71-.667-1.258-2-1.647-2.433-.709-4.167-1.562-5.2-2.558-1.034-.997-1.55-2.255-1.55-3.776 0-1.672.633-2.997 1.9-3.976 1.267-.98 3.05-1.47 5.35-1.47 2.466 0 4.55.422 6.25 1.267l-.875 3.926M94 31v4.295h-4.95V50h-5.1V35.295H79V31h15m8.043 8.73h1.423c.879 0 1.572-.218 2.08-.655.51-.436.764-1.031.764-1.784 0-1.627-.948-2.44-2.844-2.44a6.87 6.87 0 0 0-1.423.129v4.75zm0 3.723V50H97V31.385a59.09 59.09 0 0 1 6.724-.385c5.172 0 7.758 1.925 7.758 5.778 0 1.077-.336 2.079-1.008 3.003a5.524 5.524 0 0 1-2.612 1.977v.052c.517.29.947.663 1.293 1.117.344.453.672 1.099.983 1.938L112 50h-5.302l-1.603-4.879c-.19-.598-.431-1.026-.724-1.283-.294-.257-.682-.385-1.164-.385h-1.164zm18.183-1.001h3.444l-1.696-7.027h-.052l-1.696 7.027zm-.939 3.904l-.86 3.644H113l6.261-19h5.478L131 50h-5.53l-.887-3.644h-5.296zm23.869-4.946h.049V31H148v19h-4.795l-5.36-10.41h-.05V50H133V31h4.795l5.36 10.41m14.071 1.042h3.443l-1.695-7.027h-.052l-1.696 7.027zm-.939 3.904L155.426 50H150l6.261-19h5.478L168 50h-5.53l-.887-3.644h-5.296z" fill="#000"/></g></svg>