<?xml version="1.0" encoding="UTF-8"?>
<svg width="50mm" height="50mm" version="1.1" viewBox="0 0 50 50" xmlns="http://www.w3.org/2000/svg" xmlns:cc="http://creativecommons.org/ns#" xmlns:dc="http://purl.org/dc/elements/1.1/" xmlns:rdf="http://www.w3.org/1999/02/22-rdf-syntax-ns#">
 <metadata>
  <rdf:RDF>
   <cc:Work rdf:about="">
    <dc:format>image/svg+xml</dc:format>
    <dc:type rdf:resource="http://purl.org/dc/dcmitype/StillImage"/>
    <dc:title/>
   </cc:Work>
  </rdf:RDF>
 </metadata>
 <g id="icon" transform="translate(-101.48 -141.49)">
  <path d="m140.99 158.39c0-0.22385 0.089-1.8562-1.8328-2.3257-1.9232-0.46953-2.75 1.4538-2.75 1.4538l-2.9957 6.46s-0.53577 1.4538 0.7379 2.1011c1.2743 0.64891 1.9903-0.49135 1.9903-0.49135l1.6986-3.5766 1.1848 0.60365s-1.1848 2.3694-1.6994 3.487c-0.51389 1.1184-2.2572 1.7657-3.71 1.1176-1.4539-0.64814-1.5209-2.2352-1.5209-2.2352s-0.84938 0.49132-1.4757 0.42423c-0.62543-0.0673-1.2517-0.33539-1.2517-0.33539s0.17966 0.39194 0.30135 0.86142c0.12842 0.49294 0.12297 1.0166 0.12297 1.0166v5.1638h-1.2735v-5.3868c0-0.59235-0.51495-2.7282-2.7502-4.4713-2.236-1.7439-5.2761-1.8328-5.2761-1.8328l2.7274-5.5218s2.4567 0.0288 4.0898-0.97216c2.08-1.2744 2.1915-3.2526 2.1915-3.2526h-10.015s-0.96172 0.0451-1.8111 0.62547c-0.63587 0.43639-0.96085 1.1855-0.96085 1.1855s-2.4138 5.2309-3.2858 7.1752c-0.87263 1.9451 0.40232 3.4878 0.40232 3.4878l7.5776 10.126v13.614h15.47v-10.083l3.7957-7.4208c0.3562-0.71603 0.31736-1.5427 0.31736-1.5427zm-3.5671-5.9671c0.552-1.1863 0.0365-2.5956-1.149-3.1484-1.1879-0.55277-2.5973-0.0387-3.1493 1.1483l-4.7735 10.34c-0.55361 1.1871-0.0368 2.5948 1.1483 3.1484 1.188 0.55194 2.5966 0.0381 3.1485-1.1483zm-5.4103-2.4582c0.55197-1.1871 0.0365-2.5957-1.149-3.15-1.188-0.55194-2.5965-0.0371-3.1485 1.1491l-0.69419 1.4894h3.4054s0.56731 0.61739 0.13418 2.118c-0.43377 1.4998-1.4505 2.6991-2.5019 3.3334-1.0449 0.63194-1.9783 1.0804-4.1327 1.1992l-1.5896 3.4167c1.668 0.1582 3.1655 0.89213 4.2992 1.9992zm-5.3658-2.4591c0.55267-1.1863 0.0419-2.5965-1.1476-3.1492-1.1879-0.55197-2.5981-0.0387-3.1508 1.1491l-1.8458 3.9646h5.2301z"/>
 </g>
</svg>
