<?xml version="1.0" encoding="UTF-8"?>
<svg width="50mm" height="50mm" version="1.1" viewBox="0 0 50 50" xmlns="http://www.w3.org/2000/svg" xmlns:cc="http://creativecommons.org/ns#" xmlns:dc="http://purl.org/dc/elements/1.1/" xmlns:rdf="http://www.w3.org/1999/02/22-rdf-syntax-ns#">
 <metadata>
  <rdf:RDF>
   <cc:Work rdf:about="">
    <dc:format>image/svg+xml</dc:format>
    <dc:type rdf:resource="http://purl.org/dc/dcmitype/StillImage"/>
    <dc:title/>
   </cc:Work>
  </rdf:RDF>
 </metadata>
 <g id="icon" transform="translate(-51.223 -76.01)">
  <path d="m101.22 93.665-7.7284-7.7283-7.7283 7.7283 0.39332 0.3931c0.4938 0.43164 1.2249 0.44651 1.7344 0.04375l5.6008-5.6008 5.5947 5.5947c0.50286 0.4027 1.2232 0.39747 1.7195-0.01769zm-4.5555 12.878-17.312-17.313-17.313 17.313 0.87993 0.87991c1.1067 0.96746 2.7431 1.0007 3.8856 0.0981l12.547-12.546 12.532 12.532c1.125 0.90351 2.7404 0.89126 3.8524-0.0369zm-24.634-12.376 2.1031-2.1021-10.234-10.234-12.674 12.673 0.64431 0.6444c0.80984 0.70832 2.0085 0.73282 2.8448 0.07167l9.1851-9.1852zm-8.1311-6.2303-8.392 8.3911v8.2913h6.0464l0.02777-0.0295v-6.5262h4.6333v1.8938l4.8515-4.8522zm15.452 9.6344-11.463 11.463v11.325h8.2984v-8.955h6.3292v8.955h8.2983v-11.325zm12.728 2.2606v-3.9968h2.8245v3.9968h3.7043v-5.0553l-5.1167-5.1166-5.1166 5.1166v1.6075l3.4479 3.4478z"/>
 </g>
</svg>
