<?xml version="1.0" encoding="UTF-8"?>
<svg width="50mm" height="50mm" version="1.1" viewBox="0 0 50 50" xmlns="http://www.w3.org/2000/svg" xmlns:cc="http://creativecommons.org/ns#" xmlns:dc="http://purl.org/dc/elements/1.1/" xmlns:rdf="http://www.w3.org/1999/02/22-rdf-syntax-ns#">
 <metadata>
  <rdf:RDF>
   <cc:Work rdf:about="">
    <dc:format>image/svg+xml</dc:format>
    <dc:type rdf:resource="http://purl.org/dc/dcmitype/StillImage"/>
    <dc:title/>
   </cc:Work>
  </rdf:RDF>
 </metadata>
 <g id="icon" transform="translate(-62.589 -116.19)">
  <path d="m102.63 119.9c-5.4978 8e-5 -9.9543 4.4567-9.9543 9.9544 0 5.4977 9.9543 18.357 9.9543 18.357s9.9544-12.859 9.9544-18.357c0-5.4977-4.4566-9.9544-9.9544-9.9544zm0 6.5489c1.8809 9e-5 3.4054 1.5246 3.4054 3.4055 0 1.8808-1.5246 3.4054-3.4054 3.4054-1.8809 0-3.4054-1.5246-3.4054-3.4054 0-1.8809 1.5246-3.4055 3.4054-3.4055zm-30.849 11.118-4.5982 9.191-4.5981 9.191 6.099 3.0556c3.3546 1.6804 6.1252 3.0578 6.1589 3.0593 0.03468 3e-3 2.8128-1.3723 6.1793-3.0556l6.121-3.0608 6.1407 3.0707 6.1415 3.0692 12.274-6.1369-2.5663-5.1396c-1.4119-2.8268-2.5843-5.1405-2.6066-5.1411-0.0244-3.8e-4 -0.41872 0.7502-0.88294 1.6668l-0.84288 1.666 1.3737 2.7383c0.75513 1.5059 1.3729 2.7688 1.3729 2.8057 0 0.093-6.9672 3.5634-7.029 3.5016-0.0277-0.0277-0.57714-2.6882-1.2222-5.9135l-1.1723-5.8651 0.21784-0.2265 0.21784-0.22706-0.6989-1.3888c-0.38412-0.76377-0.71012-1.404-0.72624-1.4229-0.01626-0.0163-0.17855 0.11379-0.36255 0.29449-0.18478 0.18071-0.37166 0.32881-0.4182 0.32881-0.04551 0-2.1203-1.3599-4.6118-3.0215-2.4909-1.6617-4.5607-3.0215-4.5974-3.0215-0.03983 0-2.1072 1.3598-4.5997 3.0215-2.4927 1.6617-4.5704 3.0215-4.6178 3.0215-0.05094 0-0.9941-0.90977-2.103-2.0212-1.109-1.1114-2.4716-2.4754-3.0291-3.0306zm16.922 4.7269c0.08643 2e-3 6.0388 3.9644 6.2271 4.1461 0.09267 0.09 0.2471 0.68207 0.48911 1.8962 0.194 0.97083 0.42501 2.1181 0.51179 2.5498 0.40967 2.0055 0.56403 2.779 0.6354 3.1783 0.03956 0.23735 0.14468 0.74972 0.22651 1.1382 0.0821 0.38845 0.20673 1.0061 0.27645 1.3729 0.07044 0.36689 0.14468 0.72868 0.1669 0.80421 0.02438 0.0829 0 0.13656-0.0615 0.13331-0.05717-3e-3 -2.0012-0.9569-4.321-2.1204l-4.2188-2.1143v-5.4932c0-3.0743 0.02764-5.4888 0.06855-5.491zm-16.105 0.47325c0.01626-0.0216 0.82804 0.75817 1.7985 1.7289l1.7645 1.7644-1.0624 5.3342c-0.58443 2.9335-1.1187 5.5892-1.1867 5.9022-0.06855 0.31286-0.1669 0.56812-0.21567 0.56495-0.14902-8e-3 -6.9563-3.4432-6.9563-3.5108 0-0.0618 5.793-11.714 5.8582-11.784z"/>
 </g>
</svg>
