<?xml version="1.0" encoding="UTF-8"?>
<svg width="50mm" height="50mm" version="1.1" viewBox="0 0 50 50" xmlns="http://www.w3.org/2000/svg" xmlns:cc="http://creativecommons.org/ns#" xmlns:dc="http://purl.org/dc/elements/1.1/" xmlns:rdf="http://www.w3.org/1999/02/22-rdf-syntax-ns#">
 <metadata>
  <rdf:RDF>
   <cc:Work rdf:about="">
    <dc:format>image/svg+xml</dc:format>
    <dc:type rdf:resource="http://purl.org/dc/dcmitype/StillImage"/>
    <dc:title/>
   </cc:Work>
  </rdf:RDF>
 </metadata>
 <g id="icon" transform="translate(-98 -110.78)">
  <path d="m147.98 137.67c0-13.66-11.21-24.773-24.99-24.773-13.78 0-24.99 11.113-24.99 24.773 0 5.878 2.0761 11.283 5.54 15.536h0.17259c-6.9978-9.0328-6.4194-21.926 1.8028-30.078 6.1642-6.1103 15.016-7.963 22.901-5.5858 8.9661 2.3771 15.589 10.5 15.589 20.128 0 6.1272-2.6833 11.645-6.945 15.461l9.3908-2.2624s-1.1806-0.29127-2.0252-0.47857c2.2555-3.7202 3.5538-8.0726 3.5538-12.72m-30.922-13.259h10.77c-0.20417-0.93829-1.0498-1.6472-2.055-1.6472h-6.6599c-1.0049 0-1.8504 0.70894-2.055 1.6472m15.609 1.0868h-20.447c-1.1565 0-2.1029 0.93833-2.1029 2.085v21.201c0 1.1467 0.94636 2.085 2.1029 2.085h20.447c1.1567 0 2.103-0.93826 2.103-2.085v-21.201c0-1.1466-0.94626-2.085-2.103-2.085m-4.3414 20.666c0-0.99511 0.8137-1.8028 1.8176-1.8028 1.0042 0 1.8178 0.80767 1.8178 1.8028 0 0.99514-0.81367 1.8018-1.8178 1.8018-1.0039 0-1.8176-0.80665-1.8176-1.8018m-15.401 0c0-0.99511 0.81466-1.8028 1.8188-1.8028s1.8178 0.80767 1.8178 1.8028c0 0.99514-0.81358 1.8018-1.8178 1.8018s-1.8188-0.80665-1.8188-1.8018m19.226-10.574c0 0.76477-0.63024 1.39-1.402 1.39h-16.613c-0.77073 0-1.4019-0.6252-1.4019-1.39v-6.1013c0-0.76379 0.63151-1.39 1.4019-1.39h16.613c0.77172 0 1.402 0.62624 1.402 1.39zm-17.902 16.548-8.4993 5.7653v0.58931h33.386v-0.72793l-8.3128-5.6267zm16.157 2.7211h-15.728v-1.5096h15.728zm-18.488 0.83059h21.249v1.5097h-21.249z"/>
 </g>
</svg>
