<?xml version="1.0" encoding="UTF-8"?>
<svg width="50mm" height="50mm" version="1.1" viewBox="0 0 50 50" xmlns="http://www.w3.org/2000/svg" xmlns:cc="http://creativecommons.org/ns#" xmlns:dc="http://purl.org/dc/elements/1.1/" xmlns:rdf="http://www.w3.org/1999/02/22-rdf-syntax-ns#">
 <metadata>
  <rdf:RDF>
   <cc:Work rdf:about="">
    <dc:format>image/svg+xml</dc:format>
    <dc:type rdf:resource="http://purl.org/dc/dcmitype/StillImage"/>
    <dc:title/>
   </cc:Work>
  </rdf:RDF>
 </metadata>
 <g id="icon" transform="translate(-51.229 -88.34)">
  <path d="m99.318 103.31c-1.9422 0.37603-6.0628 0.85025-10.518-0.40848-4.452-1.2724-7.7077-3.8427-9.1612-5.1852-1.4639-1.3493-5.9731 4.3897-7.3412 12.143-0.89801 5.0955-0.23429 10.276 1.9852 14.281 2.1242 3.8368 5.4508 5.815 6.7319 6.1781 1.2809 0.36492 5.1381 0.42816 8.963-1.7175 3.9949-2.2406 7.283-6.2952 9.198-11.102 2.9148-7.3147 2.097-14.567 0.14288-14.188m-15.533 8.9801c-0.14744 0.0337-0.29464 0.0241-0.42988-0.0108-0.30241-0.0866-0.54952-0.3305-0.62112-0.65967-0.19542-0.8853-0.8571-1.5894-1.7279-1.8355-0.86901-0.24798-1.8022 2e-3 -2.4337 0.6528-0.33903 0.35039-0.89801 0.35892-1.2484 0.0161-0.34841-0.33923-0.35731-0.89722-0.01609-1.2476 1.0843-1.116 2.6874-1.5467 4.1828-1.122 1.4953 0.42551 2.6336 1.6338 2.9686 3.154 0.10428 0.47687-0.19542 0.94683-0.67254 1.0519m4.6929 9.6885c0.33954-0.35034 0.89814-0.3589 1.2476-0.0187 0.3501 0.33922 0.35895 0.89809 0.02412 1.2476-1.8646 1.9209-4.6204 2.6601-7.1924 1.9295-2.5731-0.7306-4.5282-2.8088-5.1042-5.4245-0.10428-0.47593 0.19676-0.94596 0.67256-1.0511 0.47529-0.10476 0.9468 0.19622 1.0519 0.67253 0.43484 1.9791 1.9158 3.5522 3.8615 4.105 1.9466 0.55376 4.0325-3e-3 5.4442-1.4604m6.0868-6.6242c-0.14744 0.0305-0.29458 0.0267-0.42985-0.0134-0.30238-0.0855-0.54949-0.33082-0.62208-0.65881-0.19516-0.88527-0.85619-1.5886-1.727-1.8364-0.869-0.2469-1.8022 3e-3 -2.4337 0.65455-0.33898 0.34864-0.89804 0.35886-1.2484 0.0161-0.34844-0.34011-0.35731-0.89892-0.01609-1.2484 1.0844-1.1169 2.6874-1.5467 4.1827-1.1211 1.4954 0.4247 2.6337 1.6329 2.9687 3.154 0.10455 0.47512-0.19676 0.94597-0.67254 1.0519m-23.843-5.8089c0.29598-1.6757 0.73326-3.2592 1.252-4.7084-1.1254-2.408-2.4704-3.7582-3.1737-3.2053-1.21 0.952-3.8906 2.7456-7.4189 3.4608-3.5318 0.70412-6.6985 0.0855-8.1803-0.32543-1.4929-0.41184-2.5696 5.1613-0.75534 11.01 1.1911 3.8436 3.4932 7.1891 6.454 9.169 2.8346 1.8979 5.8382 2.0825 6.8541 1.8782 1.016-0.20426 3.7052-1.5321 5.5869-4.3777 0.1075-0.16326 0.19891-0.33922 0.29903-0.50847-1.369-3.7257-1.6765-8.0872-0.91772-12.392m-9.5663 1.5399c-0.35227 1.1579-1.3074 2.0252-2.4926 2.2636-1.1862 0.23857-2.4029-0.19302-3.1754-1.1245-0.24153-0.29225-0.20159-0.72465 0.09061-0.96644 0.29254-0.24155 0.7246-0.20079 0.96645 0.0906 0.44929 0.5426 1.1579 0.79304 1.8474 0.65457 0.68956-0.13859 1.2459-0.64342 1.4509-1.3185 0.11044-0.36144 0.49304-0.56656 0.85624-0.45543 0.3623 0.10991 0.56654 0.49388 0.45647 0.85617m2.8694 6.8943c2.038-0.41018 4.1307 0.33088 5.4586 1.9346 0.2426 0.29226 0.20159 0.7238-0.09061 0.9665-0.09061 0.0745-0.19516 0.12172-0.30238 0.14369-0.23939 0.0488-0.49743-0.0341-0.66484-0.23429-1.0049-1.2142-2.5883-1.7756-4.1315-1.4646-1.5425 0.30917-2.7857 1.439-3.2447 2.9472-0.11045 0.36318-0.49301 0.56746-0.8571 0.45631-0.3623-0.10991-0.56654-0.49309-0.45535-0.85542 0.60504-1.9918 2.2482-3.4846 4.2871-3.894m5.6758-8.6118c-0.3523 1.1579-1.3075 2.0261-2.4936 2.2645-1.1851 0.23858-2.4019-0.19302-3.1744-1.1245-0.24126-0.29324-0.20132-0.72462 0.09061-0.9673 0.29292-0.2418 0.72551-0.20079 0.9664 0.0909 0.45039 0.54348 1.1588 0.79381 1.8484 0.65537 0.6887-0.13859 1.245-0.64432 1.4501-1.3185 0.11044-0.36232 0.49298-0.5674 0.85713-0.45717 0.36224 0.11125 0.56734 0.49389 0.45644 0.85705"/>
 </g>
</svg>
