<?xml version="1.0" encoding="UTF-8"?>
<svg width="50mm" height="50mm" version="1.1" viewBox="0 0 50 50" xmlns="http://www.w3.org/2000/svg" xmlns:cc="http://creativecommons.org/ns#" xmlns:dc="http://purl.org/dc/elements/1.1/" xmlns:rdf="http://www.w3.org/1999/02/22-rdf-syntax-ns#">
 <metadata>
  <rdf:RDF>
   <cc:Work rdf:about="">
    <dc:format>image/svg+xml</dc:format>
    <dc:type rdf:resource="http://purl.org/dc/dcmitype/StillImage"/>
    <dc:title/>
   </cc:Work>
  </rdf:RDF>
 </metadata>
 <g id="icon" transform="translate(-84.918 -57.702)">
  <path d="m134.21 95.344-10.737-10.74c1.4252-2.0168 2.2729-4.4719 2.2729-7.1251 0-6.8206-5.5424-12.369-12.362-12.369-6.8206 0-12.369 5.5485-12.369 12.369 0 6.8197 5.5484 12.368 12.369 12.368 2.4885 0 4.8046-0.74385 6.7458-2.0141l10.792 10.799c0.45425 0.45341 1.0494 0.68045 1.6445 0.68045 0.59498 0 1.1901-0.22699 1.6434-0.68045 0.90844-0.90757 0.90844-2.3794 0-3.2879m-11.947-17.865c0 4.8971-3.9825 8.8822-8.8795 8.8822-4.8972 0-8.8822-3.9851-8.8822-8.8822 0-4.8971 3.985-8.8822 8.8822-8.8822 4.897 0 8.8795 3.9851 8.8795 8.8822m-15.715-0.58715h7.8751v-5.3892h-4.8557c-1.5415 1.2219-2.8636 3.2527-3.0194 5.3892m7.839 1.8363h-7.7617c0.24212 2.1655 1.8645 4.2712 3.6788 5.3179h4.0829zm-29.465 4.3619h15.662c-0.50162-1.066-0.86455-2.2087-1.066-3.4068h-14.596zm14.506-7.1894c0.14272-1.191 0.44284-2.3337 0.88208-3.4077h-15.388v3.4077zm3.6506 10.972h-18.156v3.4068h23.411c-2.2932-0.59328-3.6198-1.7888-5.2546-3.4068m10.354 7.1894h-28.511v3.4076h28.511z"/>
 </g>
</svg>
