<?xml version="1.0" encoding="UTF-8" standalone="no"?>
<svg
   xmlns:dc="http://purl.org/dc/elements/1.1/"
   xmlns:cc="http://creativecommons.org/ns#"
   xmlns:rdf="http://www.w3.org/1999/02/22-rdf-syntax-ns#"
   xmlns:svg="http://www.w3.org/2000/svg"
   xmlns="http://www.w3.org/2000/svg"
   xmlns:sodipodi="http://sodipodi.sourceforge.net/DTD/sodipodi-0.dtd"
   xmlns:inkscape="http://www.inkscape.org/namespaces/inkscape"
   width="50mm"
   height="50mm"
   version="1.1"
   viewBox="0 0 50 50"
   id="svg9"
   sodipodi:docname="priroda.svg"
   inkscape:version="1.0.2 (e86c870879, 2021-01-15)">
  <defs
     id="defs13" />
  <sodipodi:namedview
     pagecolor="#ffffff"
     bordercolor="#666666"
     borderopacity="1"
     objecttolerance="10"
     gridtolerance="10"
     guidetolerance="10"
     inkscape:pageopacity="0"
     inkscape:pageshadow="2"
     inkscape:window-width="1680"
     inkscape:window-height="965"
     id="namedview11"
     showgrid="false"
     inkscape:zoom="3.4184167"
     inkscape:cx="94.488189"
     inkscape:cy="94.488189"
     inkscape:window-x="1920"
     inkscape:window-y="51"
     inkscape:window-maximized="1"
     inkscape:current-layer="svg9" />
  <metadata
     id="metadata2">
    <rdf:RDF>
      <cc:Work
         rdf:about="">
        <dc:format>image/svg+xml</dc:format>
        <dc:type
           rdf:resource="http://purl.org/dc/dcmitype/StillImage" />
        <dc:title />
      </cc:Work>
    </rdf:RDF>
  </metadata>
  <g
     id="icon"
     transform="matrix(0.42332684,0,0,0.42332684,-16.051786,-6.853896)">
    <g
       transform="matrix(13.381,0,0,13.381,-3166.7,-402.87)"
       id="g6">
      <path
         d="m 247.49,35.719 c 0,-1.9841 -1.6142,-3.5985 -3.5985,-3.5985 -1.9843,0 -3.5985,1.6144 -3.5985,3.5985 0,1.9841 1.6142,3.5985 3.5985,3.5985 1.9843,0 3.5985,-1.6144 3.5985,-3.5985 m -0.67247,0 c 0,1.6134 -1.3126,2.9259 -2.9261,2.9259 -1.6134,0 -2.926,-1.3125 -2.926,-2.9259 0,-1.6134 1.3126,-2.9262 2.926,-2.9262 1.6134,0 2.9261,1.3128 2.9261,2.9262 m -0.74416,0.27362 v -0.0011 c 0,0 -0.84898,-0.18754 -1.4642,0.46568 -0.46549,0.49431 -0.50401,1.1581 -0.49549,1.452 l 1.1988,-1.109 -1.0437,1.2725 c 0.27782,0.0076 0.90524,-0.03561 1.3708,-0.52998 0.61556,-0.65323 0.43487,-1.5498 0.43487,-1.5498 m -2.3215,2.025 c 0.14115,-0.41829 0.37558,-1.388 -0.0824,-2.3036 -0.60567,-1.211 -1.917,-1.318 -1.917,-1.318 l -0.003,8.46e-4 c 0,0 -0.65405,1.2065 -0.0484,2.4172 0.45798,0.91596 1.3475,1.2571 1.7539,1.3687 l -0.95546,-2.2892 z"
         id="path4" />
    </g>
  </g>
</svg>
