<?xml version="1.0" encoding="UTF-8"?>
<svg width="50mm" height="50mm" version="1.1" viewBox="0 0 50 50" xmlns="http://www.w3.org/2000/svg" xmlns:cc="http://creativecommons.org/ns#" xmlns:dc="http://purl.org/dc/elements/1.1/" xmlns:rdf="http://www.w3.org/1999/02/22-rdf-syntax-ns#">
 <metadata>
  <rdf:RDF>
   <cc:Work rdf:about="">
    <dc:format>image/svg+xml</dc:format>
    <dc:type rdf:resource="http://purl.org/dc/dcmitype/StillImage"/>
    <dc:title/>
   </cc:Work>
  </rdf:RDF>
 </metadata>
 <g id="icon" transform="translate(-80.524 -88.354)">
  <path d="m100.48 91.167c-1.9635 0-3.5593 1.5848-3.5593 3.5547 0.04773 1.9801 1.6162 3.523 3.5593 3.523 1.9635 0 3.5591-1.5842 3.5591-3.5338 0-1.9597-1.5956-3.5438-3.5591-3.5438zm10.953 0c-1.9635 0-3.5591 1.5848-3.5591 3.5547 0.0477 1.9801 1.6161 3.523 3.5591 3.523 1.9739 0 3.569-1.5842 3.5584-3.5338 0-1.9597-1.5948-3.5438-3.5584-3.5438zm-5.471 7.4029c-1.4318 0-2.5977 1.1572-2.5977 2.5788 0 1.4013 1.1865 2.5797 2.5977 2.5797 1.4215 0 2.5864-1.1581 2.597-2.5797 0-1.4215-1.1652-2.5788-2.597-2.5788zm-6.9346 0.04752c-2.4748 0-4.4887 2.0007-4.4887 4.4581v5.5028h6.4931l0.0718-1.9799c0-1.2388 0.71615-2.4369 1.8104-3.0563l0.56283-0.31435-0.3478-0.5384c-0.25608-0.40599-0.38889-0.87318-0.38889-1.3809 0-0.57913 0.19423-1.1481 0.57304-1.6355l0.62393-0.80189-1.013-0.16228c-0.27641-0.04067-0.62326-0.09164-0.94052-0.09164zm10.953 0.0137c-0.35776 0-0.66468 0.04752-0.94052 0.09164l-1.0539 0.17245 0.68506 0.81275c0.38848 0.4671 0.60355 1.0459 0.60355 1.6247 0 0.47728-0.13323 0.9448-0.39844 1.4018l-0.31709 0.53704 0.55263 0.30551c1.1147 0.59881 1.7996 1.7668 1.7996 3.0463v1.9591h6.504v-5.4929c0-2.4167-2.0548-4.4581-4.4888-4.4581zm7.4346 9.9509v9.5e-4l0.0208-9.5e-4zm9.4744-8.3616c-1.3181 0-2.3849 1.0671-2.3849 2.383v10.811l-5.8734 5.8815-1.2913-1.2876 4.2733-4.2777c0.92824-0.93116 0.92824-2.4398 0-3.3725-0.93097-0.93122-2.4375-0.93122-3.3698 0l-9.3601 9.3583c-0.4841 0.40258-0.81115 0.97854-0.87096 1.6382-0.0207 0-0.0207 0.0733-0.0207 0.12427v0.12355 14.251h14.257v-7.1094h-2.0676v-4.2461c0.0207 0 0.0544 3.4e-4 0.0755-0.0726l8.3308-8.338c0.52618-0.52617 0.75466-1.2367 0.68772-1.9192l-2e-3 -0.0137v-11.555c0-1.3156-1.0677-2.3831-2.3858-2.3831zm-42.151 0.0137c-1.318 0-2.385 1.0671-2.385 2.383v11.554c-0.04732 0.6923 0.1739 1.3929 0.68788 1.9191l8.338 8.338c0.02075 0 0.04731-2.7e-4 0.04731 0.0726v4.2479h-2.0705v7.1075h14.26v-14.251s-4.2e-4 -0.0726-0.0208-0.12289c0 0-3.8e-4 -0.0733 0-0.12426-0.0473-0.65449-0.38682-1.2435-0.87341-1.6383l0.0207 0.0137-9.3593-9.3592c-0.93097-0.93122-2.4433-0.93122-3.3726 0-0.93089 0.92878-0.93089 2.4397 0 3.3725l4.2759 4.2778-1.2912 1.2876-5.8824-5.8816v-10.81c0-1.3155-1.0676-2.383-2.3831-2.383zm20.559 4.1128c-1.943 0-3.5185 1.5637-3.5185 3.493v5.067h8.4477v-5.0869c-0.0473-1.9496-1.6161-3.4731-3.5592-3.4731z"/>
 </g>
</svg>
