<?xml version="1.0" encoding="UTF-8"?>
<svg width="50mm" height="50mm" version="1.1" viewBox="0 0 50 50" xmlns="http://www.w3.org/2000/svg" xmlns:cc="http://creativecommons.org/ns#" xmlns:dc="http://purl.org/dc/elements/1.1/" xmlns:rdf="http://www.w3.org/1999/02/22-rdf-syntax-ns#">
 <metadata>
  <rdf:RDF>
   <cc:Work rdf:about="">
    <dc:format>image/svg+xml</dc:format>
    <dc:type rdf:resource="http://purl.org/dc/dcmitype/StillImage"/>
    <dc:title/>
   </cc:Work>
  </rdf:RDF>
 </metadata>
 <g id="icon" transform="translate(-100.44 -142.61)">
  <path d="m135.76 144.09c-0.79346 0.0212-1.6984 0.20158-2.4796 0.61724-1.5745 0.83216-2.4804 2.5722-2.3437 4.5267 0.13594 2.0048 1.352 3.7066 3.0881 4.337 0.57009 0.20158 1.1524 0.30365 1.7104 0.30365 1.7358 0 3.323-0.95862 4.166-2.6231 0.7688-1.5004 0.83101-2.8623 0.19904-4.2871-0.78117-1.7526-2.4427-2.8503-4.3399-2.8744zm-14.717 6.4423c-0.71922 0-1.5377 0.51683-4.4018 2.7487-3.9305 3.0641-4.9345 3.9844-4.9345 5.3209 0 1.223 0.63176 1.8916 1.7974 1.8916 1.1035 0 7.4401-3.5563 7.5018-3.5937l0.76826-0.4281 1.6984 0.39003c0.45859 0.11435 0.86768 0.20243 1.178 0.29009-0.42138 0.71867-1.2027 1.9545-2.2939 3.6187-3.8191 5.8382-4.4509 7.0359-3.6946 9.0534 0.45861 1.2483 1.4134 1.9797 5.6788 4.8799 1.7978 1.2231 3.1115 2.1686 3.6695 2.6101-0.26045 0.71867-0.89226 2.3704-1.7973 4.6654-1.587 4.0349-2.0205 5.3591-2.0951 6.4563-0.0753 1.0464-0.0212 1.6766 0.47037 2.1809 0.37182 0.3659 0.92981 0.5549 1.5126 0.5549 0.59504 0 1.203-0.17744 1.6494-0.57984 0.93002-0.74411 1.7977-2.2074 4.8974-8.2472 2.6038-5.0815 2.8887-5.6734 2.7524-6.6948-0.0753-0.61792-0.39639-1.3495-0.76829-1.753-0.38454-0.41629-2.5298-1.9672-3.8814-2.9002-1.3761-0.95844-2.2319-1.6137-2.6535-1.9666 0.89265-1.4879 2.7032-4.4136 3.5586-5.7628 0.22317 0.44127 0.45859 0.97127 0.57014 1.2112 0.0483 0.10038 1.166 2.5596 1.7984 3.0639 0.78108 0.61792 2.3056 0.6931 7.414 0.36505 2.3931-0.15245 4.4637-0.29009 4.4637-2.3078 0-1.9165-1.711-2.0677-5.1331-2.3954-1.4383-0.13976-2.5293-0.27697-3.0252-0.36505-0.35954-0.85736-1.2651-2.9252-1.4756-3.4171l-1.6495-3.8083-4.6984-3.2276-4.1791-0.97076c-1.5995-0.3532-4.1778-0.88298-4.6986-0.88298zm-3.5956 19.696-2.7524 3.9461-4.4887 0.31507c-5.1829 0.3532-6.4471 0.56735-7.0795 1.753-0.34726 0.66852-0.39765 1.3998-0.12535 2.0303 0.31042 0.74394 1.0166 1.2989 1.9961 1.5634 0.52098 0.13974 2.7657 0.36505 4.6009 0.50433 2.6905 0.21387 4.5496 0.31508 5.8515 0.31508 1.4134 0 2.1699-0.12536 2.6535-0.36505 0.76871-0.40316 3.1486-3.7836 3.4959-4.6914 0.13594-0.39088 0.16263-0.89475-1.3508-2.1052-0.68237-0.54173-1.4018-1.2864-1.6375-1.6141zm24.574 5.4216c-3.571 0-6.484 2.9636-6.484 6.595 0 3.6314 2.9131 6.594 6.484 6.594 3.5833 0 6.485-2.9626 6.485-6.594 0-3.6314-2.9142-6.595-6.485-6.595z"/>
 </g>
</svg>
