<?xml version="1.0" encoding="UTF-8"?>
<svg width="50mm" height="50mm" version="1.1" viewBox="0 0 50 50" xmlns="http://www.w3.org/2000/svg" xmlns:cc="http://creativecommons.org/ns#" xmlns:dc="http://purl.org/dc/elements/1.1/" xmlns:rdf="http://www.w3.org/1999/02/22-rdf-syntax-ns#">
 <metadata>
  <rdf:RDF>
   <cc:Work rdf:about="">
    <dc:format>image/svg+xml</dc:format>
    <dc:type rdf:resource="http://purl.org/dc/dcmitype/StillImage"/>
    <dc:title/>
   </cc:Work>
  </rdf:RDF>
 </metadata>
 <path id="icon" d="m7.9944 49.101c-0.68015-0.3023-1.2368-0.93385-1.4363-1.6297-0.09831-0.34277-0.16449-4.4215-0.16449-10.137v-9.564l10.195-0.0026c3.0744-2.8038 5.9847-5.862 9.4422-8.1731 0 0 2.5278 2.0543 4.8032 4.2045 4.877 4.6372 4.4384 3.9696 9.5089 3.9715l4.9763 3.8e-5 0.0057 4.0863c0.02535 17.288 0.09723 16.214-1.1422 17.057l-0.62708 0.4261h-13.546l-0.05458-2.4296c-0.05369-2.3915-0.06254-2.4409-0.56296-3.1522-1.3486-1.9169-4.4394-2.2586-6.1859-0.68391-1.1031 0.99456-1.3018 1.6209-1.3061 4.1172l-0.0038 2.1485-6.6982-0.0066c-5.2052-0.0051-6.8109-0.05668-7.2037-0.23128zm4.8025-6.003v-1.8597l-1.6017 0.04821c-0.88093 0.02656-1.6013 0.1051-1.6008 0.17461 5.03e-4 0.06951 6.37e-4 0.88467 6.37e-4 1.8115v1.6851h3.2017v-1.8597zm5.5608 0.0064v-1.8539h-3.2017v3.7072h3.2017zm18.367 0v-1.8539h-3.2017v3.7072h3.2017zm5.7293-0.0064v-1.8597l-3.2859 0.09642-0.04885 1.5882c-0.02688 0.8735-0.01025 1.6887 0.03681 1.8115 0.06286 0.16376 0.51385 0.22328 1.6918 0.22328h1.6061zm-29.657-6.0602v-1.8536h-3.1785l-0.05522 1.643c-0.03038 0.90362-0.02745 1.7377 0.0065 1.8536 0.04369 0.14918 0.52352 0.21064 1.6445 0.21064h1.5828v-1.8536zm5.5608 0v-1.8536h-3.2017v3.7072h3.2017zm18.367 0.09582v-1.7578l-3.2024-0.10738 3.31e-4 1.8115 3.38e-4 1.8115h3.2017v-1.7578zm5.6284-0.0535 0.01662-1.727-1.5587-1.72e-4 -1.5587-2.42e-4v0.98753c0 0.54314-0.04859 1.3422-0.10803 1.7757l-0.10803 0.78819 3.3002-0.09706 0.01662-1.727zm-14.881-5.5898c0.91431-0.57433 1.333-1.3459 1.333-2.4567 0-1.6185-1.008-2.689-2.6961-2.8634-0.82584-0.08532-0.99845-0.04471-1.5847 0.37278-0.97898 0.69719-1.3251 1.2586-1.4105 2.2876-0.08472 1.0217 0.15209 1.6243 0.91589 2.3305 1.0055 0.92974 2.2908 1.0527 3.4424 0.32924zm8.3387-5.4962-1.5362-1.173-5.8422-5.3573s-1.861-1.636-2.4856-1.636c-0.73613 0-0.90244 0.1357-6.5068 5.3094-1.1051 1.0202-2.3249 2.1018-2.7106 2.4036l-0.70121 0.54863-10.959-0.0889 4.6104-7.3228 3.9599-0.02197c2.178-0.01204 4.3784-0.07058 4.8899-0.13003l0.92994-0.10811 5.9714-6.3919-0.07986-10.573 0.39781-0.32215c0.37119-0.3006 0.72382-0.32215 5.2696-0.32215h4.8718l-0.04586 3.1595-0.04585 3.1595-9.268 0.0144-0.05038 2.4361-0.05038 2.4361 6.1306 6.5718h4.7903c4.0812 0 4.8118 0.03745 4.9356 0.25276 0.07988 0.13902 1.1343 1.8073 2.3432 3.7072l2.198 3.4544-2.6499 0.10356c-5.2133 0.20374-7.831 0.16936-8.3665-0.10989z" stroke-width=".16851"/>
</svg>
