<?xml version="1.0" encoding="UTF-8"?>
<svg width="50mm" height="50mm" version="1.1" viewBox="0 0 50 50" xmlns="http://www.w3.org/2000/svg" xmlns:cc="http://creativecommons.org/ns#" xmlns:dc="http://purl.org/dc/elements/1.1/" xmlns:rdf="http://www.w3.org/1999/02/22-rdf-syntax-ns#">
 <metadata>
  <rdf:RDF>
   <cc:Work rdf:about="">
    <dc:format>image/svg+xml</dc:format>
    <dc:type rdf:resource="http://purl.org/dc/dcmitype/StillImage"/>
    <dc:title/>
   </cc:Work>
  </rdf:RDF>
 </metadata>
 <g id="icon" transform="translate(-21.908 -69.983)">
  <path d="m71.908 84.806c0-0.91903-1.0991-1.1635-1.0991-1.1635l-22.651-9.2678s-0.65028-0.29014-0.90038-0.29014c-0.24987 0-0.65031 0.24558-0.65031 0.24558l-23.299 9.557s-0.6006 0.42943-0.6006 1.0413c0 0.61301 0.5002 1.0422 0.5002 1.0422l5.5003 2.3279s-1.1 2.2663-1.6505 4.2882c-0.54984 2.0209-0.39919 4.1053-0.39919 4.1053s-1.8922 0.45062-1.8922 2.7179c0 2.2664 1.8418 2.9186 1.8418 2.9186s0.10166 2.5723-1.4994 6.6161c-0.80809 2.0406-3.2003 4.962-3.2003 4.962s1.3911 1.1849 2.2411 1.7354c0.84998 0.55225 1.9091 0.655 2.7086 0.16372 0.79957-0.48993 2.0853-1.8073 2.6339-4.6157 0.53594-2.7459-0.48326-9.1689-0.48326-9.1689s1.5796-0.13962 1.5796-2.4063c0-2.2664-1.7802-2.7394-1.7802-2.7394l0.30664-2.5126c0.09968-0.85651 0.59338-2.6339 1.0432-3.4923 0.4494-0.85651 1.1505-1.8371 4.1502-3.553 2.9997-1.7158 11.9-5.6355 11.9-5.6355s1.8734-0.81545 2.7348 0.26175c0.82202 1.0273-1.034 2.1264-1.034 2.1264l-13.501 6.3717s12.25 5.2072 12.449 5.2688c0.20069 0.06172 0.70072 0.12213 1.0011 0 0.29938-0.12213 23.149-9.5571 23.149-9.5571s0.90038-0.42946 0.90038-1.3483m-39.8 8.2098c-0.40041 0.8574-0.40041 3.2469-0.40041 3.2469s1.9006 1.5321 1.8511 4.2882c-0.03697 1.8418-1.101 3.2479-1.101 3.2479s4.25 5.1457 14.7 5.1457c10.45 0 14-3.9206 15-5.1457 1.0003-1.226 0.8509-2.5733 0.8509-2.5733v-8.3936s-13.451 5.5749-14.4 5.9425c-0.95068 0.36826-2.0498 0.24558-2.6507 0-0.60004-0.24426-13.85-5.7586-13.85-5.7586"/>
 </g>
</svg>
