<?xml version="1.0" encoding="utf-8"?>
<!-- Generator: Adobe Illustrator 22.0.1, SVG Export Plug-In . SVG Version: 6.00 Build 0)  -->
<svg version="1.1" id="logo" xmlns="http://www.w3.org/2000/svg" xmlns:xlink="http://www.w3.org/1999/xlink" x="0px" y="0px"
	 viewBox="0 0 850.4 425.2" style="enable-background:new 0 0 850.4 425.2;" xml:space="preserve">
<style type="text/css">
	.st0{fill:#FFFFFF;}
</style>
<g>
	
		<ellipse transform="matrix(0.2248 -0.9744 0.9744 0.2248 126.6295 583.095)" class="st0" cx="429.8" cy="212" rx="58.8" ry="58.8"/>
	<g>
		<path d="M429.5,268.2c-30.8,0-55.9-25.1-55.9-55.9c0-30.8,25.1-55.9,55.9-55.9c30.8,0,55.9,25.1,55.9,55.9
			C485.4,243.1,460.3,268.2,429.5,268.2 M473.2,168.6c-11.7-11.7-27.2-18.1-43.7-18.1c-16.5,0-32,6.4-43.7,18.1
			c-11.7,11.7-18.1,27.2-18.1,43.7c0,16.5,6.4,32,18.1,43.7c11.7,11.7,27.2,18.1,43.7,18.1c16.5,0,32-6.4,43.7-18.1
			c11.7-11.6,18.1-27.2,18.1-43.7C491.3,195.8,484.9,180.3,473.2,168.6"/>
		<path d="M428.2,208.1c-1.9,9-11.7,13.6-17.4,17.5v-45.3C420.6,182.7,432,190.2,428.2,208.1 M410.9,175.5v-8.6h-5.4v10
			c-3.7,1.1-5.8,2.3-5.4,3c1.2-0.3,3.1-0.5,5.4-0.3v52c-5.5,10.8,2.4,27.3,2.4,27.3s-6-17.7,7.3-26.1c12.2-7.7,54.3-4.1,54.1-27.8
			C469.1,171.3,430.3,171.5,410.9,175.5"/>
	</g>
</g>
</svg>
