<?xml version="1.0" encoding="utf-8"?>
<!-- Generator: Adobe Illustrator 22.0.1, SVG Export Plug-In . SVG Version: 6.00 Build 0)  -->
<svg version="1.1" id="logo" xmlns="http://www.w3.org/2000/svg" xmlns:xlink="http://www.w3.org/1999/xlink" x="0px" y="0px"
	 viewBox="0 0 850.4 425.2" style="enable-background:new 0 0 850.4 425.2;" xml:space="preserve">
<style type="text/css">
	.st0{fill:#FFFFFF;}
</style>
<g>
	<g>
		<path class="st0" d="M324.9,245.6c-18.3,0-33.2-14.9-33.2-33.2c0-18.3,14.9-33.2,33.2-33.2c18.3,0,33.2,14.9,33.2,33.2
			C358.1,230.7,343.2,245.6,324.9,245.6 M350.9,186.5c-6.9-6.9-16.1-10.8-25.9-10.8c-9.8,0-19,3.8-26,10.8
			c-6.9,6.9-10.7,16.1-10.7,25.9c0,9.8,3.8,19,10.7,25.9c6.9,6.9,16.2,10.7,26,10.7c9.8,0,19-3.8,25.9-10.7
			c6.9-6.9,10.8-16.1,10.8-25.9C361.6,202.6,357.8,193.4,350.9,186.5"/>
		<path class="st0" d="M324.2,210c-1.1,5.3-6.9,8.1-10.3,10.4v-26.9C319.6,194.9,326.4,199.3,324.2,210 M313.9,190.6v-5.1h-3.2v5.9
			c-2.2,0.7-3.4,1.4-3.2,1.8c0.7-0.2,1.9-0.3,3.2-0.2v30.9c-3.3,6.4,1.4,16.2,1.4,16.2s-3.5-10.5,4.3-15.5
			c7.2-4.6,32.2-2.4,32.1-16.5C348.5,188.1,325.4,188.2,313.9,190.6"/>
		<path class="st0" d="M387.9,193.4c0.5,0.1,1.1,0.1,1.7,0.1c1.7,0,2.9-0.4,3.8-1.2c0.9-0.8,1.3-1.9,1.3-3.3c0-2.7-1.7-4-5.2-4
			c-0.6,0-1.1,0.1-1.7,0.2V193.4z M387.9,199v8.7h-7.5v-27.8c2.7-0.4,5.5-0.6,8.4-0.6c8.7,0,13,3.1,13,9.4c0,3.4-1,6-2.9,7.7
			c-2,1.8-4.8,2.6-8.6,2.6C389.4,199.1,388.6,199,387.9,199"/>
	</g>
	<rect x="405.4" y="179.7" class="st0" width="8.4" height="28"/>
	<g>
		<path class="st0" d="M426.8,192.4h2.1c1.3,0,2.3-0.3,3.1-1c0.8-0.7,1.1-1.5,1.1-2.7c0-2.4-1.4-3.6-4.2-3.6c-0.8,0-1.5,0.1-2.1,0.2
			V192.4z M426.8,197.9v9.8h-7.5v-27.8c3.3-0.4,6.6-0.6,10-0.6c7.7,0,11.5,2.9,11.5,8.6c0,1.6-0.5,3.1-1.5,4.5c-1,1.4-2.3,2.4-3.9,3
			v0.1c0.8,0.4,1.4,1,1.9,1.7c0.5,0.7,1,1.6,1.5,2.9l2.8,7.7h-7.9l-2.4-7.3c-0.3-0.9-0.6-1.5-1.1-1.9c-0.4-0.4-1-0.6-1.7-0.6H426.8z
			"/>
	</g>
	<path class="st0" d="M453.8,196.6h5.1l-2.5-10.4h-0.1L453.8,196.6z M457.9,177.4h-6.1l3.8-6.9h8.4L457.9,177.4z M452.4,202.3
		l-1.3,5.4h-8l9.2-28h8.1l9.2,28h-8.1l-1.3-5.4H452.4z"/>
	<polygon class="st0" points="492.1,179.7 492.1,186 484.5,186 484.5,207.7 476.7,207.7 476.7,186 469.1,186 469.1,179.7 	"/>
	<g>
		<path class="st0" d="M513.8,187.2c-2.6-1.3-5.2-1.9-7.9-1.9c-1.2,0-2.1,0.2-2.7,0.6c-0.6,0.4-0.9,1-0.9,1.7c0,1.1,0.8,1.8,2.5,2.3
			c4,1.1,6.8,2.4,8.5,3.9c1.6,1.5,2.5,3.4,2.5,5.7c0,2.8-1,5-2.9,6.4c-1.9,1.5-4.9,2.2-8.8,2.2c-1.6,0-3.4-0.3-5.3-0.8
			c-1.9-0.5-3.4-1.2-4.5-2.1l1.7-5.9c1.3,0.9,2.7,1.6,4.2,2.1c1.5,0.5,2.9,0.8,4.2,0.8c2.3,0,3.5-0.8,3.5-2.5c0-1.1-1-1.9-3.1-2.5
			c-3.7-1.1-6.4-2.4-8-3.9c-1.6-1.5-2.4-3.4-2.4-5.7c0-2.5,1-4.5,2.9-6c1.9-1.5,4.7-2.2,8.2-2.2c3.8,0,7,0.6,9.6,1.9L513.8,187.2z"
			/>
	</g>
	<polygon class="st0" points="527.5,191.6 527.6,191.6 534.8,179.7 543.6,179.7 534.8,193.1 544,207.7 535.2,207.7 527.6,194.7 
		527.5,194.7 527.5,207.7 519.8,207.7 519.8,179.7 527.5,179.7 	"/>
	<path class="st0" d="M555.9,196.6h5.1l-2.5-10.4h-0.1L555.9,196.6z M560,177.4h-6.1l3.8-6.9h8.4L560,177.4z M554.5,202.3l-1.3,5.4
		h-8l9.2-28h8.1l9.2,28h-8.1l-1.3-5.4H554.5z"/>
	<g>
		<path class="st0" d="M399,225c-2.6-1.3-5.2-1.9-7.9-1.9c-1.2,0-2.1,0.2-2.7,0.6c-0.6,0.4-0.9,1-0.9,1.7c0,1.1,0.8,1.8,2.5,2.3
			c4,1.1,6.8,2.4,8.5,3.9c1.6,1.5,2.5,3.4,2.5,5.7c0,2.8-1,5-2.9,6.4c-1.9,1.5-4.9,2.2-8.8,2.2c-1.6,0-3.4-0.3-5.3-0.8
			c-1.9-0.6-3.4-1.2-4.5-2.1l1.7-5.9c1.3,0.9,2.7,1.6,4.2,2.1c1.5,0.5,2.9,0.8,4.2,0.8c2.3,0,3.5-0.8,3.5-2.5c0-1.1-1-1.9-3.1-2.5
			c-3.7-1.1-6.4-2.4-8-3.9c-1.6-1.5-2.4-3.4-2.4-5.7c0-2.5,1-4.5,2.9-6c1.9-1.5,4.7-2.2,8.2-2.2c3.8,0,7,0.6,9.6,1.9L399,225z"/>
	</g>
	<polygon class="st0" points="426.3,217.6 426.3,223.9 418.7,223.9 418.7,245.6 410.9,245.6 410.9,223.9 403.3,223.9 403.3,217.6 	
		"/>
	<g>
		<path class="st0" d="M437.9,230.2h2.1c1.3,0,2.3-0.3,3.1-1c0.8-0.7,1.1-1.5,1.1-2.7c0-2.4-1.4-3.6-4.2-3.6c-0.8,0-1.5,0.1-2.1,0.2
			V230.2z M437.9,235.8v9.8h-7.5v-27.8c3.3-0.4,6.6-0.6,10-0.6c7.7,0,11.5,2.9,11.5,8.6c0,1.6-0.5,3.1-1.5,4.5c-1,1.4-2.3,2.4-3.9,3
			v0.1c0.8,0.4,1.4,1,1.9,1.7c0.5,0.7,1,1.6,1.5,2.9l2.8,7.7h-7.9l-2.4-7.3c-0.3-0.9-0.6-1.5-1.1-1.9c-0.4-0.4-1-0.6-1.7-0.6H437.9z
			"/>
	</g>
	<path class="st0" d="M465.3,234.4h5.1l-2.5-10.4h-0.1L465.3,234.4z M463.9,240.2l-1.3,5.4h-8l9.2-28h8.1l9.2,28H473l-1.3-5.4H463.9
		z"/>
	<polygon class="st0" points="500.1,232.9 500.2,232.9 500.2,217.6 507.7,217.6 507.7,245.6 500.2,245.6 491.8,230.2 491.7,230.2 
		491.7,245.6 484.3,245.6 484.3,217.6 491.7,217.6 	"/>
	<path class="st0" d="M521.4,234.4h5.1l-2.5-10.4h-0.1L521.4,234.4z M520,240.2l-1.3,5.4h-8l9.2-28h8.1l9.2,28h-8.1l-1.3-5.4H520z"
		/>
</g>
</svg>
