<?xml version="1.0" encoding="utf-8"?>
<!-- Generator: Adobe Illustrator 19.2.1, SVG Export Plug-In . SVG Version: 6.00 Build 0)  -->
<svg version="1.1" id="Layer_1" xmlns="http://www.w3.org/2000/svg" xmlns:xlink="http://www.w3.org/1999/xlink" x="0px" y="0px"
	 viewBox="0 0 1200 800" style="enable-background:new 0 0 1200 800;" xml:space="preserve">
<style type="text/css">
	.st0{opacity:0.25;}
</style>
<g class="st0">
	<circle cx="42" cy="323" r="14.3"/>
	<circle cx="42" cy="361.5" r="14.3"/>
	<circle cx="42" cy="400" r="14.3"/>
	<circle cx="42" cy="438.5" r="14.3"/>
	<circle cx="42" cy="477" r="14.3"/>
	<circle cx="80.5" cy="323" r="14.3"/>
	<circle cx="80.5" cy="361.5" r="14.3"/>
	<circle cx="80.5" cy="400" r="14.3"/>
	<circle cx="80.5" cy="438.5" r="14.3"/>
	<circle cx="80.5" cy="477" r="14.3"/>
	<circle cx="119" cy="323" r="14.3"/>
	<circle cx="119" cy="361.5" r="14.3"/>
	<circle cx="119" cy="400" r="14.3"/>
	<circle cx="119" cy="438.5" r="14.3"/>
	<circle cx="119" cy="477" r="14.3"/>
	<circle cx="157.5" cy="323" r="14.3"/>
	<circle cx="157.5" cy="361.5" r="14.3"/>
	<circle cx="157.5" cy="400" r="14.3"/>
	<circle cx="157.5" cy="438.5" r="14.3"/>
	<circle cx="157.5" cy="477" r="14.3"/>
	<circle cx="196" cy="323" r="14.3"/>
	<circle cx="196" cy="361.5" r="14.3"/>
	<circle cx="196" cy="400" r="14.3"/>
	<circle cx="196" cy="438.5" r="14.3"/>
	<circle cx="196" cy="477" r="14.3"/>
	<circle cx="234.4" cy="323" r="14.3"/>
	<circle cx="234.4" cy="361.5" r="14.3"/>
	<circle cx="234.4" cy="400" r="14.3"/>
	<circle cx="234.4" cy="438.5" r="14.3"/>
	<circle cx="234.4" cy="477" r="14.3"/>
	<circle cx="272.9" cy="323" r="14.3"/>
	<circle cx="272.9" cy="361.5" r="14.3"/>
	<circle cx="272.9" cy="400" r="14.3"/>
	<circle cx="272.9" cy="438.5" r="14.3"/>
	<circle cx="272.9" cy="477" r="14.3"/>
	<circle cx="311.4" cy="323" r="14.3"/>
	<circle cx="311.4" cy="361.5" r="14.3"/>
	<circle cx="311.4" cy="400" r="14.3"/>
	<circle cx="311.4" cy="438.5" r="14.3"/>
	<circle cx="311.4" cy="477" r="14.3"/>
	<circle cx="349.9" cy="323" r="14.3"/>
	<circle cx="349.9" cy="361.5" r="14.3"/>
	<circle cx="349.9" cy="400" r="14.3"/>
	<circle cx="349.9" cy="438.5" r="14.3"/>
	<circle cx="349.9" cy="477" r="14.3"/>
	<circle cx="388.4" cy="323" r="14.3"/>
	<circle cx="388.4" cy="361.5" r="14.3"/>
	<circle cx="388.4" cy="400" r="14.3"/>
	<circle cx="388.4" cy="438.5" r="14.3"/>
	<circle cx="388.4" cy="477" r="14.3"/>
</g>
<g>
	<circle cx="426.8" cy="323" r="14.3"/>
	<circle cx="426.8" cy="361.5" r="14.3"/>
	<circle cx="426.8" cy="400" r="14.3"/>
	<circle cx="426.8" cy="438.5" r="14.3"/>
	<circle cx="426.8" cy="477" r="14.3"/>
	<circle cx="465.3" cy="323" r="14.3"/>
	<circle cx="465.3" cy="361.5" r="14.3"/>
	<circle cx="465.3" cy="400" r="14.3"/>
	<circle cx="465.3" cy="438.5" r="14.3"/>
	<circle cx="465.3" cy="477" r="14.3"/>
	<circle cx="503.8" cy="323" r="14.3"/>
	<circle cx="503.8" cy="361.5" r="14.3"/>
	<circle cx="503.8" cy="400" r="14.3"/>
	<circle cx="503.8" cy="438.5" r="14.3"/>
	<circle cx="503.8" cy="477" r="14.3"/>
	<circle cx="542.3" cy="323" r="14.3"/>
	<circle cx="542.3" cy="361.5" r="14.3"/>
	<circle cx="542.3" cy="400" r="14.3"/>
	<circle cx="542.3" cy="438.5" r="14.3"/>
	<circle cx="542.3" cy="477" r="14.3"/>
	<circle cx="580.8" cy="323" r="14.3"/>
	<circle cx="580.8" cy="361.5" r="14.3"/>
	<circle cx="580.8" cy="400" r="14.3"/>
	<circle cx="580.8" cy="438.5" r="14.3"/>
	<circle cx="580.8" cy="477" r="14.3"/>
	<circle cx="619.2" cy="323" r="14.3"/>
	<circle cx="619.2" cy="361.5" r="14.3"/>
	<circle cx="619.2" cy="400" r="14.3"/>
	<circle cx="619.2" cy="438.5" r="14.3"/>
	<circle cx="619.2" cy="477" r="14.3"/>
	<circle cx="657.7" cy="323" r="14.3"/>
	<circle cx="657.7" cy="361.5" r="14.3"/>
	<circle cx="657.7" cy="400" r="14.3"/>
	<circle cx="657.7" cy="438.5" r="14.3"/>
	<circle cx="657.7" cy="477" r="14.3"/>
	<circle cx="696.2" cy="323" r="14.3"/>
	<circle cx="696.2" cy="361.5" r="14.3"/>
	<circle cx="696.2" cy="400" r="14.3"/>
	<circle cx="696.2" cy="438.5" r="14.3"/>
	<circle cx="696.2" cy="477" r="14.3"/>
	<circle cx="734.7" cy="323" r="14.3"/>
	<circle cx="734.7" cy="361.5" r="14.3"/>
	<circle cx="734.7" cy="400" r="14.3"/>
	<circle cx="734.7" cy="438.5" r="14.3"/>
	<circle cx="734.7" cy="477" r="14.3"/>
	<circle cx="773.2" cy="323" r="14.3"/>
	<circle cx="773.2" cy="361.5" r="14.3"/>
	<circle cx="773.2" cy="400" r="14.3"/>
	<circle cx="773.2" cy="438.5" r="14.3"/>
	<circle cx="773.2" cy="477" r="14.3"/>
	<circle cx="811.6" cy="323" r="14.3"/>
	<circle cx="811.6" cy="361.5" r="14.3"/>
</g>
<g class="st0">
	<circle cx="811.6" cy="400" r="14.3"/>
	<circle cx="811.6" cy="438.5" r="14.3"/>
	<circle cx="811.6" cy="477" r="14.3"/>
	<circle cx="850.1" cy="323" r="14.3"/>
	<circle cx="850.1" cy="361.5" r="14.3"/>
	<circle cx="850.1" cy="400" r="14.3"/>
	<circle cx="850.1" cy="438.5" r="14.3"/>
	<circle cx="850.1" cy="477" r="14.3"/>
	<circle cx="888.6" cy="323" r="14.3"/>
	<circle cx="888.6" cy="361.5" r="14.3"/>
	<circle cx="888.6" cy="400" r="14.3"/>
	<circle cx="888.6" cy="438.5" r="14.3"/>
	<circle cx="888.6" cy="477" r="14.3"/>
	<circle cx="927.1" cy="323" r="14.3"/>
	<circle cx="927.1" cy="361.5" r="14.3"/>
	<circle cx="927.1" cy="400" r="14.3"/>
	<circle cx="927.1" cy="438.5" r="14.3"/>
	<circle cx="927.1" cy="477" r="14.3"/>
	<circle cx="965.6" cy="323" r="14.3"/>
	<circle cx="965.6" cy="361.5" r="14.3"/>
	<circle cx="965.6" cy="400" r="14.3"/>
	<circle cx="965.6" cy="438.5" r="14.3"/>
	<circle cx="965.6" cy="477" r="14.3"/>
	<circle cx="1004" cy="323" r="14.3"/>
	<circle cx="1004" cy="361.5" r="14.3"/>
	<circle cx="1004" cy="400" r="14.3"/>
	<circle cx="1004" cy="438.5" r="14.3"/>
	<circle cx="1004" cy="477" r="14.3"/>
	<circle cx="1042.5" cy="323" r="14.3"/>
	<circle cx="1042.5" cy="361.5" r="14.3"/>
	<circle cx="1042.5" cy="400" r="14.3"/>
	<circle cx="1042.5" cy="438.5" r="14.3"/>
	<circle cx="1042.5" cy="477" r="14.3"/>
	<circle cx="1081" cy="323" r="14.3"/>
	<circle cx="1081" cy="361.5" r="14.3"/>
	<circle cx="1081" cy="400" r="14.3"/>
	<circle cx="1081" cy="438.5" r="14.3"/>
	<circle cx="1081" cy="477" r="14.3"/>
	<circle cx="1119.5" cy="323" r="14.3"/>
	<circle cx="1119.5" cy="361.5" r="14.3"/>
	<circle cx="1119.5" cy="400" r="14.3"/>
	<circle cx="1119.5" cy="438.5" r="14.3"/>
	<circle cx="1119.5" cy="477" r="14.3"/>
	<circle cx="1158" cy="323" r="14.3"/>
	<circle cx="1158" cy="361.5" r="14.3"/>
	<circle cx="1158" cy="400" r="14.3"/>
	<circle cx="1158" cy="438.5" r="14.3"/>
	<circle cx="1158" cy="477" r="14.3"/>
</g>
</svg>
