<svg xmlns="http://www.w3.org/2000/svg" xmlns:xlink="http://www.w3.org/1999/xlink" width="756.735" height="301.105" viewBox="0 0 756.735 301.105"><path d="M167.268 130.491h511.719l-34.037 98.853H133.23z"/><path fill="#FFF" d="M172.586 37.883h582.747l-33.426 97.077H139.16z"/><path fill="none" stroke="#000" stroke-width="2" d="M139.16 134.96h582.747l33.426-97.076H172.586z"/><path d="M336.171 167.622c-5.858-2.495-11.774-3.743-17.745-3.743-5.183 0-7.772 1.728-7.772 5.183 0 2.879 2.28 4.967 6.844 6.263 7.772 2.016 13.167 4.366 16.181 7.054s4.521 6.216 4.521 10.581c0 10.317-7.662 15.476-22.983 15.476-6.536 0-12.366-1.247-17.491-3.743v-10.437c5.294 3.071 10.843 4.605 16.646 4.605 2.984 0 5.252-.49 6.802-1.476 1.548-.982 2.323-2.387 2.323-4.211 0-1.583-.536-2.879-1.605-3.887-1.069-1.009-2.929-1.871-5.576-2.592-7.099-1.919-12.225-4.307-15.378-7.161-3.155-2.854-4.731-6.347-4.731-10.474 0-4.51 1.844-8.072 5.534-10.688 3.689-2.614 8.97-3.923 15.843-3.923 7.153 0 13.351.961 18.589 2.88v10.293h-.002zm55.345-12.452v10.147h-16.308v42.396h-14.703v-42.396h-16.308V155.17h47.319zm22.137 33.109v19.436h-14.111v-52.186c6.139-.72 12.898-1.079 20.279-1.079 8.449 0 14.744 1.355 18.885 4.066 4.141 2.712 6.211 6.563 6.211 11.553 0 3.216-1.1 6.106-3.295 8.674-2.197 2.567-5.1 4.402-8.703 5.507v.144c2.928 1.394 5.322 4.247 7.182 8.565l6.508 14.756h-14.787l-5.83-14.252c-.791-2.017-1.748-3.383-2.873-4.104-1.129-.72-2.873-1.08-5.24-1.08h-4.226zm0-8.997h4.73c3.941 0 6.957-.707 9.041-2.123 2.084-1.415 3.127-3.396 3.127-5.938 0-4.99-3.859-7.485-11.576-7.485-2.027 0-3.803.145-5.322.433v15.113zm38.191 28.432l20.025-52.544h15.211l19.941 52.544H491.81l-3.381-11.373h-18.336l-3.295 11.373h-14.954zm21.041-20.658h12.76l-6.254-21.306h-.17l-6.336 21.306zm41.065 20.658V155.17h13.771l19.941 32.246h.168V155.17h13.688v52.544H547.83l-19.941-32.246h-.168v32.246H513.95zm54.5 0l20.023-52.544h15.211l19.941 52.544h-15.211l-3.379-11.373H586.7l-3.295 11.373H568.45zm21.039-20.658h12.76l-6.254-21.306h-.168l-6.338 21.306z" fill="#FFF"/><defs><path id="a" d="M1 135.231c0 74.135 60.097 134.23 134.231 134.23 73.695 0 133.519-59.392 134.225-132.919v-2.624C268.75 60.392 208.926 1 135.231 1 61.097 1 1 61.099 1 135.231"/></defs><clipPath id="b"><use xlink:href="#a" overflow="visible"/></clipPath><path clip-path="url(#b)" fill="#FFF" d="M135.23 269.463c74.132 0 134.225-60.098 134.225-134.229 0-74.136-60.093-134.231-134.225-134.231S.998 61.098.998 135.233c0 74.132 60.101 134.23 134.232 134.23"/><defs><path id="c" d="M85.39 10.559C51.413 24.153 24.291 51.237 10.64 85.186v100.092c13.595 33.81 40.551 60.813 74.333 74.461h100.515c33.782-13.651 60.741-40.651 74.334-74.464V85.188c-13.65-33.954-40.771-61.034-74.75-74.63l-99.682.001z"/></defs><clipPath id="d"><use xlink:href="#c" overflow="visible"/></clipPath><path clip-path="url(#d)" fill="#FFF" d="M135.232 252.802c-64.979 0-117.656-52.677-117.656-117.656 0-64.979 52.677-117.655 117.656-117.655s117.656 52.676 117.656 117.654c0 64.979-52.676 117.657-117.656 117.657"/><defs><path id="e" d="M85.39 10.559C51.413 24.153 24.291 51.237 10.64 85.186v100.092c13.595 33.81 40.551 60.813 74.333 74.461h100.515c33.782-13.651 60.741-40.651 74.334-74.464V85.188c-13.65-33.954-40.771-61.034-74.75-74.63l-99.682.001z"/></defs><clipPath id="f"><use xlink:href="#e" overflow="visible"/></clipPath><circle clip-path="url(#f)" fill="none" stroke="#000" stroke-width="11.738" cx="135.232" cy="135.146" r="117.656"/><defs><path id="g" d="M85.39 10.559C51.413 24.153 24.291 51.237 10.64 85.186v100.092c13.595 33.81 40.551 60.813 74.333 74.461h100.515c33.782-13.651 60.741-40.651 74.334-74.464V85.188c-13.65-33.954-40.771-61.034-74.75-74.63l-99.682.001z"/></defs><clipPath id="h"><use xlink:href="#g" overflow="visible"/></clipPath><path clip-path="url(#h)" d="M76.342 70.388c12.947-3.775 67.545 3.657 56.389 56.47-4.06 19.223-26.338 28.585-37.132 36.674-25.562 19.139-3.549 64.601-3.549 64.601s-11.909-35.361 14.612-52.091c24.396-15.393 108.515-8.158 108.227-55.632-.551-90.961-142.286-58.149-138.547-50.022"/><defs><path id="i" d="M85.39 10.559C51.413 24.153 24.291 51.237 10.64 85.186v100.092c13.595 33.81 40.551 60.813 74.333 74.461h100.515c33.782-13.651 60.741-40.651 74.334-74.464V85.188c-13.65-33.954-40.771-61.034-74.75-74.63l-99.682.001z"/></defs><clipPath id="j"><use xlink:href="#i" overflow="visible"/></clipPath><path clip-path="url(#j)" d="M87.229 44.373h10.783v133.732H87.229z"/><defs><path id="k" d="M0 0h756.676v313.566H0z"/></defs><clipPath id="l"><use xlink:href="#k" overflow="visible"/></clipPath><circle clip-path="url(#l)" fill="none" stroke="#000" stroke-width="2" cx="135.231" cy="135.232" r="134.231"/><defs><path id="m" d="M0 0h756.676v313.566H0z"/></defs><clipPath id="n"><use xlink:href="#m" overflow="visible"/></clipPath><g clip-path="url(#n)"><path d="M312.414 100.137v17.303h-16.477V62.419c5.858-.759 12.054-1.139 18.589-1.139 19.151 0 28.729 6.197 28.729 18.594 0 6.729-2.155 11.827-6.464 15.292-4.31 3.466-10.604 5.198-18.885 5.198-2.197.001-4.028-.076-5.492-.227zm0-11.005c1.126.152 2.394.229 3.802.229 3.661 0 6.479-.76 8.45-2.276 1.971-1.519 2.958-3.667 2.958-6.45 0-5.313-3.802-7.969-11.407-7.969-1.24 0-2.507.127-3.802.38l-.001 16.086zm36.417 28.307v-55.4h18.589v55.399h-18.589zm45.459-19.352v19.353h-16.477V62.419a212.915 212.915 0 0 1 21.969-1.139c16.898 0 25.35 5.691 25.35 17.074 0 3.188-1.1 6.147-3.297 8.88-2.195 2.731-5.041 4.681-8.533 5.844v.151c1.689.86 3.098 1.961 4.225 3.302 1.127 1.342 2.197 3.252 3.211 5.729l6.084 15.178H409.5l-5.238-14.419c-.621-1.771-1.406-3.036-2.363-3.795-.959-.759-2.229-1.139-3.805-1.139l-3.804.002zm0-11.004h4.646c2.873 0 5.141-.646 6.803-1.936 1.66-1.291 2.492-3.048 2.492-5.273 0-4.808-3.1-7.21-9.295-7.21-1.805 0-3.354.127-4.646.38v14.039zm56.019 19.731l-2.617 10.625h-17.576L449.55 62.04h17.744l19.436 55.399h-17.912l-2.621-10.625h-15.888zm11.492-49.328h-13.52l8.449-13.66h18.59l-13.519 13.66zm-8.703 37.946h10.309l-5.068-20.491h-.17l-5.071 20.491zm78.412-33.393V74.56h-15.885v42.878h-17.238V74.562h-15.885V62.039h49.008zm47.149 14.648c-6.197-2.528-12.252-3.795-18.166-3.795-4.621 0-6.93 1.442-6.93 4.326 0 2.53 1.887 4.301 5.66 5.313 7.887 2.073 13.379 4.553 16.479 7.437 3.098 2.884 4.646 6.729 4.646 11.536 0 11.131-8.027 16.695-24.082 16.695-6.984 0-13.041-1.392-18.166-4.175v-12.521c5.406 3.289 11.182 4.933 17.32 4.933 5.07 0 7.605-1.518 7.605-4.554 0-1.416-.396-2.504-1.184-3.264-.789-.76-2.227-1.441-4.311-2.05-7.492-2.072-12.885-4.667-16.182-7.777-3.295-3.111-4.941-6.969-4.941-11.573 0-4.958 1.984-8.854 5.957-11.688 3.971-2.833 9.729-4.25 17.277-4.25 7.438 0 13.773 1.013 19.014 3.035v12.37h.004zm26.447 8.878h.17l14.193-23.525h19.436l-17.744 26.562 18.59 28.839h-19.434l-15.041-25.803h-.17v25.803h-16.898V62.04h16.898v23.525zm57.711 21.249l-2.619 10.625h-17.576l19.436-55.399h17.744l19.436 55.399h-17.914l-2.619-10.625h-15.888zm11.492-49.328h-13.52l8.449-13.66h18.59l-13.519 13.66zm-8.703 37.946h10.309l-5.07-20.491h-.168l-5.071 20.491z"/></g></svg>