<?xml version="1.0" encoding="utf-8"?>
<!-- Generator: Adobe Illustrator 21.1.0, SVG Export Plug-In . SVG Version: 6.00 Build 0)  -->
<svg version="1.1" id="Vrstva_1" xmlns="http://www.w3.org/2000/svg" xmlns:xlink="http://www.w3.org/1999/xlink" x="0px" y="0px"
	 viewBox="0 0 52.2 55.2" style="enable-background:new 0 0 52.2 55.2;" xml:space="preserve">
<style type="text/css">
	.st0{fill:none;}
</style>
<g>
	<path d="M24.7,7.2c-5.9,0-11.4,2.3-15.5,6.4C5,17.7,2.7,23.3,2.7,29.1C2.7,35,5,40.5,9.1,44.7c4.2,4.1,9.7,6.4,15.5,6.4
		c5.9,0,11.4-2.3,15.5-6.4c4.2-4.1,6.4-9.7,6.4-15.5c0-5.9-2.3-11.4-6.4-15.5C36.1,9.4,30.6,7.2,24.7,7.2 M24.7,49
		c-11,0-19.9-8.9-19.9-19.9c0-11,8.9-19.9,19.9-19.9c11,0,19.9,8.9,19.9,19.9C44.6,40.1,35.7,49,24.7,49"/>
	<path d="M18.1,16.1V13h-1.9v3.6c-1.3,0.4-2.1,0.8-1.9,1.1c0.4-0.1,1.1-0.2,1.9-0.1V36c-2,3.8,0.9,9.7,0.9,9.7s-2.1-6.3,2.6-9.3
		c4.3-2.7,19.3-1.5,19.2-9.9C38.8,14.6,25,14.6,18.1,16.1 M24.2,27.7c-0.7,3.2-4.1,4.8-6.2,6.2V17.8C21.5,18.6,25.6,21.3,24.2,27.7"
		/>
</g>
<rect class="st0" width="52.2" height="55.2"/>
</svg>
