<?xml version="1.0" encoding="utf-8"?>
<svg id="Vrstva_1" xmlns="http://www.w3.org/2000/svg" xmlns:xlink="http://www.w3.org/1999/xlink" viewBox="0 0 172 55.2">
  <style>
    .st0{clip-path:url(#SVGID_2_);fill:#FFFFFF;} .st1{fill:#FFFFFF;} .st2{clip-path:url(#SVGID_4_);fill:#FFFFFF;} .st3{clip-path:url(#SVGID_6_);fill:#FFFFFF;} .st4{clip-path:url(#SVGID_8_);fill:#FFFFFF;} .st5{clip-path:url(#SVGID_10_);fill:#FFFFFF;}
  </style>
  <defs>
    <path id="SVGID_1_" d="M2.7 4.4H168v46.7H2.7z"/>
  </defs>
  <clipPath id="SVGID_2_">
    <use xlink:href="#SVGID_1_" overflow="visible"/>
  </clipPath>
  <path class="st0" d="M24.7 7.2c-5.9 0-11.4 2.3-15.5 6.4-4.2 4.1-6.5 9.7-6.5 15.5C2.7 35 5 40.5 9.1 44.7c4.2 4.1 9.7 6.4 15.5 6.4 5.9 0 11.4-2.3 15.5-6.4 4.2-4.1 6.4-9.7 6.4-15.5 0-5.9-2.3-11.4-6.4-15.5-4-4.3-9.5-6.5-15.4-6.5m0 41.8c-11 0-19.9-8.9-19.9-19.9 0-11 8.9-19.9 19.9-19.9 11 0 19.9 8.9 19.9 19.9 0 11-8.9 19.9-19.9 19.9"/>
  <path class="st0" d="M18.1 16.1V13h-1.9v3.6c-1.3.4-2.1.8-1.9 1.1.4-.1 1.1-.2 1.9-.1V36c-2 3.8.9 9.7.9 9.7s-2.1-6.3 2.6-9.3c4.3-2.7 19.3-1.5 19.2-9.9-.1-11.9-13.9-11.9-20.8-10.4m6.1 11.6c-.7 3.2-4.1 4.8-6.2 6.2V17.8c3.5.8 7.6 3.5 6.2 9.9M59.9 9.6c-1.8 0-3.4.1-5 .3v16.4h4.4v-5.2c.4 0 .9.1 1.5.1 2.2 0 3.9-.5 5.1-1.6 1.2-1 1.7-2.6 1.7-4.6 0-3.5-2.5-5.4-7.7-5.4m2.8 7.7c-.5.5-1.3.7-2.3.7-.4 0-.7 0-1-.1v-4.8c.3-.1.7-.1 1-.1 2 0 3.1.8 3.1 2.4 0 .8-.3 1.5-.8 1.9"/>
  <path class="st1" d="M69.7 9.8h5v16.5h-5z"/>
  <defs>
    <path id="SVGID_3_" d="M2.7 4.4H168v46.7H2.7z"/>
  </defs>
  <clipPath id="SVGID_4_">
    <use xlink:href="#SVGID_3_" overflow="visible"/>
  </clipPath>
  <path class="st2" d="M86.4 26.4H91l-1.6-4.5c-.3-.7-.6-1.3-.9-1.7-.3-.4-.7-.7-1.1-1 .9-.3 1.7-.9 2.3-1.7.6-.8.9-1.7.9-2.7 0-3.4-2.3-5.1-6.8-5.1-2 0-3.9.1-5.9.3v16.4h4.4v-5.8h1c.4 0 .8.1 1 .3.3.2.5.6.6 1.1l1.5 4.4zm-2.8-9.1h-1.2v-4.2c.3-.1.8-.1 1.2-.1 1.7 0 2.5.7 2.5 2.2 0 .7-.2 1.2-.7 1.6-.4.3-1 .5-1.8.5"/>
  <path class="st1" d="M97.5 23.2h4.6l.8 3.2h4.8l-5.4-16.6h-4.8L92 26.4h4.7l.8-3.2zm2.3-9.5l1.5 6.1h-3l1.5-6.1zM104.4 4.4h-5l-2.3 4.1h3.7zM111.9 26.4h4.6V13.6h4.5V9.8h-13.6v3.8h4.5z"/>
  <defs>
    <path id="SVGID_5_" d="M2.7 4.4H168v46.7H2.7z"/>
  </defs>
  <clipPath id="SVGID_6_">
    <use xlink:href="#SVGID_5_" overflow="visible"/>
  </clipPath>
  <path class="st3" d="M128.3 23.1c-.8 0-1.6-.2-2.5-.5-.9-.3-1.7-.7-2.5-1.2l-1 3.5c.7.5 1.6.9 2.7 1.2 1.1.3 2.1.5 3.1.5 2.3 0 4-.4 5.2-1.3 1.1-.9 1.7-2.1 1.7-3.8 0-1.4-.5-2.5-1.5-3.4-1-.9-2.6-1.6-5-2.3-1-.3-1.5-.7-1.5-1.4 0-.4.2-.7.5-1 .4-.2.9-.4 1.6-.4 1.6 0 3.1.4 4.7 1.1l.8-3.5c-1.5-.8-3.4-1.1-5.7-1.1-2.1 0-3.7.4-4.9 1.3-1.2.9-1.7 2.1-1.7 3.6 0 1.4.5 2.5 1.4 3.4.9.9 2.5 1.7 4.7 2.3 1.2.3 1.8.8 1.8 1.5.1 1-.6 1.5-1.9 1.5"/>
  <path class="st1" d="M151.5 9.8h-5.3l-4.2 7.1h-.1V9.8h-4.5v16.6h4.5v-7.7h.1l4.5 7.7h5.2l-5.5-8.6zM164.8 4.4h-5l-2.3 4.1h3.6zM162.6 9.8h-4.8l-5.4 16.5h4.7l.8-3.2h4.6l.8 3.2h4.8l-5.5-16.5zm-3.9 10l1.5-6.1 1.5 6.1h-3z"/>
  <g>
    <defs>
      <path id="SVGID_7_" d="M2.7 4.4H168v46.7H2.7z"/>
    </defs>
    <clipPath id="SVGID_8_">
      <use xlink:href="#SVGID_7_" overflow="visible"/>
    </clipPath>
    <path class="st4" d="M60.6 38.2c-1-.3-1.5-.7-1.5-1.4 0-.4.2-.7.5-1 .4-.2.9-.4 1.6-.4 1.6 0 3.1.4 4.7 1.1l.8-3.5c-1.5-.8-3.4-1.1-5.7-1.1-2.1 0-3.7.4-4.9 1.3-1.2.9-1.7 2.1-1.7 3.6 0 1.4.5 2.5 1.4 3.4.9.9 2.5 1.7 4.7 2.3 1.2.3 1.8.8 1.8 1.5 0 1-.7 1.5-2 1.5-.8 0-1.6-.1-2.5-.5-.9-.3-1.7-.7-2.5-1.2l-1 3.5c.7.5 1.6.9 2.7 1.2 1.1.3 2.1.5 3.1.5 2.3 0 4-.4 5.2-1.3 1.1-.9 1.7-2.1 1.7-3.8 0-1.4-.5-2.5-1.5-3.4-.8-.9-2.5-1.6-4.9-2.3"/>
  </g>
  <path class="st1" d="M68.5 36H73v12.8h4.6V36h4.5v-3.8H68.5z"/>
  <g>
    <defs>
      <path id="SVGID_9_" d="M2.7 4.4H168v46.7H2.7z"/>
    </defs>
    <clipPath id="SVGID_10_">
      <use xlink:href="#SVGID_9_" overflow="visible"/>
    </clipPath>
    <path class="st5" d="M95.2 42.5c-.3-.4-.7-.7-1.1-1 .9-.3 1.7-.9 2.3-1.7.6-.8.9-1.7.9-2.7 0-3.4-2.3-5.1-6.8-5.1-2 0-3.9.1-5.9.3v16.4H89V43h1c.4 0 .8.1 1 .3.3.2.5.6.6 1.1l1.4 4.3h4.6L96 44.2c-.2-.7-.5-1.3-.8-1.7M92 39.1c-.4.4-1.1.6-1.8.6H89v-4.2c.3-.1.8-.1 1.2-.1 1.7 0 2.5.7 2.5 2.2 0 .6-.2 1.1-.7 1.5"/>
  </g>
  <path class="st1" d="M104.3 32.2l-5.4 16.5h4.7l.7-3.2h4.6l.8 3.2h4.8L109 32.2h-4.7zm.8 10l1.5-6.1 1.5 6.1h-3zM125.8 41.3h-.1l-4.9-9.1h-4.5v16.6h4.5v-9.1l5 9.1h4.4V32.2h-4.4zM137.5 32.2L132 48.8h4.7l.8-3.2h4.6l.8 3.2h4.8l-5.4-16.5h-4.8zm.8 10l1.5-6.1 1.5 6.1h-3z"/>
</svg>
