<?xml version="1.0" encoding="utf-8"?>
<!-- Generator: Adobe Illustrator 15.0.0, SVG Export Plug-In . SVG Version: 6.00 Build 0)  -->
<!DOCTYPE svg PUBLIC "-//W3C//DTD SVG 1.1//EN" "http://www.w3.org/Graphics/SVG/1.1/DTD/svg11.dtd">
<svg version="1.1" id="Vrstva_1" xmlns="http://www.w3.org/2000/svg" xmlns:xlink="http://www.w3.org/1999/xlink" x="0px" y="0px"
	 width="172px" height="55.25px" viewBox="0 0 172 55.25" enable-background="new 0 0 172 55.25" xml:space="preserve">
<g>
	<defs>
		<rect id="SVGID_1_" x="2.716" y="4.385" width="165.333" height="46.715"/>
	</defs>
	<clipPath id="SVGID_2_">
		<use xlink:href="#SVGID_1_"  overflow="visible"/>
	</clipPath>
	<path clip-path="url(#SVGID_2_)" d="M24.691,7.159c-5.866,0-11.384,2.289-15.542,6.438c-4.147,4.149-6.435,9.669-6.435,15.535
		c0,5.876,2.287,11.396,6.435,15.539c4.158,4.147,9.675,6.429,15.542,6.429c5.87,0,11.384-2.281,15.531-6.429
		c4.158-4.144,6.44-9.663,6.44-15.539c0-5.866-2.282-11.386-6.44-15.535C36.076,9.447,30.562,7.159,24.691,7.159 M24.691,49.016
		c-10.965,0-19.885-8.915-19.885-19.884c0-10.962,8.919-19.88,19.885-19.88c10.961,0,19.883,8.918,19.883,19.88
		C44.575,40.101,35.652,49.016,24.691,49.016"/>
	<path clip-path="url(#SVGID_2_)" d="M18.068,16.063v-3.077h-1.921v3.552c-1.301,0.401-2.056,0.815-1.932,1.069
		c0.431-0.118,1.115-0.169,1.932-0.121v18.495c-1.962,3.833,0.861,9.698,0.861,9.698s-2.124-6.299,2.6-9.272
		c4.337-2.732,19.302-1.451,19.246-9.894C38.789,14.551,24.986,14.622,18.068,16.063 M24.245,27.66
		c-0.673,3.185-4.147,4.845-6.177,6.224V17.779C21.527,18.609,25.593,21.268,24.245,27.66"/>
	<path clip-path="url(#SVGID_2_)" d="M59.936,9.602c-1.753,0-3.416,0.112-4.987,0.344v16.436h4.42v-5.167
		c0.393,0.042,0.884,0.066,1.474,0.066c2.222,0,3.912-0.517,5.071-1.554c1.153-1.033,1.733-2.559,1.733-4.569
		C67.647,11.456,65.076,9.602,59.936,9.602 M62.658,17.311c-0.529,0.455-1.288,0.682-2.268,0.682c-0.379,0-0.718-0.021-1.021-0.068
		v-4.804c0.346-0.079,0.688-0.114,1.021-0.114c2.04,0,3.061,0.794,3.061,2.38C63.451,16.214,63.187,16.861,62.658,17.311"/>
</g>
<rect x="69.733" y="9.832" width="4.987" height="16.55"/>
<g>
	<defs>
		<rect id="SVGID_3_" x="2.716" y="4.385" width="165.333" height="46.715"/>
	</defs>
	<clipPath id="SVGID_4_">
		<use xlink:href="#SVGID_3_"  overflow="visible"/>
	</clipPath>
	<path clip-path="url(#SVGID_4_)" d="M86.441,26.381h4.648l-1.63-4.536c-0.272-0.734-0.561-1.307-0.863-1.708
		c-0.3-0.398-0.682-0.729-1.135-0.986v-0.045c0.938-0.348,1.704-0.932,2.295-1.744c0.588-0.819,0.885-1.704,0.885-2.654
		c0-3.401-2.269-5.104-6.805-5.104c-1.967,0-3.933,0.114-5.897,0.342v16.435h4.423v-5.778h1.019c0.423,0,0.765,0.114,1.022,0.337
		c0.257,0.229,0.467,0.603,0.634,1.136L86.441,26.381z M83.61,17.31h-1.248v-4.188c0.344-0.078,0.761-0.112,1.248-0.112
		c1.658,0,2.494,0.717,2.494,2.153c0,0.662-0.225,1.186-0.669,1.574C84.986,17.12,84.377,17.31,83.61,17.31"/>
</g>
<path d="M97.507,23.208h4.603l0.772,3.174h4.806l-5.441-16.553h-4.76l-5.441,16.553h4.714L97.507,23.208z M99.797,13.685h0.046
	l1.474,6.125h-2.993L99.797,13.685z"/>
<polygon points="104.399,4.385 99.411,4.385 97.144,8.473 100.77,8.473 "/>
<polygon points="111.863,26.382 116.488,26.382 116.488,13.572 120.975,13.572 120.975,9.832 107.37,9.832 107.37,13.572 
	111.863,13.572 "/>
<g>
	<defs>
		<rect id="SVGID_5_" x="2.716" y="4.385" width="165.333" height="46.715"/>
	</defs>
	<clipPath id="SVGID_6_">
		<use xlink:href="#SVGID_5_"  overflow="visible"/>
	</clipPath>
	<path clip-path="url(#SVGID_6_)" d="M128.277,23.097c-0.756,0-1.586-0.152-2.482-0.458c-0.898-0.302-1.734-0.717-2.506-1.24
		l-1.021,3.508c0.668,0.486,1.555,0.893,2.668,1.215c1.109,0.327,2.148,0.486,3.117,0.486c2.309,0,4.041-0.43,5.189-1.301
		c1.148-0.87,1.725-2.133,1.725-3.798c0-1.377-0.484-2.506-1.455-3.39c-0.965-0.885-2.635-1.644-5.008-2.278
		c-0.982-0.27-1.475-0.726-1.475-1.36c0-0.411,0.184-0.735,0.547-0.989c0.365-0.249,0.898-0.371,1.605-0.371
		c1.574,0,3.125,0.38,4.65,1.13l0.793-3.51c-1.541-0.758-3.426-1.138-5.666-1.138c-2.088,0-3.705,0.442-4.854,1.316
		c-1.15,0.877-1.723,2.064-1.723,3.562c0,1.36,0.467,2.487,1.406,3.379c0.936,0.891,2.508,1.653,4.715,2.288
		c1.211,0.348,1.814,0.837,1.814,1.475C130.318,22.603,129.637,23.097,128.277,23.097"/>
</g>
<polygon points="151.451,9.832 146.236,9.832 141.971,16.861 141.928,16.861 141.928,9.832 137.391,9.832 137.391,26.382 
	141.928,26.382 141.928,18.674 141.971,18.674 146.463,26.382 151.676,26.382 146.236,17.766 "/>
<polygon points="164.762,4.385 159.771,4.385 157.502,8.473 161.133,8.473 "/>
<path d="M162.607,9.832h-4.76l-5.445,16.55h4.715l0.75-3.174h4.602l0.771,3.174h4.809L162.607,9.832z M158.682,19.808l1.475-6.125
	h0.045l1.475,6.125H158.682z"/>
<g>
	<defs>
		<rect id="SVGID_7_" x="2.716" y="4.385" width="165.333" height="46.715"/>
	</defs>
	<clipPath id="SVGID_8_">
		<use xlink:href="#SVGID_7_"  overflow="visible"/>
	</clipPath>
	<path clip-path="url(#SVGID_8_)" d="M60.617,38.221c-0.982-0.27-1.476-0.726-1.476-1.36c0-0.407,0.184-0.733,0.545-0.987
		c0.363-0.249,0.901-0.372,1.608-0.372c1.575,0,3.122,0.378,4.651,1.129l0.792-3.508c-1.541-0.76-3.43-1.14-5.667-1.14
		c-2.085,0-3.707,0.442-4.851,1.319c-1.151,0.876-1.724,2.062-1.724,3.559c0,1.36,0.467,2.487,1.406,3.38
		c0.937,0.892,2.509,1.652,4.716,2.287c1.207,0.349,1.812,0.839,1.812,1.474c0,0.986-0.678,1.476-2.038,1.476
		c-0.756,0-1.583-0.148-2.483-0.456c-0.9-0.304-1.735-0.715-2.507-1.242l-1.019,3.509c0.665,0.486,1.553,0.891,2.665,1.215
		c1.111,0.327,2.149,0.489,3.118,0.489c2.31,0,4.042-0.432,5.19-1.303c1.15-0.871,1.726-2.135,1.726-3.798
		c0-1.375-0.485-2.507-1.454-3.392C64.661,39.612,62.989,38.858,60.617,38.221"/>
</g>
<polygon points="68.483,35.953 72.978,35.953 72.978,48.763 77.603,48.763 77.603,35.953 82.089,35.953 82.089,32.213 
	68.483,32.213 "/>
<g>
	<defs>
		<rect id="SVGID_9_" x="2.716" y="4.385" width="165.333" height="46.715"/>
	</defs>
	<clipPath id="SVGID_10_">
		<use xlink:href="#SVGID_9_"  overflow="visible"/>
	</clipPath>
	<path clip-path="url(#SVGID_10_)" d="M95.178,42.517c-0.304-0.398-0.684-0.73-1.141-0.984v-0.046
		c0.939-0.345,1.703-0.93,2.291-1.745c0.592-0.816,0.885-1.701,0.885-2.652c0-3.403-2.266-5.104-6.801-5.104
		c-1.967,0-3.929,0.113-5.896,0.345v16.435h4.422v-5.779h1.021c0.422,0,0.765,0.112,1.02,0.338c0.257,0.227,0.469,0.604,0.636,1.134
		l1.405,4.308h4.646l-1.631-4.537C95.765,43.489,95.476,42.918,95.178,42.517 M92.008,39.117c-0.44,0.388-1.051,0.576-1.824,0.576
		h-1.246v-4.192c0.347-0.08,0.762-0.113,1.246-0.113c1.662,0,2.497,0.717,2.497,2.152C92.681,38.204,92.457,38.732,92.008,39.117"/>
</g>
<path d="M104.287,32.213l-5.439,16.55h4.713l0.748-3.174h4.605l0.772,3.174h4.8l-5.438-16.55H104.287z M105.125,42.188l1.475-6.123
	h0.047l1.475,6.123H105.125z"/>
<polygon points="125.762,41.282 125.713,41.282 120.771,32.211 116.35,32.211 116.35,48.764 120.771,48.764 120.771,39.691 
	120.818,39.691 125.762,48.764 130.182,48.764 130.182,32.211 125.762,32.211 "/>
<path d="M137.484,32.213l-5.443,16.55h4.717l0.75-3.174h4.596l0.773,3.174h4.812l-5.441-16.55H137.484z M138.322,42.188l1.473-6.123
	h0.043l1.475,6.123H138.322z"/>
</svg>
