<?xml version="1.0" encoding="utf-8"?>
<!-- Generator: Adobe Illustrator 21.1.0, SVG Export Plug-In . SVG Version: 6.00 Build 0)  -->
<svg version="1.1" id="Vrstva_1" xmlns="http://www.w3.org/2000/svg" xmlns:xlink="http://www.w3.org/1999/xlink" x="0px" y="0px"
	 viewBox="0 0 127.6 99.2" style="enable-background:new 0 0 127.6 99.2;" xml:space="preserve">
<style type="text/css">
	.st0{fill:none;stroke:#FFFFFF;stroke-width:3.8514;}
	.st1{fill:#FFFFFF;}
</style>
<path id="path2827" inkscape:connector-curvature="0" class="st0" d="M64.2,88c-21.3,0-38.6-17.3-38.6-38.6
	c0-21.3,17.3-38.6,38.6-38.6c21.3,0,38.6,17.3,38.6,38.6C102.8,70.7,85.5,88,64.2,88z"/>
<path id="path8" inkscape:connector-curvature="0" class="st1" d="M44.9,28.2c4.2-1.2,22.2,1.2,18.5,18.5c-1.3,6.3-8.6,9.4-12.2,12
	C42.8,65,50,79.9,50,79.9s-3.9-11.6,4.8-17.1c8-5,35.6-2.7,35.5-18.3C90.1,14.7,43.6,25.5,44.9,28.2z"/>
<rect id="rect10" x="48.4" y="19.6" class="st1" width="3.5" height="43.9"/>
</svg>
