<?xml version="1.0" encoding="utf-8"?>
<!-- Generator: Adobe Illustrator 21.1.0, SVG Export Plug-In . SVG Version: 6.00 Build 0)  -->
<svg version="1.1" id="Vrstva_1" xmlns="http://www.w3.org/2000/svg" xmlns:xlink="http://www.w3.org/1999/xlink" x="0px" y="0px"
	 viewBox="0 0 172 55.2" style="enable-background:new 0 0 172 55.2;" xml:space="preserve">
<style type="text/css">
	.st0{clip-path:url(#SVGID_2_);fill:#FFFFFF;}
	.st1{fill:#FFFFFF;}
	.st2{clip-path:url(#SVGID_4_);fill:#FFFFFF;}
	.st3{clip-path:url(#SVGID_6_);fill:#FFFFFF;}
	.st4{clip-path:url(#SVGID_8_);fill:#FFFFFF;}
	.st5{clip-path:url(#SVGID_10_);fill:#FFFFFF;}
</style>
<g>
	<defs>
		<rect id="SVGID_1_" x="2.7" y="4.4" width="165.3" height="46.7"/>
	</defs>
	<clipPath id="SVGID_2_">
		<use xlink:href="#SVGID_1_"  style="overflow:visible;"/>
	</clipPath>
	<path class="st0" d="M24.7,7.2c-5.9,0-11.4,2.3-15.5,6.4C5,17.7,2.7,23.3,2.7,29.1C2.7,35,5,40.5,9.1,44.7
		c4.2,4.1,9.7,6.4,15.5,6.4c5.9,0,11.4-2.3,15.5-6.4c4.2-4.1,6.4-9.7,6.4-15.5c0-5.9-2.3-11.4-6.4-15.5C36.1,9.4,30.6,7.2,24.7,7.2
		 M24.7,49c-11,0-19.9-8.9-19.9-19.9c0-11,8.9-19.9,19.9-19.9c11,0,19.9,8.9,19.9,19.9C44.6,40.1,35.7,49,24.7,49"/>
	<path class="st0" d="M18.1,16.1V13h-1.9v3.6c-1.3,0.4-2.1,0.8-1.9,1.1c0.4-0.1,1.1-0.2,1.9-0.1V36c-2,3.8,0.9,9.7,0.9,9.7
		s-2.1-6.3,2.6-9.3c4.3-2.7,19.3-1.5,19.2-9.9C38.8,14.6,25,14.6,18.1,16.1 M24.2,27.7c-0.7,3.2-4.1,4.8-6.2,6.2V17.8
		C21.5,18.6,25.6,21.3,24.2,27.7"/>
	<path class="st0" d="M59.9,9.6c-1.8,0-3.4,0.1-5,0.3v16.4h4.4v-5.2c0.4,0,0.9,0.1,1.5,0.1c2.2,0,3.9-0.5,5.1-1.6
		c1.2-1,1.7-2.6,1.7-4.6C67.6,11.5,65.1,9.6,59.9,9.6 M62.7,17.3c-0.5,0.5-1.3,0.7-2.3,0.7c-0.4,0-0.7,0-1-0.1v-4.8
		c0.3-0.1,0.7-0.1,1-0.1c2,0,3.1,0.8,3.1,2.4C63.5,16.2,63.2,16.9,62.7,17.3"/>
</g>
<rect x="69.7" y="9.8" class="st1" width="5" height="16.5"/>
<g>
	<defs>
		<rect id="SVGID_3_" x="2.7" y="4.4" width="165.3" height="46.7"/>
	</defs>
	<clipPath id="SVGID_4_">
		<use xlink:href="#SVGID_3_"  style="overflow:visible;"/>
	</clipPath>
	<path class="st2" d="M86.4,26.4h4.6l-1.6-4.5c-0.3-0.7-0.6-1.3-0.9-1.7c-0.3-0.4-0.7-0.7-1.1-1v0c0.9-0.3,1.7-0.9,2.3-1.7
		c0.6-0.8,0.9-1.7,0.9-2.7c0-3.4-2.3-5.1-6.8-5.1c-2,0-3.9,0.1-5.9,0.3v16.4h4.4v-5.8h1c0.4,0,0.8,0.1,1,0.3
		c0.3,0.2,0.5,0.6,0.6,1.1L86.4,26.4z M83.6,17.3h-1.2v-4.2c0.3-0.1,0.8-0.1,1.2-0.1c1.7,0,2.5,0.7,2.5,2.2c0,0.7-0.2,1.2-0.7,1.6
		C85,17.1,84.4,17.3,83.6,17.3"/>
</g>
<path class="st1" d="M97.5,23.2h4.6l0.8,3.2h4.8l-5.4-16.6h-4.8L92,26.4h4.7L97.5,23.2z M99.8,13.7L99.8,13.7l1.5,6.1h-3L99.8,13.7z
	"/>
<polygon class="st1" points="104.4,4.4 99.4,4.4 97.1,8.5 100.8,8.5 "/>
<polygon class="st1" points="111.9,26.4 116.5,26.4 116.5,13.6 121,13.6 121,9.8 107.4,9.8 107.4,13.6 111.9,13.6 "/>
<g>
	<defs>
		<rect id="SVGID_5_" x="2.7" y="4.4" width="165.3" height="46.7"/>
	</defs>
	<clipPath id="SVGID_6_">
		<use xlink:href="#SVGID_5_"  style="overflow:visible;"/>
	</clipPath>
	<path class="st3" d="M128.3,23.1c-0.8,0-1.6-0.2-2.5-0.5c-0.9-0.3-1.7-0.7-2.5-1.2l-1,3.5c0.7,0.5,1.6,0.9,2.7,1.2
		c1.1,0.3,2.1,0.5,3.1,0.5c2.3,0,4-0.4,5.2-1.3c1.1-0.9,1.7-2.1,1.7-3.8c0-1.4-0.5-2.5-1.5-3.4c-1-0.9-2.6-1.6-5-2.3
		c-1-0.3-1.5-0.7-1.5-1.4c0-0.4,0.2-0.7,0.5-1c0.4-0.2,0.9-0.4,1.6-0.4c1.6,0,3.1,0.4,4.7,1.1l0.8-3.5c-1.5-0.8-3.4-1.1-5.7-1.1
		c-2.1,0-3.7,0.4-4.9,1.3c-1.2,0.9-1.7,2.1-1.7,3.6c0,1.4,0.5,2.5,1.4,3.4c0.9,0.9,2.5,1.7,4.7,2.3c1.2,0.3,1.8,0.8,1.8,1.5
		C130.3,22.6,129.6,23.1,128.3,23.1"/>
</g>
<polygon class="st1" points="151.5,9.8 146.2,9.8 142,16.9 141.9,16.9 141.9,9.8 137.4,9.8 137.4,26.4 141.9,26.4 141.9,18.7 
	142,18.7 146.5,26.4 151.7,26.4 146.2,17.8 "/>
<polygon class="st1" points="164.8,4.4 159.8,4.4 157.5,8.5 161.1,8.5 "/>
<path class="st1" d="M162.6,9.8h-4.8l-5.4,16.5h4.7l0.8-3.2h4.6l0.8,3.2h4.8L162.6,9.8z M158.7,19.8l1.5-6.1h0l1.5,6.1H158.7z"/>
<g>
	<defs>
		<rect id="SVGID_7_" x="2.7" y="4.4" width="165.3" height="46.7"/>
	</defs>
	<clipPath id="SVGID_8_">
		<use xlink:href="#SVGID_7_"  style="overflow:visible;"/>
	</clipPath>
	<path class="st4" d="M60.6,38.2c-1-0.3-1.5-0.7-1.5-1.4c0-0.4,0.2-0.7,0.5-1c0.4-0.2,0.9-0.4,1.6-0.4c1.6,0,3.1,0.4,4.7,1.1
		l0.8-3.5c-1.5-0.8-3.4-1.1-5.7-1.1c-2.1,0-3.7,0.4-4.9,1.3c-1.2,0.9-1.7,2.1-1.7,3.6c0,1.4,0.5,2.5,1.4,3.4
		c0.9,0.9,2.5,1.7,4.7,2.3c1.2,0.3,1.8,0.8,1.8,1.5c0,1-0.7,1.5-2,1.5c-0.8,0-1.6-0.1-2.5-0.5c-0.9-0.3-1.7-0.7-2.5-1.2l-1,3.5
		c0.7,0.5,1.6,0.9,2.7,1.2c1.1,0.3,2.1,0.5,3.1,0.5c2.3,0,4-0.4,5.2-1.3c1.1-0.9,1.7-2.1,1.7-3.8c0-1.4-0.5-2.5-1.5-3.4
		C64.7,39.6,63,38.9,60.6,38.2"/>
</g>
<polygon class="st1" points="68.5,36 73,36 73,48.8 77.6,48.8 77.6,36 82.1,36 82.1,32.2 68.5,32.2 "/>
<g>
	<defs>
		<rect id="SVGID_9_" x="2.7" y="4.4" width="165.3" height="46.7"/>
	</defs>
	<clipPath id="SVGID_10_">
		<use xlink:href="#SVGID_9_"  style="overflow:visible;"/>
	</clipPath>
	<path class="st5" d="M95.2,42.5c-0.3-0.4-0.7-0.7-1.1-1v0c0.9-0.3,1.7-0.9,2.3-1.7c0.6-0.8,0.9-1.7,0.9-2.7c0-3.4-2.3-5.1-6.8-5.1
		c-2,0-3.9,0.1-5.9,0.3v16.4h4.4V43h1c0.4,0,0.8,0.1,1,0.3c0.3,0.2,0.5,0.6,0.6,1.1l1.4,4.3h4.6L96,44.2
		C95.8,43.5,95.5,42.9,95.2,42.5 M92,39.1c-0.4,0.4-1.1,0.6-1.8,0.6h-1.2v-4.2c0.3-0.1,0.8-0.1,1.2-0.1c1.7,0,2.5,0.7,2.5,2.2
		C92.7,38.2,92.5,38.7,92,39.1"/>
</g>
<path class="st1" d="M104.3,32.2l-5.4,16.5h4.7l0.7-3.2h4.6l0.8,3.2h4.8L109,32.2H104.3z M105.1,42.2l1.5-6.1h0l1.5,6.1H105.1z"/>
<polygon class="st1" points="125.8,41.3 125.7,41.3 120.8,32.2 116.3,32.2 116.3,48.8 120.8,48.8 120.8,39.7 120.8,39.7 125.8,48.8 
	130.2,48.8 130.2,32.2 125.8,32.2 "/>
<path class="st1" d="M137.5,32.2L132,48.8h4.7l0.8-3.2h4.6l0.8,3.2h4.8l-5.4-16.5H137.5z M138.3,42.2l1.5-6.1h0l1.5,6.1H138.3z"/>
</svg>
