<?xml version="1.0" encoding="UTF-8" standalone="no"?>
<svg
   xmlns:dc="http://purl.org/dc/elements/1.1/"
   xmlns:cc="http://creativecommons.org/ns#"
   xmlns:rdf="http://www.w3.org/1999/02/22-rdf-syntax-ns#"
   xmlns:svg="http://www.w3.org/2000/svg"
   xmlns="http://www.w3.org/2000/svg"
   xmlns:sodipodi="http://sodipodi.sourceforge.net/DTD/sodipodi-0.dtd"
   xmlns:inkscape="http://www.inkscape.org/namespaces/inkscape"
   viewBox="0 0 461.94159 448.05228"
   version="1.1"
   id="svg4"
   sodipodi:docname="diaspora-brands.svg"
   width="461.94159"
   height="448.05228"
   inkscape:version="1.0.2 (e86c870879, 2021-01-15)">
  <metadata
     id="metadata10">
    <rdf:RDF>
      <cc:Work
         rdf:about="">
        <dc:format>image/svg+xml</dc:format>
        <dc:type
           rdf:resource="http://purl.org/dc/dcmitype/StillImage" />
      </cc:Work>
    </rdf:RDF>
  </metadata>
  <defs
     id="defs8" />
  <sodipodi:namedview
     pagecolor="#ffffff"
     bordercolor="#666666"
     borderopacity="1"
     objecttolerance="10"
     gridtolerance="10"
     guidetolerance="10"
     inkscape:pageopacity="0"
     inkscape:pageshadow="2"
     inkscape:window-width="1680"
     inkscape:window-height="965"
     id="namedview6"
     showgrid="false"
     inkscape:zoom="1.2265625"
     inkscape:cx="231.03776"
     inkscape:cy="224.00229"
     inkscape:window-x="1920"
     inkscape:window-y="51"
     inkscape:window-maximized="1"
     inkscape:current-layer="svg4"
     inkscape:document-rotation="0" />
  <!--! Font Awesome Pro 6.1.1 by @fontawesome - https://fontawesome.com License - https://fontawesome.com/license (Commercial License) Copyright 2022 Fonticons, Inc. -->
  <path
     d="m 226.67776,322.55229 c -1.4,0 -88,119.9 -88.7,119.9 -0.7,0 -86.600003,-60.45 -86.940003,-61.2 -0.34,-0.75 86.600003,-125.7 86.600003,-127.4 0,-2.2 -129.6000031,-44 -137.60000314,-47.1 -1.29999996,-0.5 31.40000014,-101.8 31.70000014,-102.1 0.6,-0.7 144.400003,47 145.500003,47 0.4,0 0.9,-0.6 1,-1.3 0.4,-2 1,-148.5999985 1.7,-149.59999847 0.8,-1.2 104.5,-0.7 105.1,-0.3 1.5,0.99999997 3.5,156.09999847 6.1,156.09999847 1.4,0 138.7,-47 139.3,-46.3 0.8,0.9 31.9,102.2 31.5,102.6 -0.9,0.9 -140.2,47.1 -140.6,48.8 -0.3,1.4 82.8,122.1 82.5,122.9 -0.3,0.8 -85.5,63.5 -86.3,63.5 -1,-0.2 -89,-125.5 -90.9,-125.5 z"
     id="path2"
     style="fill:#000000;fill-opacity:1" />
</svg>
