<?xml version="1.0" encoding="UTF-8" standalone="no"?>
<svg
   xmlns:dc="http://purl.org/dc/elements/1.1/"
   xmlns:cc="http://creativecommons.org/ns#"
   xmlns:rdf="http://www.w3.org/1999/02/22-rdf-syntax-ns#"
   xmlns:svg="http://www.w3.org/2000/svg"
   xmlns="http://www.w3.org/2000/svg"
   xmlns:sodipodi="http://sodipodi.sourceforge.net/DTD/sodipodi-0.dtd"
   xmlns:inkscape="http://www.inkscape.org/namespaces/inkscape"
   viewBox="0 0 448 448"
   version="1.1"
   id="svg14"
   sodipodi:docname="facebook-square-brands.svg"
   inkscape:version="1.0.2 (e86c870879, 2021-01-15)"
   width="448"
   height="448">
  <metadata
     id="metadata20">
    <rdf:RDF>
      <cc:Work
         rdf:about="">
        <dc:format>image/svg+xml</dc:format>
        <dc:type
           rdf:resource="http://purl.org/dc/dcmitype/StillImage" />
      </cc:Work>
    </rdf:RDF>
  </metadata>
  <defs
     id="defs18" />
  <sodipodi:namedview
     pagecolor="#ffffff"
     bordercolor="#666666"
     borderopacity="1"
     objecttolerance="10"
     gridtolerance="10"
     guidetolerance="10"
     inkscape:pageopacity="0"
     inkscape:pageshadow="2"
     inkscape:window-width="1680"
     inkscape:window-height="965"
     id="namedview16"
     showgrid="false"
     inkscape:zoom="2.453125"
     inkscape:cx="-13.776638"
     inkscape:cy="307.2882"
     inkscape:window-x="1920"
     inkscape:window-y="51"
     inkscape:window-maximized="1"
     inkscape:current-layer="svg14"
     inkscape:document-rotation="0" />
  <!--! Font Awesome Pro 6.1.1 by @fontawesome - https://fontawesome.com License - https://fontawesome.com/license (Commercial License) Copyright 2022 Fonticons, Inc. -->
  <path
     d="M 400,0 H 48 A 48,48 0 0 0 0,48 v 352 a 48,48 0 0 0 48,48 H 185.25 V 295.69 h -63 V 224 h 63 v -54.64 c 0,-62.15 37,-96.48 93.67,-96.48 27.14,0 55.52,4.84 55.52,4.84 v 61 h -31.27 c -30.81,0 -40.42,19.12 -40.42,38.73 V 224 h 68.78 l -11,71.69 H 262.75 V 448 H 400 a 48,48 0 0 0 48,-48 V 48 A 48,48 0 0 0 400,0 Z"
     id="path12"
     style="fill:#000000;fill-opacity:1" />
</svg>
