<?xml version="1.0" encoding="UTF-8" standalone="no"?>
<svg
   xmlns:dc="http://purl.org/dc/elements/1.1/"
   xmlns:cc="http://creativecommons.org/ns#"
   xmlns:rdf="http://www.w3.org/1999/02/22-rdf-syntax-ns#"
   xmlns:svg="http://www.w3.org/2000/svg"
   xmlns="http://www.w3.org/2000/svg"
   xmlns:sodipodi="http://sodipodi.sourceforge.net/DTD/sodipodi-0.dtd"
   xmlns:inkscape="http://www.inkscape.org/namespaces/inkscape"
   viewBox="0 0 417.99884 448.07172"
   version="1.1"
   id="svg24"
   sodipodi:docname="mastodon-brands.svg"
   width="417.99884"
   height="448.07172"
   inkscape:version="1.0.2 (e86c870879, 2021-01-15)">
  <metadata
     id="metadata30">
    <rdf:RDF>
      <cc:Work
         rdf:about="">
        <dc:format>image/svg+xml</dc:format>
        <dc:type
           rdf:resource="http://purl.org/dc/dcmitype/StillImage" />
      </cc:Work>
    </rdf:RDF>
  </metadata>
  <defs
     id="defs28" />
  <sodipodi:namedview
     pagecolor="#ffffff"
     bordercolor="#666666"
     borderopacity="1"
     objecttolerance="10"
     gridtolerance="10"
     guidetolerance="10"
     inkscape:pageopacity="0"
     inkscape:pageshadow="2"
     inkscape:window-width="1680"
     inkscape:window-height="965"
     id="namedview26"
     showgrid="false"
     inkscape:zoom="1.2265625"
     inkscape:cx="77.314305"
     inkscape:cy="224.00265"
     inkscape:window-x="1920"
     inkscape:window-y="51"
     inkscape:window-maximized="1"
     inkscape:current-layer="svg24"
     inkscape:document-rotation="0" />
  <!--! Font Awesome Pro 6.1.1 by @fontawesome - https://fontawesome.com License - https://fontawesome.com/license (Commercial License) Copyright 2022 Fonticons, Inc. -->
  <path
     d="m 417.9831,147.11265 c 0,-97.200002 -63.71,-125.700002 -63.71,-125.700002 -62.52,-28.7000002 -228.56,-28.4000002 -290.480005,0 0,0 -63.71999978,28.5 -63.71999978,125.700002 0,115.7 -6.60000002,259.4 105.63000478,289.1 40.51,10.7 75.32,13 103.33,11.4 50.81,-2.8 79.32,-18.1 79.32,-18.1 l -1.7,-36.9 c 0,0 -36.31,11.4 -77.12,10.1 -40.41,-1.4 -83,-4.4 -89.63,-54 a 102.54,102.54 0 0 1 -0.9,-13.9 c 85.63,20.9 158.65,9.1 178.75,6.7 56.12,-6.7 105,-41.3 111.23,-72.9 9.8,-49.8 9,-121.5 9,-121.5 z m -75.12,125.2 h -46.63 v -114.2 c 0,-49.7 -64,-51.6 -64,6.9 v 62.5 h -46.33 v -62.51 c 0,-58.5 -64,-56.6 -64,-6.9 v 114.2 H 75.173095 c 0,-122.1 -5.2,-147.9 18.41,-175.000002 25.900005,-28.9 79.820005,-30.8 103.830005,6.100002 l 11.6,19.5 11.6,-19.5 c 24.11,-37.100002 78.12,-34.800002 103.83,-6.100002 23.71,27.300002 18.4,53.000002 18.4,175.000002 z"
     id="path22"
     style="fill-opacity:1;fill:#000000" />
</svg>
