<?xml version="1.0" encoding="UTF-8" standalone="no"?>
<!-- Created with Inkscape (http://www.inkscape.org/) -->

<svg
   xmlns:dc="http://purl.org/dc/elements/1.1/"
   xmlns:cc="http://creativecommons.org/ns#"
   xmlns:rdf="http://www.w3.org/1999/02/22-rdf-syntax-ns#"
   xmlns:svg="http://www.w3.org/2000/svg"
   xmlns="http://www.w3.org/2000/svg"
   xmlns:sodipodi="http://sodipodi.sourceforge.net/DTD/sodipodi-0.dtd"
   xmlns:inkscape="http://www.inkscape.org/namespaces/inkscape"
   width="210mm"
   height="297mm"
   viewBox="0 0 744.09448819 1052.3622047"
   id="svg4187"
   version="1.1"
   inkscape:version="0.91 r13725"
   sodipodi:docname="logo.svg">
  <defs
     id="defs4189" />
  <sodipodi:namedview
     id="base"
     pagecolor="#ffffff"
     bordercolor="#666666"
     borderopacity="1.0"
     inkscape:pageopacity="0.0"
     inkscape:pageshadow="2"
     inkscape:zoom="0.24748737"
     inkscape:cx="-82.170011"
     inkscape:cy="1148.3622"
     inkscape:document-units="px"
     inkscape:current-layer="layer1"
     showgrid="false"
     inkscape:window-width="1280"
     inkscape:window-height="772"
     inkscape:window-x="0"
     inkscape:window-y="0"
     inkscape:window-maximized="1" />
  <metadata
     id="metadata4192">
    <rdf:RDF>
      <cc:Work
         rdf:about="">
        <dc:format>image/svg+xml</dc:format>
        <dc:type
           rdf:resource="http://purl.org/dc/dcmitype/StillImage" />
        <dc:title></dc:title>
      </cc:Work>
    </rdf:RDF>
  </metadata>
  <g
     inkscape:label="Layer 1"
     inkscape:groupmode="layer"
     id="layer1">
    <g
       id="g4770">
      <rect
         y="-167.90205"
         x="-533.36053"
         height="559.62451"
         width="580.71179"
         id="rect4768"
         style="opacity:1;fill:#ffffff;fill-opacity:1;fill-rule:nonzero;stroke:none;stroke-width:3;stroke-miterlimit:4;stroke-dasharray:3, 9;stroke-dashoffset:0;stroke-opacity:1" />
      <path
         inkscape:connector-curvature="0"
         id="path3068"
         d="m -171.87372,-76.858775 c -41.83612,0 -80.70931,12.686265 -112.9837,34.420054 l 0,17.552693 c 31.4634,-23.660762 70.58336,-37.687147 112.9837,-37.687146 103.926018,0 188.169782,84.242129 188.169782,188.167734 0,103.92562 -84.243764,188.19024 -188.169782,188.19024 -42.40034,0 -81.5203,-14.03214 -112.9837,-37.69737 l 0,17.55269 c 32.2744,21.73779 71.14756,34.42824 112.9837,34.42824 111.826034,0 202.47584,-90.64865 202.47584,-202.4738 0,-111.825627 -90.649806,-202.453335 -202.47584,-202.453335 z m -93.22157,59.312965 0,30.809273 c -5.64042,1.544743 -11.39834,3.244322 -17.27448,5.13897 6.0883,0.469162 11.83727,1.203518 17.27448,2.150103 l 0,167.092234 c -16.39205,24.49528 -3.30846,48.00096 4.21019,81.09017 -1.045,-48.44616 -8.55371,-81.55366 103.387,-96.235 C -5.9651683,172.24815 -32.950211,-35.816663 -243.61269,8.0569819 l 0,-25.6027919 -21.4826,0 z m 21.4826,43.509403 c 75.11729,25.572829 67.43938,103.445907 29.86004,122.744067 -12.14614,6.23724 -21.95707,12.14941 -29.86004,17.88411 l 0,-140.628177 z"
         style="fill:#333333;fill-opacity:1;stroke:none" />
      <path
         id="path4754"
         d="M -284.28516 -134.52344 C -293.81315 -125.1772 -306.93329 -112.20098 -321.40234 -97.792969 C -350.02605 -69.290009 -373.10029 -45.623725 -372.67969 -45.203125 C -372.2591 -44.782535 -359.76833 -39.288018 -344.92188 -32.992188 C -330.07542 -26.696358 -314.87683 -20.228201 -311.14648 -18.619141 L -304.36328 -15.693359 L -298.64648 -18.589844 C -293.64299 -21.124764 -292.02521 -21.450872 -285.68945 -21.195312 C -285.14536 -21.173366 -284.76641 -21.180966 -284.28516 -21.169922 L -284.28516 -134.52344 z M -385.52148 -33.753906 L -413.45703 -5.8027344 L -441.39258 22.148438 L -432.10742 35.648438 C -427.00135 43.073437 -415.90414 59.273438 -407.44727 71.648438 C -398.9904 84.023438 -389.18125 98.32866 -385.64844 103.4375 L -379.22461 112.72461 L -371.10742 112.4375 L -362.99023 112.14844 L -349.17773 90.648438 C -341.58082 78.823438 -328.55572 58.625735 -320.23438 45.765625 C -307.71103 26.411605 -305.30302 22.104885 -306.25586 20.765625 C -310.25417 15.145795 -311.80082 10.758048 -312.07031 4.2675781 C -312.22744 0.48324812 -312.48525 -2.7366588 -312.64258 -2.8867188 C -312.93395 -3.1646287 -357.92558 -22.272394 -375.72461 -29.677734 L -385.52148 -33.753906 z M -284.28516 29.214844 C -284.86543 29.285609 -285.43514 29.360269 -286.05664 29.410156 L -292.27734 29.910156 L -314.10352 63.828125 C -346.29789 113.85887 -349.42773 118.76877 -349.42773 119.22852 C -349.42773 119.45903 -349.06441 119.64844 -348.61914 119.64844 C -348.17388 119.64844 -321.96147 108.60116 -290.36914 95.099609 C -287.86275 94.028456 -286.81484 93.582941 -284.28516 92.501953 L -284.28516 29.214844 z M -453.23633 33.648438 C -453.62297 33.648438 -469.38783 49.100631 -488.26953 67.988281 L -522.59961 102.33008 L -509.76367 105.06641 C -502.70399 106.57148 -474.87773 112.45663 -447.92773 118.14453 C -420.97773 123.83243 -398.87715 128.52201 -398.81445 128.56641 C -398.13389 129.04813 -393.3287 120.34924 -393.7168 119.33789 C -394.62636 116.9676 -452.49951 33.648438 -453.23633 33.648438 z M -284.28516 108.85156 L -341.92773 133.49023 L -342.21875 136.81836 L -342.50781 140.14844 L -284.28516 152.25195 L -284.28516 108.85156 z M -512.03906 120.92383 C -512.28182 121.16659 -501.78176 131.99809 -488.70508 144.99219 C -475.62841 157.98628 -464.40752 168.62481 -463.77148 168.63281 C -462.35981 168.65144 -406.2617 144.80171 -405.10547 143.69141 C -404.65271 143.25662 -405.32771 142.6472 -406.60547 142.33594 C -416.80612 139.8511 -511.69548 120.58025 -512.03906 120.92383 z M -344.01367 154.98633 C -344.93325 154.90673 -345.82467 155.51832 -346.44727 156.68164 C -347.39429 158.45116 -347.16523 159.43246 -345.0957 162.48047 C -339.94666 170.06397 -322.11383 195.90589 -284.28516 250.63086 L -284.28516 167.42578 C -298.85282 164.42289 -315.70561 160.9449 -322.42773 159.56836 C -333.15273 157.37211 -342.68818 155.34603 -343.61719 155.06445 C -343.749 155.0245 -343.8823 154.9977 -344.01367 154.98633 z M -396.83008 158.04688 C -398.3061 157.48049 -451.37836 179.64569 -451.41016 180.8418 C -451.4203 181.22358 -445.46523 187.3956 -438.17773 194.55664 C -426.2747 206.25311 -424.79574 207.40129 -423.62891 205.86133 C -418.92051 199.64731 -395.42773 161.69182 -395.42773 160.29883 C -395.42773 159.35585 -396.05925 158.34268 -396.83008 158.04688 z M -360.9707 169.55469 C -362.0474 169.77826 -367.34551 170.04002 -372.74414 170.13672 L -382.56055 170.3125 L -398.43164 194.73047 L -414.30273 219.14844 L -342.11523 290.84766 C -318.01447 314.78545 -297.53761 335.04795 -284.28516 348.10156 L -284.28516 277.59766 C -292.12657 266.14763 -300.56985 253.86563 -309.26172 241.28711 C -310.7287 239.16416 -322.5224 222.06416 -335.4707 203.28711 C -354.69271 175.41221 -359.37232 169.2228 -360.9707 169.55469 z "
         style="fill:#38adb9" />
    </g>
  </g>
</svg>
