<svg id="doprava_a_logistika" data-name="doprava a logistika" xmlns="http://www.w3.org/2000/svg" viewBox="0 0 141.73 141.73">
  <defs>
    <style>
      .cls-1 { fill: none; } .cls-2 { clip-path: url(#clip-path); } .cls-3 { fill: #000119; }
    </style>
    <clipPath id="clip-path">
      <path class="cls-1" d="M20.49 25.16h100.58v91.76H20.49z"/>
    </clipPath>
  </defs>
  <title>
    doprava a logistika
  </title>
  <path class="cls-2 cls-3" d="M48.5 111.27h42.76v3H48.5zm37.2-1.67H54.05v-3H85.7zm-32.52-5.47l-17.1 11.6v1.19h67.19v-1.46l-16.73-11.33zm36-33.3a2.82 2.82 0 0 1-2.82 2.8H53a2.82 2.82 0 0 1-2.82-2.8V58.55a2.82 2.82 0 0 1 2.82-2.8h33.39a2.82 2.82 0 0 1 2.82 2.8zM50.53 92.1a3.66 3.66 0 1 1 3.66 3.63 3.64 3.64 0 0 1-3.66-3.63m31 0a3.66 3.66 0 1 1 3.66 3.63 3.64 3.64 0 0 1-3.66-3.63m8.74-41.59H49.11a4.23 4.23 0 0 0-4.23 4.2v42.67a4.23 4.23 0 0 0 4.23 4.2h41.14a4.23 4.23 0 0 0 4.23-4.2V54.71a4.23 4.23 0 0 0-4.23-4.2m-31.41-2.18h21.68A4.24 4.24 0 0 0 76.38 45H63a4.24 4.24 0 0 0-4.14 3.31M121.07 75c0-27.49-22.56-49.85-50.29-49.85S20.49 47.52 20.49 75a49.35 49.35 0 0 0 11.15 31.27H32a45.7 45.7 0 0 1 3.63-60.53A46.33 46.33 0 0 1 81.7 34.51a41.76 41.76 0 0 1 17.39 71.62l18.9-4.55s-2.38-.59-4.08-1A49.22 49.22 0 0 0 121.07 75"/>
</svg>
