<svg id="informatika" xmlns="http://www.w3.org/2000/svg" viewBox="0 0 141.73 141.73">
  <defs>
    <style>
      .cls-1 { fill: none; } .cls-2 { clip-path: url(#clip-path); } .cls-3 { fill: #000119; }
    </style>
    <clipPath id="clip-path">
      <path class="cls-1" d="M30.81 15.69h79.94v110.7H30.81z"/>
    </clipPath>
  </defs>
  <title>
    informatika
  </title>
  <path class="cls-2 cls-3" d="M91.5 67.13a33.11 33.11 0 1 0-39.9 12.41v-5.93a27.74 27.74 0 1 1 35-8.9 7 7 0 0 1 .53.6 11.92 11.92 0 0 1 1.07 1.8s1.72-.05 3.3 0m-10.8-18.3a16.69 16.69 0 0 1-4.58 11.48 11.32 11.32 0 0 1 2.89.18 13.54 13.54 0 0 1 3 1.11A22.14 22.14 0 1 0 51.6 67.2v-7.07a16.76 16.76 0 1 1 29.1-11.32m30 55.22v-18.4a6.8 6.8 0 0 0-13.28-1.78V79a6.8 6.8 0 0 0-13.28-1.78v-4.87a6.81 6.81 0 0 0-13.4-1.4V46.4a6.79 6.79 0 0 0-13.56 0v45.75c0 3.17-3.43 3.17-4.77 2.19s-7.1-6-7.1-6C42.7 85.82 39 85 36 87.27a6.66 6.66 0 0 0-1.42 9.31s20 26 20.84 27.28a12.27 12.27 0 0 0 3.08 2.52h46.23s6-19.25 6-22.36"/>
</svg>
