<svg id="kontrola" xmlns="http://www.w3.org/2000/svg" viewBox="0 0 141.73 141.73">
  <defs>
    <style>
      .cls-1 { fill: none; } .cls-2 { clip-path: url(#clip-path); } .cls-3 { fill: #000119; }
    </style>
    <clipPath id="clip-path">
      <path class="cls-1" d="M22.59 37.79h96.38v66.48H22.59z"/>
    </clipPath>
  </defs>
  <title>
    kontrola
  </title>
  <path class="cls-2 cls-3" d="M66.17 77.52a2.57 2.57 0 1 1 2.57 2.57 2.57 2.57 0 0 1-2.57-2.57m-3 2.15a7.53 7.53 0 1 0 7.53-7.53 7.53 7.53 0 0 0-7.53 7.53m-4 0a11.57 11.57 0 1 1 11.54 11.56 11.57 11.57 0 0 1-11.57-11.56M30.31 59.83c-.12 1.27-.19 2.56-.19 3.86a40.59 40.59 0 0 0 81.17 0c0-1.3-.07-2.59-.19-3.86zM119 50V37.79h-12.81v9.3a2.8 2.8 0 1 1-5.6 0v-9.3h-3.71v9.3a2.8 2.8 0 1 1-5.6 0v-9.3H22.59V50a6 6 0 0 0 6 6H113a6 6 0 0 0 6-6"/>
</svg>
