<svg id="mezinarodni_vztahy" data-name="mezinarodni vztahy" xmlns="http://www.w3.org/2000/svg" xmlns:xlink="http://www.w3.org/1999/xlink" viewBox="0 0 141.73 141.73">
  <defs>
    <style>
      .cls-1 {
        fill: none;
      }

      .cls-2 {
        clip-path: url(#clip-path);
      }

      .cls-3 {
        fill: #000119;
      }
    </style>
    <clipPath id="clip-path">
      <rect class="cls-1" x="21.66" y="27.78" width="98.24" height="86.52"/>
    </clipPath>
  </defs>
  <title>mezinarodni vztahy</title>
  <g class="cls-2">
    <path class="cls-3" d="M48.62,52.81l9.93,9.93a28.57,28.57,0,0,1-16.39,6.45,28.59,28.59,0,0,1,6.46-16.38M68.93,42.42a28.56,28.56,0,0,1-5.69,15.41l-9.72-9.72a28.6,28.6,0,0,1,15.41-5.69m6.58.33a28.51,28.51,0,0,1,13.2,5.88L71.38,66l-3.43-3.43a35.12,35.12,0,0,0,7.56-19.79M99.07,66.3a35.16,35.16,0,0,0-19.79,7.58l-3.11-3.11L93.47,53.48a28.53,28.53,0,0,1,5.6,12.82m-5.36,22L84,78.58a28.6,28.6,0,0,1,15.41-5.7A28.59,28.59,0,0,1,93.71,88.3M72.63,99.66a28.55,28.55,0,0,1,6.46-16.39L89,93.2a28.58,28.58,0,0,1-16.38,6.46M66,99.33a28.54,28.54,0,0,1-12.82-5.6L71.38,75.56l3,3A35.13,35.13,0,0,0,66,99.33M42.5,75.77a35.12,35.12,0,0,0,20.73-8.36l3.36,3.36L48.38,89a28.54,28.54,0,0,1-5.88-13.2M45.83,96a35.29,35.29,0,1,0,0-49.91,35.33,35.33,0,0,0,0,49.91"/>
    <path class="cls-3" d="M119.07,62a44.5,44.5,0,0,0-11.84-21.13A45.05,45.05,0,0,0,63.71,29.31a42.33,42.33,0,0,1,38.93,69.64c-.56.63-1.35,1.48-2.27,2.4l-.44.41h0c-.77.74-1.61,1.51-2.49,2.22a54.4,54.4,0,0,1-7.55,4.87s7.14-.09,11.74-.59a106.22,106.22,0,0,0,10.85-2l-4-3.77A49.15,49.15,0,0,0,119.07,62"/>
    <path class="cls-3" d="M40.83,101a42.4,42.4,0,0,1,0-59.9c.26-.26.53-.51.81-.77l0,0A34,34,0,0,1,45,37.43a48.62,48.62,0,0,1,7.67-4.67s-7.14-.08-11.75.29A105.9,105.9,0,0,0,30,34.74l3.88,3.85A49.16,49.16,0,0,0,22.52,80.24a44.49,44.49,0,0,0,11.8,21,45.05,45.05,0,0,0,43.33,11.62A42.33,42.33,0,0,1,40.83,101"/>
  </g>
</svg>
