<svg id="obrana" xmlns="http://www.w3.org/2000/svg" viewBox="0 0 141.73 141.73">
  <defs>
    <style>
      .cls-1 { fill: none; } .cls-2 { clip-path: url(#clip-path); } .cls-3 { fill: #000119; }
    </style>
    <clipPath id="clip-path">
      <path class="cls-1" d="M24.42 27.34h92.72v87.39H24.42z"/>
    </clipPath>
  </defs>
  <title>
    obrana
  </title>
  <path class="cls-2 cls-3" d="M102.24 92l-7.53 7.67 2.64 2.69 7.53-7.67zm-4.09-4.17l-7.53 7.67 2.64 2.69 7.53-7.67zm.44-14.49l-22.15 22.5 1.25 1.27a6.41 6.41 0 0 0 9.14-.27l12.74-13a6.69 6.69 0 0 0 .26-9.3zm-17.16 2.71L87.25 82l6.14-6.25-5.82-5.95zm-2.27 2.31l-6.22 6.34 5.82 5.93L85 84.29zM42 83.88l12.74 13a6.41 6.41 0 0 0 9.14.27l1.25-1.27L43 73.3l-1.25 1.27a6.69 6.69 0 0 0 .26 9.3m-1.22 6.6l7.53 7.67 2.64-2.69-7.53-7.67zm-4.09 4.17l7.53 7.67 2.64-2.69L39.32 92zm-6 9.07a3.19 3.19 0 0 1 4.56 0 3.33 3.33 0 0 1 0 4.64 3.28 3.28 0 0 1-4.63.07 3.42 3.42 0 0 1 .07-4.71M27 99.93a8.81 8.81 0 0 0-.07 12.3 8.44 8.44 0 0 0 12.07-.08 8.72 8.72 0 0 0 2.44-7l1.35-1.38-7.53-7.67-1.31 1.33a8.39 8.39 0 0 0-7 2.47M62.68 57l6.14-6.25-22.66-23.1-14.1.46L32 43l22.18 22.61 6.22-6.34-16.2-16.5a1.43 1.43 0 0 1 .14-2.16 1.4 1.4 0 0 1 2.13-.15zm.13 33.66l47.1-47.95-.1-14.87-14.1-.46-47.54 48.35L54.31 82 95.4 40.15a1.41 1.41 0 0 1 2.13.16 1.43 1.43 0 0 1 .14 2.16L56.58 84.29zm48.15 17.8a3.28 3.28 0 0 1-4.63-.07 3.33 3.33 0 0 1 0-4.64 3.19 3.19 0 0 1 4.56 0 3.42 3.42 0 0 1 .07 4.71m3.66-8.5a8.39 8.39 0 0 0-7-2.47l-1.31-1.33-7.53 7.67 1.35 1.38a8.72 8.72 0 0 0 2.44 7 8.44 8.44 0 0 0 12.08.07 8.82 8.82 0 0 0-.07-12.3"/>
</svg>
