<svg id="prace_a_socialni_veci" data-name="prace a socialni veci" xmlns="http://www.w3.org/2000/svg" xmlns:xlink="http://www.w3.org/1999/xlink" viewBox="0 0 141.73 141.73">
  <defs>
    <style>
      .cls-1 {
        fill: none;
      }

      .cls-2 {
        clip-path: url(#clip-path);
      }

      .cls-3 {
        fill: #000119;
      }
    </style>
    <clipPath id="clip-path">
      <rect class="cls-1" x="24.42" y="26.26" width="92.72" height="89.55"/>
    </clipPath>
  </defs>
  <title>prace a socialni veci</title>
  <g class="cls-2">
    <path class="cls-3" d="M66.45,87.23A4.68,4.68,0,0,0,64.73,84L46.24,65.51a4.71,4.71,0,0,0-6.66,6.66L48,80.61l-2.55,2.55L33.86,71.54V50.19a4.71,4.71,0,0,0-9.42,0V73A4.69,4.69,0,0,0,25.8,76.8L42.27,93.27l.12.11v8.39H38.3v14H66.46V111s0-.07,0-.1V87.66h0c0-.07,0-.14,0-.21s0-.14,0-.21"/>
    <path class="cls-3" d="M112.4,45.48a4.71,4.71,0,0,0-4.71,4.71V71.54L96.09,83.16l-2.55-2.55L102,72.17a4.71,4.71,0,0,0-6.66-6.66L76.85,84a4.71,4.71,0,0,0-1.72,3.24c0,.07,0,.14,0,.21s0,.13,0,.21h0v23.28s0,.07,0,.1v4.77h28.16v-14H99.18V93.38l.12-.11L115.76,76.8A4.7,4.7,0,0,0,117.12,73V50.19a4.71,4.71,0,0,0-4.71-4.71"/>
    <path class="cls-3" d="M70.78,38.2A11.55,11.55,0,1,1,59.22,49.75,11.55,11.55,0,0,1,70.78,38.2M54.63,59.58,51,63.2l6.32,6.32,3.63-3.62a18.83,18.83,0,0,0,5.36,2.22v5.13h8.93V68.11a18.87,18.87,0,0,0,5.36-2.22l3.62,3.62,6.32-6.32-3.63-3.62a18.77,18.77,0,0,0,2.22-5.36h5.13V45.28H89.14a18.71,18.71,0,0,0-2.22-5.36l3.63-3.62L84.22,30,80.6,33.61a18.77,18.77,0,0,0-5.36-2.22V26.26H66.31v5.13a18.73,18.73,0,0,0-5.36,2.22L57.32,30,51,36.3l3.63,3.62a18.7,18.7,0,0,0-2.22,5.36H47.29v8.93h5.13a18.76,18.76,0,0,0,2.22,5.36"/>
  </g>
</svg>
