<svg id="spravedlnost" xmlns="http://www.w3.org/2000/svg" viewBox="0 0 141.73 141.73">
  <defs>
    <style>
      .cls-1 { fill: none; } .cls-2 { clip-path: url(#clip-path); } .cls-3 { fill: #000119; }
    </style>
    <clipPath id="clip-path">
      <path class="cls-1" d="M20.49 22.34h100.58v97.39H20.49z"/>
    </clipPath>
  </defs>
  <title>
    spravedlnost
  </title>
  <path class="cls-2 cls-3" d="M40.4 116.2a3.53 3.53 0 0 0 3.53 3.53H98a3.53 3.53 0 1 0 0-7.05H43.92a3.53 3.53 0 0 0-3.53 3.53m40.68-5.74a3.53 3.53 0 1 0 0-7.06H60.82a3.53 3.53 0 0 0 0 7.06zm-55-26.68l15.82-36 15.51 36zm15.81-48.3s-16.62 37.72-20.6 47c-4.21 9.85 9.22 19.21 20.6 19.21s24.68-9.3 20.6-19.2c-4.17-10.11-20.6-47-20.6-47m59.63-4.66A3.53 3.53 0 0 0 98 27.3H74.48v-1.43a3.53 3.53 0 0 0-7.05 0v1.43H43.92a3.53 3.53 0 1 0 0 7.05h23.5v66.83h7.05V34.36H98a3.53 3.53 0 0 0 3.53-3.53m13.72 53H83.9l15.82-36zm5.09-1.28c-4.18-10.11-20.6-47-20.6-47s-16.62 37.72-20.6 47c-4.21 9.85 9.22 19.21 20.6 19.21s24.68-9.31 20.6-19.21"/>
</svg>
