<svg id="svoboda" xmlns="http://www.w3.org/2000/svg" viewBox="0 0 141.73 141.73">
  <defs>
    <style>
      .cls-1 { fill: none; } .cls-2 { clip-path: url(#clip-path); } .cls-3 { fill: #000119; }
    </style>
    <clipPath id="clip-path">
      <path class="cls-1" d="M36.18 17.95h69.2v106.17h-69.2z"/>
    </clipPath>
  </defs>
  <title>
    svoboda
  </title>
  <path class="cls-2 cls-3" d="M69.76 26.32a5.89 5.89 0 1 0-10.67-5l-4.58 9.88h13zm13.32 6.11a5.89 5.89 0 1 0-10.67-5l-1.72 3.7h8.46s1.41 1.53.33 5.26a14.62 14.62 0 0 1-6.21 8.28c-2.6 1.57-4.91 2.68-10.26 3l-3.95 8.48a17.63 17.63 0 0 1 10.67 5zm13.43 6.1a5.89 5.89 0 0 0-10.67-5L74 59.24a5.89 5.89 0 0 0 10.67 5zm8.86 14.82a5.47 5.47 0 0 0-4.55-5.77c-4.77-1.17-6.82 3.6-6.82 3.6l-7.44 16s-1.33 3.61 1.83 5.22a3.71 3.71 0 0 0 4.94-1.22l4.22-8.88 2.94 1.5s-2.94 5.88-4.22 8.66-5.61 4.38-9.21 2.77a6.71 6.71 0 0 1-3.78-5.55 7.69 7.69 0 0 1-3.66 1.05 12.53 12.53 0 0 1-3.11-.83 14.57 14.57 0 0 1 .75 2.14 11 11 0 0 1 .31 2.52v12.87h-3.16V74.05c0-1.47-1.28-6.77-6.83-11.1s-13.1-4.55-13.1-4.55l6.77-13.71s6.1.07 10.16-2.41a11 11 0 0 0 5.44-8.08H52a9.69 9.69 0 0 0-4.5 1.56 7.76 7.76 0 0 0-2.39 2.94s-6 13-8.16 17.82a8.6 8.6 0 0 0 1 8.66l18.8 25.14v33.8h38.41v-25l9.43-18.43a8.77 8.77 0 0 0 .79-3.83z"/>
</svg>
