<svg id="zemedelstvi" xmlns="http://www.w3.org/2000/svg" viewBox="0 0 141.73 141.73">
  <defs>
    <style>
      .cls-1 { fill: none; } .cls-2 { clip-path: url(#clip-path); } .cls-3 { fill: #000119; }
    </style>
    <clipPath id="clip-path">
      <path class="cls-1" d="M41.64 18.07h58.27v105.92H41.64z"/>
    </clipPath>
  </defs>
  <title>
    zemedelstvi
  </title>
  <path class="cls-2 cls-3" d="M73.15 123.16a1.14 1.14 0 0 0 1.61.72c2.41-2.2 7.79-4.69 16.41-8.62 9.58-4.36 9.1-17 8.45-22.94a1.15 1.15 0 0 0-1.78-.83c-1.88 2-6.31 5.42-16.65 9.53-9.12 3.62-8.39 14.26-8 22.15M41.95 92.32c-.65 6-1.14 18.57 8.45 22.94 8.61 3.92 14 6.42 16.41 8.62a1.14 1.14 0 0 0 1.61-.72c.37-7.89 1.09-18.52-8-22.15-10.34-4.1-14.76-7.5-16.65-9.53a1.15 1.15 0 0 0-1.78.83m0-24.5c-.65 6-1.14 18.58 8.45 22.94 8.61 3.92 14 6.42 16.41 8.62a1.14 1.14 0 0 0 1.61-.72c.37-7.89 1.09-18.53-8-22.15C50 72.42 45.61 69 43.73 67a1.15 1.15 0 0 0-1.78.83M60.38 52C50 47.93 45.61 44.53 43.73 42.5a1.14 1.14 0 0 0-1.78.83c-.65 6-1.14 18.58 8.45 22.94 8.61 3.92 14 6.42 16.41 8.62a1.14 1.14 0 0 0 1.61-.72c.37-7.89 1.09-18.53-8-22.15m22.3-17.56c0-8.09-6.5-12.56-10-15a11.23 11.23 0 0 1-1.38-1.1 1.17 1.17 0 0 0-.8-.33 1.19 1.19 0 0 0-.85.37 11.14 11.14 0 0 1-1.34 1.07c-3.45 2.39-9.95 6.86-9.95 15 0 8.5 5.41 13.54 9.72 16.45a8.48 8.48 0 0 1 1.69 1.44 1.16 1.16 0 0 0 .73.28 1.17 1.17 0 0 0 .77-.31A8.6 8.6 0 0 1 73 50.91c4.3-2.91 9.72-8 9.72-16.45m16.89 8.87a1.14 1.14 0 0 0-1.78-.83c-1.88 2-6.31 5.42-16.65 9.52-9.12 3.62-8.39 14.26-8 22.15a1.16 1.16 0 0 0 .65.74 1.15 1.15 0 0 0 1 0c2.41-2.2 7.79-4.69 16.41-8.62 9.58-4.36 9.1-17 8.45-22.94m0 24.49a1.15 1.15 0 0 0-1.86-.84c-1.88 2-6.31 5.42-16.65 9.53-9.12 3.62-8.39 14.26-8 22.15a1.17 1.17 0 0 0 .65.74 1.15 1.15 0 0 0 1 0c2.41-2.2 7.79-4.69 16.41-8.62 9.58-4.37 9.1-17 8.45-22.94"/>
</svg>
