<svg id="doprava_a_logistika" data-name="doprava a logistika" xmlns="http://www.w3.org/2000/svg" xmlns:xlink="http://www.w3.org/1999/xlink" viewBox="0 0 141.73 141.73">
  <defs>
    <style>
      .cls-1 {
        fill: none;
      }

      .cls-2 {
        clip-path: url(#clip-path);
      }

      .cls-3 {
        fill: #000119;
      }
    </style>
    <clipPath id="clip-path">
      <rect class="cls-1" x="20.49" y="25.16" width="100.58" height="91.76"/>
    </clipPath>
  </defs>
  <title>doprava a logistika</title>
  <g class="cls-2">
    <path class="cls-3" d="M48.5,111.27H91.26v3H48.5ZM85.7,109.6H54.05v-3H85.7Zm-32.52-5.47-17.1,11.6v1.19h67.19v-1.46L86.54,104.13Zm36-33.3a2.82,2.82,0,0,1-2.82,2.8H53a2.82,2.82,0,0,1-2.82-2.8V58.55A2.82,2.82,0,0,1,53,55.75H86.39a2.82,2.82,0,0,1,2.82,2.8ZM50.53,92.1a3.66,3.66,0,1,1,3.66,3.63,3.64,3.64,0,0,1-3.66-3.63m31,0a3.66,3.66,0,1,1,3.66,3.63,3.64,3.64,0,0,1-3.66-3.63m8.74-41.59H49.11a4.23,4.23,0,0,0-4.23,4.2V97.38a4.23,4.23,0,0,0,4.23,4.2H90.25a4.23,4.23,0,0,0,4.23-4.2V54.71a4.23,4.23,0,0,0-4.23-4.2M58.84,48.33H80.52A4.24,4.24,0,0,0,76.38,45H63a4.24,4.24,0,0,0-4.14,3.31M121.07,75c0-27.49-22.56-49.85-50.29-49.85S20.49,47.52,20.49,75a49.35,49.35,0,0,0,11.15,31.27H32a45.7,45.7,0,0,1,3.63-60.53A46.33,46.33,0,0,1,81.7,34.51a41.76,41.76,0,0,1,17.39,71.62l18.9-4.55s-2.38-.59-4.08-1A49.22,49.22,0,0,0,121.07,75"/>
  </g>
</svg>
