<svg id="finance" xmlns="http://www.w3.org/2000/svg" xmlns:xlink="http://www.w3.org/1999/xlink" viewBox="0 0 141.73 141.73">
  <defs>
    <style>
      .cls-1 {
        fill: none;
      }

      .cls-2 {
        clip-path: url(#clip-path);
      }

      .cls-3 {
        fill: #000119;
      }
    </style>
    <clipPath id="clip-path">
      <rect class="cls-1" x="35.74" y="27.67" width="70.08" height="86.74"/>
    </clipPath>
  </defs>
  <title>finance</title>
  <g class="cls-2">
    <path class="cls-3" d="M36,97.28c2,9.64,16.83,17.12,34.79,17.12s32.92-7.56,34.82-17.26a1.49,1.49,0,0,0-.84-1.68c-.7-.23-1.21.12-1.72.72h0C97.72,103.13,85.28,108,70.78,108s-27.06-4.93-32.34-11.93a1.46,1.46,0,0,0-1.62-.62A1.55,1.55,0,0,0,36,97.28m0-12c2,9.64,16.83,17.12,34.79,17.12s32.92-7.56,34.82-17.26a1.49,1.49,0,0,0-.84-1.68c-.7-.23-1.21.12-1.72.72h0C97.72,91.11,85.28,96,70.78,96S43.72,91.06,38.44,84.06a1.46,1.46,0,0,0-1.62-.62A1.55,1.55,0,0,0,36,85.27m0-12c2,9.64,16.83,17.12,34.79,17.12S103.7,82.81,105.6,73.1a1.49,1.49,0,0,0-.84-1.68c-.7-.23-1.21.12-1.72.72h0C97.72,79.09,85.28,84,70.78,84S43.72,79,38.44,72a1.46,1.46,0,0,0-1.62-.62A1.55,1.55,0,0,0,36,73.24m0-12c2,9.64,16.83,17.12,34.79,17.12s32.92-7.56,34.82-17.26a1.49,1.49,0,0,0-.84-1.68c-.7-.23-1.21.12-1.72.72h0c-5.32,6.95-17.76,11.82-32.26,11.82S43.72,67,38.44,60a1.46,1.46,0,0,0-1.62-.62A1.55,1.55,0,0,0,36,61.22M105.82,47c0-10.7-15.69-19.38-35-19.38s-35,8.68-35,19.38,15.69,19.38,35,19.38,35-8.68,35-19.38"/>
  </g>
</svg>
