<?xml version="1.0" encoding="utf-8"?>
<!-- Generator: Adobe Illustrator 22.0.1, SVG Export Plug-In . SVG Version: 6.00 Build 0)  -->
<svg version="1.1" id="mistni_rozvoj" xmlns="http://www.w3.org/2000/svg" xmlns:xlink="http://www.w3.org/1999/xlink" x="0px"
	 y="0px" viewBox="0 0 141.7 141.7" style="enable-background:new 0 0 141.7 141.7;" xml:space="preserve">
<style type="text/css">
	.st0{fill:#000119;}
</style>
<title>mistni rozvoj</title>
<path class="st0" d="M55.4,59.2c-1.2,4-5.4,6.3-9.4,5.1c-1.4-0.4-2.7-1.3-3.7-2.4c-0.6-0.7-0.5-1.7,0.2-2.2s1.7-0.5,2.2,0.2
	c1.6,1.9,4.3,2.1,6.2,0.6c0.7-0.6,1.2-1.3,1.4-2.1c0.3-0.8,1.1-1.3,2-1.1S55.6,58.3,55.4,59.2L55.4,59.2 M42.3,79
	c4.7-1,9.5,0.8,12.6,4.5c0.6,0.7,0.5,1.7-0.2,2.2c-0.2,0.2-0.4,0.3-0.7,0.3c-0.6,0.1-1.2-0.1-1.5-0.5c-3.5-4.2-9.7-4.8-13.9-1.3
	c-1.5,1.2-2.6,2.9-3.2,4.7c-0.3,0.8-1.1,1.3-2,1.1c-0.8-0.3-1.3-1.1-1.1-2C33.8,83.4,37.6,80,42.3,79 M35.7,63.1
	c-1.2,4-5.5,6.2-9.5,5c-1.4-0.4-2.6-1.3-3.6-2.4C22,65,22.1,64,22.8,63.5c0.7-0.6,1.7-0.5,2.2,0.2l0,0c1.6,1.9,4.3,2.1,6.2,0.6
	c0.7-0.6,1.2-1.3,1.4-2.1c0.3-0.8,1.1-1.3,2-1C35.5,61.3,35.9,62.2,35.7,63.1L35.7,63.1 M57.7,59.5c0.7-3.7,1.6-7.3,2.9-10.9
	c-2.6-5.6-5.7-8.7-7.3-7.4c-5,3.9-10.9,6.6-17.1,8c-6.3,1.2-12.7,0.9-18.9-0.8c-3.4-1-5.9,11.9-1.7,25.4c2.8,8.9,8.1,16.5,14.9,21.2
	c6.5,4.4,13.4,4.8,15.8,4.3c2.4-0.5,8.5-3.5,12.9-10.1c0.2-0.4,0.5-0.8,0.7-1.2C56.7,78.9,56,69,57.7,59.5 M112.8,72.9
	c-0.3,0.1-0.7,0.1-1,0c-0.7-0.2-1.3-0.8-1.4-1.5c-0.7-3.1-3.7-5-6.7-4.3c-1.1,0.2-2.1,0.8-2.9,1.6c-0.9,0.7-2.2,0.5-2.9-0.5
	c-0.5-0.7-0.5-1.7,0-2.4c3.7-3.9,9.9-4,13.8-0.3c1.4,1.3,2.4,3.1,2.8,5C114.6,71.6,113.9,72.7,112.8,72.9 M98.7,88.3
	c0.9-0.7,2.2-0.5,2.9,0.5c0.5,0.7,0.5,1.7,0,2.4c-6.4,6.6-17,6.8-23.7,0.4c-2.4-2.3-4-5.2-4.7-8.4c-0.4-1.1,0-2.3,1.1-2.7
	c1.1-0.4,2.3,0,2.7,1.1c0.1,0.2,0.2,0.5,0.2,0.7c1.5,6.8,8.3,11.2,15.1,9.7C94.8,91.3,97,90,98.7,88.3 M87.9,65.9
	c-0.3,0.1-0.7,0.1-1,0c-0.7-0.2-1.3-0.8-1.4-1.5c-0.7-3.1-3.7-5-6.7-4.3c-1.1,0.2-2.1,0.8-2.9,1.6c-0.7,0.9-1.9,1.2-2.9,0.5
	c-0.9-0.7-1.2-1.9-0.5-2.9c0.1-0.2,0.3-0.4,0.5-0.5c3.7-3.9,9.9-4,13.8-0.3c1.4,1.3,2.4,3.1,2.8,5C89.7,64.6,89,65.7,87.9,65.9
	 M123.7,45.2c-8.1,1.5-16.4,1.2-24.3-0.9c-7.9-2.4-15.1-6.5-21.1-12c-3.4-3.1-13.8,10.1-16.9,28C59.3,72.1,60.9,84,66,93.2
	c4.9,8.9,12.6,13.4,15.5,14.2s11.9,1,20.7-4c9.2-5.2,16.8-14.5,21.2-25.6C130.1,61.1,128.2,44.3,123.7,45.2"/>
</svg>
