<svg id="obrana" xmlns="http://www.w3.org/2000/svg" xmlns:xlink="http://www.w3.org/1999/xlink" viewBox="0 0 141.73 141.73">
  <defs>
    <style>
      .cls-1 {
        fill: none;
      }

      .cls-2 {
        clip-path: url(#clip-path);
      }

      .cls-3 {
        fill: #000119;
      }
    </style>
    <clipPath id="clip-path">
      <rect class="cls-1" x="24.42" y="27.34" width="92.72" height="87.39"/>
    </clipPath>
  </defs>
  <title>obrana</title>
  <g class="cls-2">
    <path class="cls-3" d="M102.24,92l-7.53,7.67,2.64,2.69,7.53-7.67Zm-4.09-4.17-7.53,7.67,2.64,2.69,7.53-7.67Zm.44-14.49L76.44,95.84l1.25,1.27a6.41,6.41,0,0,0,9.14-.27l12.74-13a6.69,6.69,0,0,0,.26-9.3ZM81.43,76.05,87.25,82l6.14-6.25L87.57,69.8Zm-2.27,2.31L72.94,84.7l5.82,5.93L85,84.29ZM42,83.88l12.74,13a6.41,6.41,0,0,0,9.14.27l1.25-1.27L43,73.3l-1.25,1.27a6.69,6.69,0,0,0,.26,9.3m-1.22,6.6,7.53,7.67,2.64-2.69-7.53-7.67Zm-4.09,4.17,7.53,7.67,2.64-2.69L39.32,92Zm-6,9.07a3.19,3.19,0,0,1,4.56,0,3.33,3.33,0,0,1,0,4.64,3.28,3.28,0,0,1-4.63.07,3.42,3.42,0,0,1,.07-4.71M27,99.93a8.81,8.81,0,0,0-.07,12.3A8.44,8.44,0,0,0,39,112.15a8.72,8.72,0,0,0,2.44-7l1.35-1.38-7.53-7.67-1.31,1.33a8.39,8.39,0,0,0-7,2.47M62.68,57l6.14-6.25L46.16,27.65l-14.1.46L32,43,54.18,65.61l6.22-6.34L44.2,42.77a1.43,1.43,0,0,1,.14-2.16,1.4,1.4,0,0,1,2.13-.15Zm.13,33.66,47.1-47.95-.1-14.87-14.1-.46L48.17,75.73,54.31,82,95.4,40.15a1.41,1.41,0,0,1,2.13.16,1.43,1.43,0,0,1,.14,2.16L56.58,84.29Zm48.15,17.8a3.28,3.28,0,0,1-4.63-.07,3.33,3.33,0,0,1,0-4.64,3.19,3.19,0,0,1,4.56,0,3.42,3.42,0,0,1,.07,4.71m3.66-8.5a8.39,8.39,0,0,0-7-2.47l-1.31-1.33-7.53,7.67,1.35,1.38a8.72,8.72,0,0,0,2.44,7,8.44,8.44,0,0,0,12.08.07,8.82,8.82,0,0,0-.07-12.3"/>
  </g>
</svg>
