<svg id="prumysl" xmlns="http://www.w3.org/2000/svg" xmlns:xlink="http://www.w3.org/1999/xlink" viewBox="0 0 141.73 141.73">
  <defs>
    <style>
      .cls-1 {
        fill: none;
      }

      .cls-2 {
        clip-path: url(#clip-path);
      }

      .cls-3 {
        fill: #000119;
      }
    </style>
    <clipPath id="clip-path">
      <rect class="cls-1" x="17.89" y="32.08" width="105.78" height="77.9"/>
    </clipPath>
  </defs>
  <title>prumysl</title>
  <g class="cls-2">
    <path class="cls-3" d="M69.93,70.42A13.51,13.51,0,1,1,56.42,56.91,13.51,13.51,0,0,1,69.93,70.42m6.5,0a20,20,0,1,0-20,20,20,20,0,0,0,20-20m5.86,0A25.88,25.88,0,1,1,56.42,44.55,25.87,25.87,0,0,1,82.29,70.42m7.51,0a33.57,33.57,0,0,0-.58-6.19l4.66-2.1-.48-2.75-5.62-.42a32.75,32.75,0,0,0-2.66-5.57l3.67-3.58-1.4-2.41L82,48.91,82,49a33.66,33.66,0,0,0-4.44-4.39L79.78,40l-2.14-1.8-4.58,3.29.06.05a33.5,33.5,0,0,0-5.67-2.61L68,33.83l-2.62-1-3.18,4.65.08,0A33.29,33.29,0,0,0,56.42,37H56l-1.27-5H52l-1.4,5.46h.08a33,33,0,0,0-6,1.64L41.74,35l-2.62,1,.56,5.61.07,0a33.75,33.75,0,0,0-5.09,3.61l-4.16-3-2.14,1.79L30.8,49l.06-.05a33.45,33.45,0,0,0-3.56,5.13L22.38,52.7,21,55.12l4,3.94h0a33.2,33.2,0,0,0-1.55,6l-5.1.38-.49,2.75L23,70.48v-.05a33.46,33.46,0,0,0,.58,6.19L19,78.72l.49,2.75,5.62.42a33.17,33.17,0,0,0,2.66,5.57L24.05,91l1.39,2.42,5.43-1.53,0-.06a33.49,33.49,0,0,0,4.43,4.39l-2.22,4.61,2.14,1.79,4.58-3.29-.06-.05a33.37,33.37,0,0,0,5.67,2.61L44.87,107l2.63,1,3.18-4.65-.07,0a33.89,33.89,0,0,0,5.81.52h.4l1.27,5h2.79l1.39-5.46H62.2a33.25,33.25,0,0,0,6-1.64l2.88,4.22,2.62-1-.56-5.61-.07,0a33.5,33.5,0,0,0,5.08-3.61l4.16,3,2.14-1.79L82,91.84l-.06.05a33.18,33.18,0,0,0,3.55-5.13l4.93,1.39,1.39-2.42-4-3.94h0a33.11,33.11,0,0,0,1.55-6l5.1-.39.48-2.74-5.14-2.32ZM110,92.2a4.1,4.1,0,1,0-4.1,4.1,4.1,4.1,0,0,0,4.1-4.1m3.47,0a7.57,7.57,0,1,1-7.57-7.57,7.57,7.57,0,0,1,7.57,7.57m4.65-3.15a12.55,12.55,0,0,0-1.35-3.26l2.93-4.94-2.45-2.45-4.94,2.93A12.38,12.38,0,0,0,109,80l-1.42-5.57h-3.46L102.73,80a12.33,12.33,0,0,0-3.26,1.35L94.53,78.4l-2.45,2.45L95,85.79a12.56,12.56,0,0,0-1.36,3.26L88.1,90.47v3.46l5.56,1.42A12.51,12.51,0,0,0,95,98.61l-2.94,4.94L94.53,106l4.94-2.93a12.56,12.56,0,0,0,3.26,1.35l1.42,5.56h3.46l1.42-5.56a12.61,12.61,0,0,0,3.26-1.35l4.94,2.93,2.45-2.45-2.93-4.94a12.56,12.56,0,0,0,1.35-3.26l5.56-1.42V90.47Z"/>
  </g>
</svg>
