<svg id="spravedlnost" xmlns="http://www.w3.org/2000/svg" xmlns:xlink="http://www.w3.org/1999/xlink" viewBox="0 0 141.73 141.73">
  <defs>
    <style>
      .cls-1 {
        fill: none;
      }

      .cls-2 {
        clip-path: url(#clip-path);
      }

      .cls-3 {
        fill: #000119;
      }
    </style>
    <clipPath id="clip-path">
      <rect class="cls-1" x="20.49" y="22.34" width="100.58" height="97.39"/>
    </clipPath>
  </defs>
  <title>spravedlnost</title>
  <g class="cls-2">
    <path class="cls-3" d="M40.4,116.2a3.53,3.53,0,0,0,3.53,3.53H98a3.53,3.53,0,1,0,0-7.05H43.92a3.53,3.53,0,0,0-3.53,3.53m40.68-5.74a3.53,3.53,0,1,0,0-7.06H60.82a3.53,3.53,0,0,0,0,7.06Zm-55-26.68,15.82-36,15.51,36ZM41.88,35.49s-16.62,37.72-20.6,47c-4.21,9.85,9.22,19.21,20.6,19.21S66.56,92.4,62.48,82.5c-4.17-10.11-20.6-47-20.6-47m59.63-4.66A3.53,3.53,0,0,0,98,27.3H74.48V25.87a3.53,3.53,0,0,0-7.05,0V27.3H43.92a3.53,3.53,0,1,0,0,7.05h23.5v66.83h7.05V34.36H98a3.53,3.53,0,0,0,3.53-3.53m13.72,53H83.9l15.82-36Zm5.09-1.28c-4.18-10.11-20.6-47-20.6-47s-16.62,37.72-20.6,47c-4.21,9.85,9.22,19.21,20.6,19.21s24.68-9.31,20.6-19.21"/>
  </g>
</svg>
