<svg id="vzdelavani_a_veda" data-name="vzdelavani a veda" xmlns="http://www.w3.org/2000/svg" xmlns:xlink="http://www.w3.org/1999/xlink" viewBox="0 0 141.73 141.73">
  <defs>
    <style>
      .cls-1 {
        fill: none;
      }

      .cls-2 {
        clip-path: url(#clip-path);
      }

      .cls-3 {
        fill: #000119;
      }
    </style>
    <clipPath id="clip-path">
      <rect class="cls-1" x="17.01" y="25.83" width="107.53" height="90.4"/>
    </clipPath>
  </defs>
  <title>vzdelavani a veda</title>
  <g class="cls-2">
    <path class="cls-3" d="M39,66.55c-.86,1.85-.86,7-.86,7a12.14,12.14,0,0,1,4,9.22,13.16,13.16,0,0,1-2.37,7s9.14,11.07,31.61,11.07,30.11-8.43,32.26-11.07a8.08,8.08,0,0,0,1.83-5.53V66.15s-28.93,12-31,12.78a8.38,8.38,0,0,1-5.7,0C67.45,78.4,39,66.55,39,66.55m85.59-17.66c0-2-2.36-2.5-2.36-2.5L73.47,26.46a8.1,8.1,0,0,0-1.93-.62,3.72,3.72,0,0,0-1.4.53L20,46.91a3.17,3.17,0,0,0-1.29,2.24,3.29,3.29,0,0,0,1.08,2.24l11.83,5a63.1,63.1,0,0,0-3.55,9.22,30,30,0,0,0-.86,8.83,5.71,5.71,0,0,0-4.07,5.84,6.51,6.51,0,0,0,4,6.28s.22,5.53-3.22,14.23C22.16,105.19,17,111.47,17,111.47s3,2.55,4.82,3.73a5.5,5.5,0,0,0,5.83.35c1.72-1.05,4.48-3.89,5.66-9.93s-1-19.72-1-19.72,3.4-.3,3.4-5.17-3.83-5.89-3.83-5.89l.66-5.4a28.53,28.53,0,0,1,2.24-7.51c1-1.84,2.47-4,8.92-7.64S69.27,42.17,69.27,42.17s4-1.75,5.88.56-2.22,4.57-2.22,4.57L43.9,61s26.34,11.2,26.77,11.33a4,4,0,0,0,2.15,0l49.79-20.55a3.49,3.49,0,0,0,1.94-2.9"/>
  </g>
</svg>
