<svg id="zivotni_prostredi" data-name="zivotni prostredi" xmlns="http://www.w3.org/2000/svg" xmlns:xlink="http://www.w3.org/1999/xlink" viewBox="0 0 141.73 141.73">
  <defs>
    <style>
      .cls-1 {
        fill: none;
      }

      .cls-2 {
        clip-path: url(#clip-path);
      }

      .cls-3 {
        fill: #000119;
      }
    </style>
    <clipPath id="clip-path">
      <rect class="cls-1" x="27.66" y="27.91" width="86.24" height="86.24"/>
    </clipPath>
  </defs>
  <title>zivotni prostredi</title>
  <g class="cls-2">
    <path class="cls-3" d="M69.1,98.58c1.69-5,4.5-16.63-1-27.6-7.26-14.51-23-15.79-23-15.79h0s-7.84,14.46-.58,29c5.49,11,16.15,15.06,21,16.4L54.11,73.13ZM96.92,74.31v0s-10.17-2.25-17.55,5.58c-5.58,5.92-6,13.88-5.94,17.4L87.79,84,75.29,99.24c3.33.1,10.85-.43,16.43-6.35,7.37-7.83,5.21-18.57,5.21-18.57M105.84,71A35.06,35.06,0,1,1,70.78,36,35.1,35.1,0,0,1,105.84,71m8.06,0a43.12,43.12,0,1,0-43.12,43.12A43.17,43.17,0,0,0,113.9,71"/>
  </g>
</svg>
