<?xml version="1.0" encoding="utf-8"?>
<!-- Generator: Adobe Illustrator 25.2.3, SVG Export Plug-In . SVG Version: 6.00 Build 0)  -->
<svg version="1.1" id="Vrstva_1" xmlns="http://www.w3.org/2000/svg" xmlns:xlink="http://www.w3.org/1999/xlink" x="0px" y="0px"
	 viewBox="0 0 200 200" style="enable-background:new 0 0 200 200;" xml:space="preserve">
<style type="text/css">
	.st0{fill:#FFFFFF;}
</style>
<path class="st0" d="M170.8,19.2h-10.3v-5.3c0.2-7-5.3-12.9-12.3-13.1c-7-0.2-12.9,5.3-13.1,12.3c0,0.2,0,0.5,0,0.7v5.3H61.5v-5.3
	c0.2-7-5.3-12.9-12.3-13.1S36.2,6.1,36,13.2c0,0.2,0,0.5,0,0.7v5.3h-6.8c-10.5,0-19,8.5-19,19v141.6c0,10.5,8.5,19,19,19h141.6
	c10.5,0,19-8.5,19-19V38.2C189.8,27.7,181.3,19.2,170.8,19.2C170.8,19.2,170.8,19.2,170.8,19.2z M144,13.9c0-2.1,1.7-3.8,3.8-3.8
	c2.1,0,3.8,1.7,3.8,3.8v5.3H144V13.9z M45,13.9c0.1-2.1,1.9-3.7,4-3.6c1.9,0.1,3.5,1.7,3.6,3.6v5.3H45V13.9z M19.1,179.8V68.1h33.3
	c2.5,0,4.5-2,4.5-4.5c0-2.5-2-4.5-4.5-4.5H19.1V38.2c0-5.6,4.5-10.1,10.1-10.1H36v9.1c0,7,5.7,12.7,12.7,12.7c0,0,0,0,0,0
	c2.5,0,4.5-2,4.5-4.5c0-2.5-2-4.5-4.5-4.5c-2.1,0-3.8-1.7-3.8-3.8v-9.1h90.1v9.1c0,7,5.7,12.7,12.7,12.7c2.5,0,4.5-2,4.5-4.5
	s-2-4.5-4.5-4.5c0,0,0,0,0,0c-2.1,0-3.8-1.7-3.8-3.8c0,0,0,0,0,0v-9.1h26.8c5.6,0,10.1,4.5,10.1,10.1v20.9H74.8
	c-2.5,0-4.5,2-4.5,4.5c0,2.5,2,4.5,4.5,4.5h106.1v65.4c0,6.9-2.9,10.2-8.9,10.2h-21.7c-9.3,0-15.6,8.1-15.6,15.7v22.4
	c0,3-0.7,5.2-2.1,6.5c-2,1.8-5.2,1.6-5.4,1.6c-0.4,0-0.7,0-1.1,0H29.2C23.6,189.9,19.1,185.4,19.1,179.8z M170.8,189.9h-28.6
	c1-2.5,1.5-5.3,1.5-8v-22.5c0.1-3.7,3-6.7,6.7-6.8H172c3.1,0.1,6.1-0.6,8.9-2v29.2C180.9,185.4,176.4,189.9,170.8,189.9L170.8,189.9
	z"/>
<path class="st0" d="M52.2,81.2H37.8c-3.7,0-6.7,3-6.7,6.7v14.4c0,3.7,3,6.7,6.7,6.7h14.4c3.7,0,6.7-3,6.7-6.7V87.9
	C58.9,84.2,55.9,81.2,52.2,81.2z M50,100.1H40v-10h10V100.1z"/>
<path class="st0" d="M52.2,126.5H37.8c-3.7,0-6.7,3-6.7,6.7v14.4c0,3.7,3,6.7,6.7,6.7h14.4c3.7,0,6.7-3,6.7-6.7v-14.4
	C58.9,129.5,55.9,126.5,52.2,126.5z M50,145.4H40v-10h10V145.4z"/>
<path class="st0" d="M102.1,81.2H87.7c-3.7,0-6.7,3-6.7,6.7v14.4c0,3.7,3,6.6,6.7,6.7h14.4c3.7,0,6.7-3,6.7-6.7V87.9
	C108.8,84.2,105.8,81.2,102.1,81.2z M99.8,100.1h-10v-10h10V100.1z"/>
</svg>
