<?xml version="1.0" encoding="utf-8"?>
<!-- Generator: Adobe Illustrator 25.2.3, SVG Export Plug-In . SVG Version: 6.00 Build 0)  -->
<svg version="1.1" id="Vrstva_1" xmlns="http://www.w3.org/2000/svg" xmlns:xlink="http://www.w3.org/1999/xlink" x="0px" y="0px"
	 viewBox="0 0 200 200" style="enable-background:new 0 0 200 200;" xml:space="preserve">
<style type="text/css">
	.st0{fill:#FFFFFF;}
</style>
<path class="st0" d="M100,1.3C45.5,1.3,1.3,45.5,1.3,100s44.2,98.7,98.7,98.7s98.7-44.2,98.7-98.7C198.6,45.5,154.5,1.4,100,1.3z
	 M100,189.8c-49.6,0-89.8-40.2-89.8-89.8S50.4,10.2,100,10.2s89.8,40.2,89.8,89.8c0,0,0,0,0,0C189.7,149.6,149.6,189.7,100,189.8z"
	/>
<circle class="st0" cx="60.8" cy="35.4" r="5.8"/>
<path class="st0" d="M35.7,69.4c3.1-1,4.8-4.3,3.8-7.3c-1-3.1-4.3-4.8-7.3-3.8s-4.8,4.3-3.8,7.3c0,0,0,0,0,0
	C29.4,68.7,32.6,70.4,35.7,69.4z"/>
<path class="st0" d="M32.2,135.3c-3.1,1-4.7,4.3-3.8,7.3c1,3.1,4.3,4.7,7.3,3.8c3.1-1,4.7-4.3,3.8-7.3
	C38.5,136,35.2,134.3,32.2,135.3z"/>
<circle class="st0" cx="60.8" cy="169.5" r="5.8"/>
<circle class="st0" cx="136.4" cy="169.5" r="5.8"/>
<path class="st0" d="M159.7,65.7c1,3.1,4.3,4.8,7.3,3.8c3.1-1,4.8-4.3,3.8-7.3s-4.3-4.8-7.3-3.8c0,0,0,0,0,0
	C160.4,59.3,158.7,62.6,159.7,65.7z"/>
<circle class="st0" cx="137.3" cy="34" r="5.8"/>
<circle class="st0" cx="166.3" cy="140.8" r="5.8"/>
<path class="st0" d="M98.6,51.1c2.4,0,4.4-2,4.4-4.5V24.2c0-2.5-2-4.5-4.5-4.5c-2.5,0-4.5,2-4.5,4.5v22.5
	C94.1,49.1,96.1,51.1,98.6,51.1C98.6,51.1,98.6,51.1,98.6,51.1z"/>
<path class="st0" d="M98.6,153.8c-2.5,0-4.5,2-4.5,4.5l0,0v22.5c0,2.5,2,4.5,4.5,4.5c2.5,0,4.5-2,4.5-4.5v-22.5
	C103,155.8,101,153.8,98.6,153.8L98.6,153.8z"/>
<path class="st0" d="M41.5,93.7H19c-2.5-0.1-4.5,1.8-4.7,4.2c-0.1,2.5,1.8,4.5,4.2,4.7c0.1,0,0.3,0,0.4,0h22.5
	c2.5,0.1,4.5-1.8,4.7-4.2c0.1-2.5-1.8-4.5-4.2-4.7C41.8,93.6,41.7,93.6,41.5,93.7z"/>
<path class="st0" d="M148.6,98.1c0,2.5,2,4.4,4.4,4.4h22.5c2.5,0.1,4.5-1.8,4.7-4.2c0.1-2.5-1.8-4.5-4.2-4.7c-0.1,0-0.3,0-0.4,0
	h-22.5C150.6,93.7,148.6,95.6,148.6,98.1C148.6,98.1,148.6,98.1,148.6,98.1z"/>
<path class="st0" d="M81.2,45c-0.9-2.3-3.5-3.4-5.8-2.5c-1.7,0.7-2.8,2.3-2.8,4.1c0,1.2,0,1.2,14.9,30.9c5.2,10.4,10.5,20.9,13,25.8
	L73,130.2c-1.8,1.7-1.9,4.5-0.2,6.3c1.7,1.8,4.5,1.9,6.3,0.2c0.1-0.1,0.1-0.1,0.2-0.2l29.8-29.1c1.4-1.4,1.8-3.5,0.9-5.2
	C98.9,80.5,82.4,47.6,81.2,45z"/>
</svg>
