<svg xmlns="http://www.w3.org/2000/svg" viewBox="0 0 1607.57 1231.64"><defs><style>.cls-1{fill:#fd0;}.cls-2{fill:#afca0b;}.cls-3{fill:#fff;}</style></defs><g id="Vrstva_2" data-name="Vrstva 2"><g id="_0" data-name="0"><path d="M731.13,297.3a3.41,3.41,0,0,1-5.23-2.77l-.36-9.83-.35-9.83a3.42,3.42,0,0,1,5-3.15l8.7,4.61,8.69,4.61a3.41,3.41,0,0,1,.21,5.91l-8.34,5.23Z"/><path d="M821.75,204.73a3.42,3.42,0,0,1,1.06-5.83l9.26-3.31,9.26-3.32a3.42,3.42,0,0,1,4.51,3.83l-1.76,9.68-1.76,9.68a3.42,3.42,0,0,1-5.57,2l-7.5-6.36Z"/><path class="cls-1" d="M612,699.67c-1.77,0-3.51-.07-5.23-.22-14.45-1.22-25.72-7.41-36-13.64-1.52-.88-154.1-89.28-168.28-96.37-8.69-4.34-14.42-12.34-14.61-20.38-.13-5.92,2.53-14.55,16-22.09,23.71-13.28,131.79-74.22,132.88-74.83l1.47,2.61c-1.09.61-109.17,61.56-132.89,74.84-9.62,5.39-14.62,12.1-14.45,19.4.16,6.94,5.25,13.92,12.95,17.77,14.27,7.13,162.18,92.82,168.47,96.47,22.37,13.52,44.46,22.7,88.71-1.93,28.52-15.88,148.31-84.45,244.56-139.55,60.11-34.41,107.59-61.58,114.28-65.3,6.07-3.37,16.26-10.38,16.28-19.38,0-7.24-6.43-14.52-19.16-21.66C985.63,417.86,853.22,339.76,851.89,339l1.52-2.59c1.34.79,133.72,78.88,165,96.42,13.74,7.7,20.71,15.87,20.69,24.28,0,10-9.7,17.48-17.82,22-6.67,3.71-54.15,30.88-114.25,65.29C810.78,599.46,691,668,662.45,683.92,643.46,694.49,626.89,699.67,612,699.67Z"/><path d="M684.05,561.23a3,3,0,0,1-1.51-.41L514.85,463.51a3,3,0,0,1-1.49-2.6v-141a3,3,0,1,1,6,0V459.18L681.05,553V399.64a3,3,0,0,1,6,0V558.23a3,3,0,0,1-1.51,2.6A3.05,3.05,0,0,1,684.05,561.23Z"/><path d="M684.05,561.23a3,3,0,0,1-1.5-5.61l167.9-96.44V318a3,3,0,0,1,6,0v142.9a3,3,0,0,1-1.5,2.6L685.54,560.83A3,3,0,0,1,684.05,561.23Z"/><path class="cls-2" d="M1337.17,291.74h-36.85a8.9,8.9,0,0,1-8.9-8.89V260.78a8.91,8.91,0,0,1,8.9-8.9h36.85a8.91,8.91,0,0,1,8.9,8.9v22.07A8.9,8.9,0,0,1,1337.17,291.74Zm-36.85-34.86a3.91,3.91,0,0,0-3.9,3.9v22.07a3.9,3.9,0,0,0,3.9,3.89h36.85a3.9,3.9,0,0,0,3.9-3.89V260.78a3.91,3.91,0,0,0-3.9-3.9Z"/><path class="cls-2" d="M1318.69,280.44a7.16,7.16,0,0,1-4.26-1.41c-1.8-1.33-17.59-17.33-20.74-20.52l3.56-3.51c7.1,7.2,18.85,19,20.16,20a2.15,2.15,0,0,0,2.9-.26c1.48-1.42,13.49-13.82,19.63-20.19l3.6,3.48c-.73.75-17.85,18.49-19.78,20.33A7.38,7.38,0,0,1,1318.69,280.44Z"/><rect class="cls-2" x="1291.34" y="276.98" width="21.88" height="5" transform="translate(186.01 1006.1) rotate(-45.17)"/><rect class="cls-2" x="1332.26" y="268.66" width="5" height="22.46" transform="translate(180.35 1006.01) rotate(-44.01)"/><path class="cls-2" d="M1065.17,307.74h-35.23a8.62,8.62,0,0,1-8.61-8.61V278a8.62,8.62,0,0,1,8.61-8.61h35.23a8.63,8.63,0,0,1,8.62,8.61v21.1A8.63,8.63,0,0,1,1065.17,307.74Zm-35.23-33.32a3.61,3.61,0,0,0-3.61,3.61v21.1a3.61,3.61,0,0,0,3.61,3.61h35.23a3.62,3.62,0,0,0,3.62-3.61V278a3.62,3.62,0,0,0-3.62-3.61Z"/><path class="cls-2" d="M1047.5,296.94a6.88,6.88,0,0,1-4.13-1.38c-1.69-1.24-15.61-15.33-19.84-19.62l3.56-3.51c6.77,6.87,18,18.14,19.25,19.12a2,2,0,0,0,2.63-.24c1.42-1.35,12.9-13.21,18.77-19.3l3.6,3.48c-.7.72-17.07,17.68-18.92,19.44A7.14,7.14,0,0,1,1047.5,296.94Z"/><rect class="cls-2" x="1021.35" y="293.41" width="20.91" height="5" transform="translate(94.56 819.12) rotate(-45.17)"/><rect class="cls-2" x="1060.37" y="285.57" width="5" height="21.47" transform="translate(92.61 821.73) rotate(-44.01)"/><path class="cls-2" d="M1092.37,654.94h-55.79a12.19,12.19,0,0,1-12.18-12.18V609.35a12.19,12.19,0,0,1,12.18-12.18h55.79a12.2,12.2,0,0,1,12.19,12.18v33.41A12.2,12.2,0,0,1,1092.37,654.94Zm-55.79-52.77a7.19,7.19,0,0,0-7.18,7.18v33.41a7.19,7.19,0,0,0,7.18,7.18h55.79a7.2,7.2,0,0,0,7.19-7.18V609.35a7.2,7.2,0,0,0-7.19-7.18Z"/><path class="cls-2" d="M1064.41,637.87a9.58,9.58,0,0,1-5.7-1.93c-2.71-2-28.33-28-31.25-30.93l3.56-3.51c10.9,11.06,28.86,29.09,30.66,30.42a4.54,4.54,0,0,0,6-.49c2.84-2.7,29.51-30.32,29.77-30.6l3.6,3.47c-1.1,1.14-27,28-29.92,30.75A9.78,9.78,0,0,1,1064.41,637.87Z"/><rect class="cls-2" x="1022.98" y="635.16" width="33.12" height="5" transform="translate(-145.55 925.43) rotate(-45.17)"/><rect class="cls-2" x="1086.22" y="621.28" width="5" height="34" transform="translate(-137.76 935.69) rotate(-44.01)"/><path class="cls-2" d="M1248.67,158.68h-55.8a12.2,12.2,0,0,1-12.18-12.19V113.08a12.2,12.2,0,0,1,12.18-12.18h55.8a12.19,12.19,0,0,1,12.18,12.18v33.41A12.2,12.2,0,0,1,1248.67,158.68Zm-55.8-52.78a7.19,7.19,0,0,0-7.18,7.18v33.41a7.2,7.2,0,0,0,7.18,7.19h55.8a7.2,7.2,0,0,0,7.18-7.19V113.08a7.19,7.19,0,0,0-7.18-7.18Z"/><path class="cls-2" d="M1220.7,141.6a9.63,9.63,0,0,1-5.7-1.92c-2.7-2-28.33-28-31.24-30.93l3.56-3.51c10.9,11.05,28.85,29.09,30.65,30.41a4.55,4.55,0,0,0,6-.49c2.83-2.69,29.5-30.32,29.77-30.6l3.6,3.48c-1.11,1.14-27,28-29.92,30.74A9.79,9.79,0,0,1,1220.7,141.6Z"/><rect class="cls-2" x="1179.27" y="138.89" width="33.12" height="5" transform="translate(252.54 889.86) rotate(-45.17)"/><rect class="cls-2" x="1242.52" y="125.01" width="5" height="34" transform="translate(250.94 904.94) rotate(-44.01)"/><path class="cls-2" d="M565.75,736.15H515.11a11.3,11.3,0,0,0-11.29,11.29v30.32a11.3,11.3,0,0,0,11.29,11.29h50.64A11.3,11.3,0,0,0,577,777.76V747.44A11.3,11.3,0,0,0,565.75,736.15ZM555,762.43c5.81-6,13.05-13.46,16.62-17.16a6.27,6.27,0,0,1,.39,2.17v30.32a6.27,6.27,0,0,1-.31,2Zm10.72-21.28a6.32,6.32,0,0,1,2.46.49c-5.91,6.12-22.86,23.65-25,25.67a3.85,3.85,0,0,1-5.19.42c-1.57-1.16-16.09-15.72-26-25.77a6.32,6.32,0,0,1,3.09-.81Zm-56.87,37.41a5.29,5.29,0,0,1-.06-.8V747.44A6.09,6.09,0,0,1,509,746c3.8,3.84,10.46,10.57,16.13,16.21Zm6.23,5.49a6.27,6.27,0,0,1-3.55-1.1l17.12-17.22c3.2,3.14,5.66,5.49,6.38,6a8.91,8.91,0,0,0,5.31,1.79,9.12,9.12,0,0,0,6.3-2.62c.63-.6,2.45-2.45,4.87-4.92l16.86,17.45a6.2,6.2,0,0,1-2.65.59Z"/><path class="cls-2" d="M229.86,818.22H194.63a8.63,8.63,0,0,0-8.61,8.62v21.09a8.63,8.63,0,0,0,8.61,8.62h35.23a8.63,8.63,0,0,0,8.62-8.62V826.84A8.63,8.63,0,0,0,229.86,818.22Zm-6.4,19,10-10.34v20.71Zm6.4-14a1.81,1.81,0,0,1,.23,0c-6.15,6.36-15.18,15.67-16.42,16.86a1.94,1.94,0,0,1-2.63.24c-1.15-.88-10.43-10.18-17.2-17a3.42,3.42,0,0,1,.79-.1ZM191,846.68v-19.1c2.68,2.71,6.28,6.34,9.5,9.54Zm3.61,4.87a3.58,3.58,0,0,1-1.18-.22l10.63-10.69c2,2,3.5,3.37,4,3.73a7,7,0,0,0,4.13,1.38,7.09,7.09,0,0,0,4.92-2c.4-.37,1.45-1.44,2.86-2.88l10.3,10.66c-.14,0-.27,0-.41,0Z"/><path class="cls-2" d="M371.89,610.23H306.12a13.93,13.93,0,0,0-13.92,13.91v39.39a13.94,13.94,0,0,0,13.92,13.92h65.77a13.94,13.94,0,0,0,13.92-13.92V624.14A13.93,13.93,0,0,0,371.89,610.23Zm8.92,13.91v39.39a8.89,8.89,0,0,1-.9,3.88l-23-23.8c8.07-8.29,18.47-19.05,22.86-23.59A8.79,8.79,0,0,1,380.81,624.14Zm-8.92-8.91a8.88,8.88,0,0,1,4.43,1.18c-6.92,7.17-30.32,31.36-33.17,34.09a5.82,5.82,0,0,1-7.71.61c-2.07-1.52-21.16-20.67-34.51-34.2a8.79,8.79,0,0,1,5.19-1.68Zm-74.31,50.84a8.53,8.53,0,0,1-.38-2.54V624.14a8.84,8.84,0,0,1,.63-3.26c4.47,4.54,14.26,14.43,22.35,22.46Zm8.54,6.38a8.86,8.86,0,0,1-5.74-2.11l23.36-23.49c4.38,4.31,7.78,7.58,8.73,8.28a10.83,10.83,0,0,0,6.45,2.18,11.08,11.08,0,0,0,7.67-3.19c.86-.82,3.45-3.44,6.84-6.92l23.12,23.92a8.83,8.83,0,0,1-4.66,1.33Z"/><path class="cls-2" d="M1304.35,501.83h-37a7.93,7.93,0,0,1-7.92-7.92V471.77a7.93,7.93,0,0,1,7.92-7.92h37a7.93,7.93,0,0,1,7.92,7.92v22.14A7.93,7.93,0,0,1,1304.35,501.83Zm-37-35a4.93,4.93,0,0,0-4.92,4.92v22.14a4.92,4.92,0,0,0,4.92,4.92h37a4.92,4.92,0,0,0,4.92-4.92V471.77a4.93,4.93,0,0,0-4.92-4.92Z"/><path class="cls-2" d="M1285.82,490.51a6.2,6.2,0,0,1-3.68-1.24c-1.79-1.31-18.76-18.52-20.69-20.48l2.13-2.11c7.23,7.33,19.14,19.29,20.34,20.17a3.17,3.17,0,0,0,4.21-.33c1.88-1.79,19.55-20.1,19.73-20.28l2.16,2.08c-.73.76-17.9,18.54-19.82,20.37A6.33,6.33,0,0,1,1285.82,490.51Z"/><rect class="cls-2" x="1258.36" y="489.04" width="21.95" height="3" transform="translate(26.45 1044.67) rotate(-45.16)"/><rect class="cls-2" x="1300.44" y="479.68" width="3" height="22.53" transform="translate(24.47 1042.45) rotate(-44.01)"/><path d="M1160.68,468h-70.55a5.13,5.13,0,0,1-5.12-5.13v-103a5.13,5.13,0,0,1,5.12-5.12h16.39a5.13,5.13,0,0,1,5.13-5.12h29.86a5.13,5.13,0,0,1,5.13,5.12h14a5.13,5.13,0,0,1,5.12,5.12v103A5.13,5.13,0,0,1,1160.68,468Zm-70.55-108.66a.57.57,0,0,0-.56.56v103a.57.57,0,0,0,.56.57h70.55a.57.57,0,0,0,.56-.57v-103a.57.57,0,0,0-.56-.56h-16.32a2.28,2.28,0,0,1-2.28-2.28v-2.28a.57.57,0,0,0-.57-.56h-29.86a.57.57,0,0,0-.57.56v2.28a2.28,2.28,0,0,1-2.28,2.28Z"/><rect class="cls-3" x="1124.1" y="372.11" width="66.44" height="95.84" transform="translate(-73.41 386.68) rotate(-18.4)"/><path d="M1140.92,478a2,2,0,0,1-1.89-1.37l-30.25-90.94a2,2,0,0,1,.11-1.53,2,2,0,0,1,1.16-1l63-21a2,2,0,0,1,2.52,1.26l30.25,90.95a2,2,0,0,1-1.27,2.53l-63,21A1.93,1.93,0,0,1,1140.92,478Zm-27.71-91.68,29,87.15,59.25-19.7-29-87.16Z"/><rect x="1129.44" y="400.33" width="5.62" height="5.62" transform="translate(-69.36 377.91) rotate(-18.4)"/><rect x="1133.21" y="411.68" width="5.62" height="5.62" transform="translate(-72.75 379.68) rotate(-18.4)"/><rect x="1137.62" y="424.94" width="5.62" height="5.62" transform="translate(-76.71 381.75) rotate(-18.4)"/><rect x="1141.4" y="436.29" width="5.62" height="5.62" transform="translate(-80.1 383.52) rotate(-18.4)"/><rect x="1139.77" y="392.98" width="29.92" height="1.52" transform="translate(-65.25 385.12) rotate(-18.42)"/><rect x="1143.67" y="404.69" width="29.92" height="1.52" transform="translate(-68.75 386.95) rotate(-18.42)"/><rect x="1145.27" y="409.74" width="29.92" height="1.52" transform="translate(-70.27 387.71) rotate(-18.42)"/><rect x="1150.53" y="430.66" width="29.92" height="1.52" transform="translate(-76.61 390.45) rotate(-18.42)"/><g id="Axonometric_Cube" data-name="Axonometric Cube"><g id="Cube_face_-_top" data-name="Cube face - top"><path d="M683.94,381a3,3,0,0,1-1.5-.4L503.82,277.47a3,3,0,0,1,0-5.19L682.44,169.15a3,3,0,0,1,3,0L864.07,272.28a3,3,0,0,1,0,5.19L685.44,380.6A3,3,0,0,1,683.94,381ZM511.32,274.88l172.62,99.66,172.63-99.66L683.94,175.21Z"/></g><g id="Cube_face_-_left" data-name="Cube face - left"><path d="M683.94,419.29a3,3,0,0,1-1.5-.4L503.82,315.76a3,3,0,0,1-1.5-2.59V274.88a3,3,0,0,1,4.5-2.6L685.44,375.4a3,3,0,0,1,1.5,2.6v38.29a3,3,0,0,1-3,3ZM508.32,311.43,680.94,411.1V379.73L508.32,280.07Z"/></g><g id="Cube_face_-_right" data-name="Cube face - right"><path d="M683.94,419.29a3,3,0,0,1-3-3V378a3,3,0,0,1,1.5-2.6L861.07,272.28a3,3,0,0,1,4.5,2.6v38.29a3,3,0,0,1-1.5,2.59L685.44,418.89A3,3,0,0,1,683.94,419.29Zm3-39.56V411.1l172.63-99.67V280.07Zm175.63-66.56h0Z"/></g></g><path class="cls-1" d="M624.17,313.14a2.6,2.6,0,0,1-1.18-.29s-6.06-3.26-12.12-6.56c-13.4-7.31-13.4-7.31-13.4-9.05a2.5,2.5,0,0,1,1.29-2.18l128.43-71a2.48,2.48,0,0,1,2.38,0L753,236.43a2.5,2.5,0,0,1,.06,4.39l-127.7,72A2.43,2.43,0,0,1,624.17,313.14ZM605,297.33c4.66,2.61,13,7.14,19.16,10.46l122.52-69.08-18.23-9.65Z"/><path d="M1570.85,200.89c-35.38-19.81-103-57.73-105.75-59.43-1.34-.82-3.2-2.9-3.15-4.93.06-2.28,2.63-4.15,4.77-5.32,9.9-5.39,120.29-68.84,140.85-80.66V43.63c-4.66,2.68-133.23,76.6-143.72,82.31-6.39,3.48-7.82,7.59-7.9,10.43-.12,4.42,2.92,8.3,6,10.2,3.54,2.18,101.79,57.22,106,59.56,2.22,1.24,3.37,2.94,3.43,5.06.1,3.37-2.56,7.45-6.46,9.94C1558.74,225,1289,379.18,1276.27,386.05c-7.55,4.08-12.07,10-12.4,16.13-.21,3.9,1.15,9.65,8.77,14.89,10.08,6.92,67.44,38.66,91.93,52.21,4.73,2.62,8,4.42,9,5,2.62,1.47,5.29,4.88,5.32,8.54,0,3.14-1.94,5.88-5.89,8.19-188.63,115.59-350.26,55.1-452.63-16C809.13,397.75,741.68,291.57,741,290.51l-5.08,3.19c.67,1.07,68.66,108.16,180.9,186.16,66,45.9,134.29,72.94,202.82,80.35a359.26,359.26,0,0,0,38.76,2.1c72.9,0,146-22.17,217.7-66.13,7.33-4.28,8.84-9.65,8.81-13.39,0-6.21-4.37-11.46-8.37-13.72-1.06-.6-4.33-2.41-9.08-5-22.32-12.35-81.6-45.15-91.44-51.91-2.94-2-6.41-5.33-6.18-9.62.22-4,3.59-8.11,9.27-11.17,12.74-6.88,282.82-161.22,289-165.14,5.78-3.67,9.4-9.63,9.24-15.18A11.81,11.81,0,0,0,1570.85,200.89Z"/><path d="M843.54,207c2,.41,4.07.75,6,1l.4-3.18c-1.89-.24-3.84-.56-5.8-1Z"/><path d="M1130.33,241.2l0,3.2c4-.05,8-.22,12.09-.53l-.25-3.19C1138.23,241,1134.23,241.16,1130.33,241.2Z"/><path d="M1106.21,243c4,.52,8,.91,12.06,1.14l.19-3.19c-4-.23-7.94-.61-11.83-1.13Z"/><path d="M1082.53,238c3.86,1.11,7.81,2.09,11.75,2.91l.65-3.13c-3.86-.8-7.73-1.76-11.51-2.86Z"/><path d="M1154,239.4l.44,3.17c3.93-.54,7.94-1.22,11.92-2l-.62-3.14C1161.85,238.2,1157.9,238.87,1154,239.4Z"/><path d="M1265.56,196.35l-.89.52,1.62,2.76.89-.53,9.55-5.53-1.6-2.77C1270.39,193.53,1267.13,195.43,1265.56,196.35Z"/><path d="M1177.38,234.8l.79,3.1c3.83-1,7.74-2.07,11.62-3.26l-.94-3C1185,232.76,1181.17,233.84,1177.38,234.8Z"/><path d="M1059.85,229.58c3.68,1.68,7.44,3.24,11.18,4.63l1.12-3c-3.67-1.37-7.36-2.9-11-4.55Z"/><path d="M1243.78,208.5l1.49,2.83c3.45-1.81,7-3.73,10.58-5.73l-1.56-2.79C1250.74,204.79,1247.21,206.71,1243.78,208.5Z"/><path d="M1200.17,227.84l1.07,3c3.71-1.32,7.5-2.76,11.27-4.28l-1.19-3C1207.58,225.11,1203.83,226.53,1200.17,227.84Z"/><path d="M1038.63,218c3.42,2.18,6.92,4.25,10.41,6.16l1.53-2.81c-3.42-1.87-6.86-3.91-10.22-6Z"/><path d="M918.67,166.77l2.2,2.32a60.35,60.35,0,0,1,9.1-7.28l-1.71-2.71A64.61,64.61,0,0,0,918.67,166.77Z"/><path d="M908.91,176.84c-2.22,2.4-4.53,4.88-6.89,7.27l2.28,2.25c2.39-2.43,4.71-4.93,7-7.34l1.31-1.41-2.34-2.18Z"/><path d="M883.73,198.8l1.57,2.79a68.46,68.46,0,0,0,10.08-7l-2-2.47A65.56,65.56,0,0,1,883.73,198.8Z"/><path d="M861.65,205.26l.19,3.19A54.87,54.87,0,0,0,874,206.37l-.9-3.07A51.48,51.48,0,0,1,861.65,205.26Z"/><path d="M939.73,154.24l.68,3.12a31,31,0,0,1,11.31-.29l.48-3.16A33.76,33.76,0,0,0,939.73,154.24Z"/><path d="M962.81,160.32a80.33,80.33,0,0,1,10.43,5.4l1.65-2.74a83.36,83.36,0,0,0-10.84-5.6Z"/><path d="M1003.46,185.25l-2.17,2.36c1.71,1.57,3.46,3.22,5.21,4.9,1.17,1.13,2.35,2.23,3.52,3.31l2.17-2.35c-1.16-1.06-2.32-2.16-3.47-3.27C1007,188.5,1005.18,186.84,1003.46,185.25Z"/><path d="M1019.11,203.77c3.13,2.58,6.34,5.07,9.54,7.41l1.89-2.58c-3.15-2.3-6.31-4.76-9.39-7.3Z"/><rect x="1285.57" y="181.56" width="12.04" height="3.2" transform="translate(80.88 668.89) rotate(-29.93)"/><path d="M983.05,172.34c3,2.21,6.11,4.69,9.31,7.38l2.06-2.44c-3.25-2.74-6.44-5.26-9.47-7.51Z"/><path d="M1222.3,218.94l1.31,2.92c3.59-1.6,7.26-3.31,10.91-5.09l-1.4-2.88C1229.5,215.66,1225.86,217.35,1222.3,218.94Z"/><rect x="1514.79" y="50" width="12.01" height="3.2" transform="translate(176.01 763.67) rotate(-29.84)"/><rect x="1473.13" y="73.89" width="12.01" height="3.2" transform="translate(158.6 746.1) rotate(-29.84)"/><rect x="1556.46" y="26.1" width="12.01" height="3.2" transform="translate(193.43 781.24) rotate(-29.84)"/><rect x="1493.96" y="61.95" width="12.01" height="3.2" transform="translate(167.3 754.88) rotate(-29.84)"/><rect x="1535.63" y="38.05" width="12.01" height="3.2" transform="translate(184.72 772.45) rotate(-29.84)"/><polygon points="1598.14 5.41 1599.73 8.18 1607.57 3.69 1607.57 0 1598.14 5.41"/><rect x="1306.44" y="169.56" width="12.02" height="3.2" transform="translate(89.3 676.86) rotate(-29.89)"/><rect x="1577.3" y="14.16" width="12.01" height="3.2" transform="translate(202.14 790.02) rotate(-29.84)"/><rect x="1348.13" y="145.62" width="12.01" height="3.2" transform="translate(106.55 693.93) rotate(-29.87)"/><rect x="1368.97" y="133.66" width="12.01" height="3.2" transform="translate(115.13 702.39) rotate(-29.85)"/><rect x="1327.29" y="157.58" width="12.02" height="3.2" transform="translate(97.97 685.47) rotate(-29.88)"/><rect x="1389.8" y="121.7" width="12.01" height="3.2" transform="translate(123.76 710.98) rotate(-29.84)"/><rect x="1410.63" y="109.74" width="12.01" height="3.2" transform="translate(132.47 719.76) rotate(-29.84)"/><rect x="1431.47" y="97.79" width="12.01" height="3.2" transform="translate(141.18 728.54) rotate(-29.84)"/><rect x="1452.3" y="85.85" width="11.99" height="3.2" transform="translate(149.89 737.32) rotate(-29.84)"/><path class="cls-1" d="M449.45,794.52c-1-.58-102.35-57.33-105.81-59.46-1.59-1-3.93-3.46-3.86-6.25.07-2.41,1.94-4.63,5.55-6.6,10.68-5.81,142.62-81.67,144-82.44l-1.5-2.6c-1.33.77-133.24,76.61-143.88,82.4-5.76,3.14-7,6.71-7.11,9.16-.11,3.79,2.66,7.26,5.28,8.88,3.5,2.16,101.73,57.18,105.91,59.53a7.36,7.36,0,0,1,4.21,6.32c.11,3.93-2.77,8.45-7.16,11.25-6.16,3.92-276,158.1-288.71,165-7.08,3.83-11.32,9.26-11.62,14.89-.18,3.52,1.07,8.73,8.13,13.58,10,6.88,67.35,38.6,91.83,52.15,4.72,2.61,8,4.41,9,5,3,1.69,6.05,5.61,6.08,9.83,0,3.66-2.24,6.94-6.58,9.47-11,6.42-212,123.14-253.18,147H6c49.46-28.71,238.1-138.23,248.73-144.44,6.71-3.92,8.09-8.73,8.06-12.08,0-5.62-4-10.38-7.6-12.43l-9-5c-22.35-12.37-81.69-45.21-91.6-52-4.67-3.21-7-7-6.82-10.94.24-4.57,3.9-9.09,10.05-12.41,12.73-6.87,282.72-161.15,288.89-165.08,5.34-3.39,8.69-8.84,8.55-13.87A10.35,10.35,0,0,0,449.45,794.52Z"/></g></g></svg>