<svg id="Vrstva_1" data-name="Vrstva 1" xmlns="http://www.w3.org/2000/svg" viewBox="0 0 206 116.05"><defs><style>.cls-1{fill:#fff;}</style></defs><g id="Group_2" data-name="Group 2"><path id="Path_1" data-name="Path 1" class="cls-1" d="M200.19,43.13,197,48.43h3.53l4.87-5.3Z"/><path id="Path_2" data-name="Path 2" class="cls-1" d="M196.93,55H206V50.19H191.67V83.61H206V78.84h-9.07V69.05h7.21V64.28h-7.21Z"/><path id="Path_3" data-name="Path 3" class="cls-1" d="M176.13,50.19h-5.3L176,83.61h7.83L189,50.19h-4.82l-4,27.27Z"/><g id="Group_1" data-name="Group 1"><path id="Path_4" data-name="Path 4" class="cls-1" d="M152.72,75.59c0,5.35,2.82,8.4,8,8.4s8-3,8-8.4V58.22c0-5.35-2.82-8.4-8-8.4s-8,3-8,8.4ZM158,57.88c0-2.39,1.05-3.29,2.73-3.29s2.72.9,2.72,3.29V75.93c0,2.39-1,3.29-2.72,3.29s-2.73-.9-2.73-3.29Z"/><path id="Path_5" data-name="Path 5" class="cls-1" d="M135.11,55h5.49V83.61h5.25V55h5.49V50.19H135.11Z"/><path id="Path_6" data-name="Path 6" class="cls-1" d="M118.68,58.22c0,9.54,10.26,10.83,10.26,17.71,0,2.39-1,3.24-2.72,3.24s-2.72-.85-2.72-3.24V73.54h-5v2c0,5.35,2.68,8.4,7.83,8.4s7.83-3,7.83-8.4c0-9.54-10.26-10.83-10.26-17.71,0-2.39.95-3.29,2.62-3.29s2.63.9,2.63,3.29v1.39h5V58.22c0-5.35-2.62-8.4-7.73-8.4s-7.73,3-7.73,8.4"/><path id="Path_7" data-name="Path 7" class="cls-1" d="M100.18,75.59c0,5.35,2.82,8.4,8,8.4s8-3,8-8.4V58.22c0-5.35-2.82-8.4-8-8.4s-8,3-8,8.4Zm5.26-17.71c0-2.39,1-3.29,2.72-3.29s2.72.9,2.72,3.29V75.93c0,2.39-1,3.29-2.72,3.29s-2.72-.9-2.72-3.29Z"/><path id="Path_8" data-name="Path 8" class="cls-1" d="M89,55c1.86,0,2.67,1.05,2.67,3.44V61.7c0,2.67-1.19,3.53-3.15,3.53H86.5V55Zm8.54,28.64a9.77,9.77,0,0,1-.57-4V74.4c0-3.49-.86-6-3.49-7.11,2.34-1.1,3.44-3.35,3.44-6.78V57.88c0-5.16-2.34-7.69-7.78-7.69H81.25V83.61H86.5V70h1.82c2.39,0,3.44,1.14,3.44,4.25v5.25a10.41,10.41,0,0,0,.47,4.11Z"/><path id="Path_9" data-name="Path 9" class="cls-1" d="M69.1,56.11,71.62,73H66.57Zm4.1-5.92H65.51L60.17,83.61H65l.91-6.06h6.44l.91,6.06h5.3Z"/><path id="Path_10" data-name="Path 10" class="cls-1" d="M44.91,55H50.4V83.61h5.25V55h5.49V50.19H44.91Z"/><path id="Path_11" data-name="Path 11" class="cls-1" d="M28.22,58.22c0,9.54,10.26,10.83,10.26,17.71,0,2.39-1,3.24-2.72,3.24S33,78.32,33,75.93V73.54h-5v2c0,5.35,2.68,8.4,7.83,8.4s7.83-3,7.83-8.4c0-9.54-10.26-10.83-10.26-17.71,0-2.39,1-3.29,2.62-3.29s2.63.9,2.63,3.29v1.39h5V58.22c0-5.35-2.62-8.4-7.73-8.4s-7.74,3-7.74,8.4"/><path id="Path_12" data-name="Path 12" class="cls-1" d="M8.79,51.39l5.82,23.4H3.1Zm6,24.35,2,7.87h1L9.55,50.15H8.07L0,83.61H1l2-7.87Z"/><rect id="Rectangle_63" data-name="Rectangle 63" class="cls-1" x="110.49" y="7.06" width="5.25" height="33.42"/><path id="Path_13" data-name="Path 13" class="cls-1" d="M91.93,11.84h5.49V40.49h5.25V11.84h5.49V7.07H91.93Z"/><path id="Path_14" data-name="Path 14" class="cls-1" d="M84.16,0,80.92,5.3h3.53L89.32,0Zm-.72,13L86,29.88H80.91Zm4.11-5.92H79.86L74.52,40.48h4.82l.9-6.06h6.45l.91,6.06h5.3Z"/><path id="Path_15" data-name="Path 15" class="cls-1" d="M64.34,11.84c1.86,0,2.68,1.05,2.68,3.44v3.29c0,2.68-1.2,3.53-3.16,3.53h-2V11.84Zm8.55,28.65a9.7,9.7,0,0,1-.57-4.06V31.27c0-3.48-.86-6-3.49-7.11,2.34-1.1,3.44-3.34,3.44-6.78V14.75c0-5.15-2.34-7.68-7.78-7.68H56.56V40.49h5.25V26.88h1.82c2.38,0,3.43,1.15,3.43,4.25v5.25a10.42,10.42,0,0,0,.48,4.11Z"/><rect id="Rectangle_64" data-name="Rectangle 64" class="cls-1" x="47.82" y="7.06" width="5.25" height="33.42"/><path id="Path_16" data-name="Path 16" class="cls-1" d="M37.48,11.84c1.67,0,2.58.76,2.58,3.15v5c0,2.39-.91,3.16-2.58,3.16H35V11.84Zm0-4.77H29.75V40.49H35V27.93h2.48c5.25,0,7.83-2.91,7.83-8.26V15.33c0-5.35-2.58-8.26-7.83-8.26"/><path id="Path_17" data-name="Path 17" class="cls-1" d="M37.93,116.05a11.35,11.35,0,1,0-11.22-11.34,11.29,11.29,0,0,0,11.22,11.34"/><rect id="Rectangle_65" data-name="Rectangle 65" class="cls-1" x="55.54" y="93.36" width="22.45" height="22.69"/></g></g></svg>