<svg id="Vrstva_1" data-name="Vrstva 1" xmlns="http://www.w3.org/2000/svg" viewBox="0 0 200 200"><path d="M162.37,29.25a27.56,27.56,0,0,0-18.6,47.91l-15.5,25.08a20.71,20.71,0,0,0-26,7l-30-15.07A20.8,20.8,0,1,0,43.14,107L29.27,136.82a17.08,17.08,0,1,0,8.24,3.42L52,109.12h.34A20.71,20.71,0,0,0,68,102L98.9,117.5a20.48,20.48,0,0,0-.33,3.52,20.81,20.81,0,1,0,36.79-13.29L151.23,82a27.57,27.57,0,1,0,11.14-52.79ZM27.11,161.84a8.13,8.13,0,1,1,8.13-8.13A8.14,8.14,0,0,1,27.11,161.84Zm25.2-61.62A11.89,11.89,0,1,1,64.2,88.33,11.9,11.9,0,0,1,52.31,100.22Zm67.07,32.69A11.89,11.89,0,1,1,131.26,121,11.9,11.9,0,0,1,119.38,132.91Zm43-57.43A18.66,18.66,0,1,1,181,56.82,18.68,18.68,0,0,1,162.37,75.48Z"/></svg>