<svg width="30" height="30" viewBox="0 0 30 30" xmlns="http://www.w3.org/2000/svg"><title>share-twitter</title><g fill="none" fill-rule="evenodd"><circle fill="#55ACEE" cx="15" cy="15" r="15"/><path d="M21.601 9.266c-.406.275-1.34.675-1.8.675A2.812 2.812 0 0 0 17.712 9c-1.595 0-2.889 1.364-2.889 3.046 0 .234.026.462.073.68-2.163-.06-4.53-1.203-5.954-3.161-.876 1.599-.118 3.377.876 4.025-.34.028-.967-.04-1.261-.344-.02 1.061.464 2.467 2.228 2.978-.34.192-.941.137-1.203.096.092.896 1.281 2.067 2.582 2.067-.464.566-2.208 1.592-4.165 1.266A8.345 8.345 0 0 0 12.518 21c4.66 0 8.278-3.984 8.084-8.899l-.002-.016.002-.039-.002-.044a5.145 5.145 0 0 0 1.4-1.56c-.236.137-.943.411-1.602.48.423-.241 1.049-1.03 1.203-1.656" fill="#FFF"/></g></svg>